<?xml version="1.0" standalone="no"?>
<!DOCTYPE svg PUBLIC "-//W3C//DTD SVG 1.1//EN" "http://www.w3.org/Graphics/SVG/1.1/DTD/svg11.dtd" >
<svg xmlns="http://www.w3.org/2000/svg" xmlns:xlink="http://www.w3.org/1999/xlink" version="1.1">
<metadata></metadata>
<defs>
<font id="futura_ptbold" horiz-adv-x="1024" >
<font-face units-per-em="2048" ascent="1563" descent="-485" />
<missing-glyph horiz-adv-x="477" />
<glyph unicode="&#xfb01;" horiz-adv-x="1196" d="M23 647v268h114v113q0 111 25.5 199t99.5 159q65 63 160.5 96.5t200.5 33.5q103 0 204 -31.5t162 -91.5q115 -111 115 -308v-47h-328v31q0 82 -41 123t-114 41q-69 0 -113 -47q-43 -45 -43 -142v-129h229v-268h-229v-647h-328v647h-114zM776 0v915h328v-915h-328z" />
<glyph unicode="&#xfb02;" horiz-adv-x="1216" d="M23 647v268h114v121q0 107 25.5 192.5t99.5 157.5q134 130 356 130q107 0 206.5 -34.5t164.5 -101.5q72 -74 93.5 -158t21.5 -198v-1024h-328v1032q0 111 -41 156q-42 45 -112 45q-71 0 -115 -47q-43 -47 -43 -142v-129h229v-268h-229v-647h-328v647h-114z" />
<glyph horiz-adv-x="0" />
<glyph horiz-adv-x="682" />
<glyph unicode=" "  horiz-adv-x="477" />
<glyph unicode="&#x09;" horiz-adv-x="477" />
<glyph unicode="&#xa0;" horiz-adv-x="477" />
<glyph unicode="!" horiz-adv-x="698" d="M137 174q0 86 64 150q63 63 149 63q87 0 152 -65q59 -59 59 -148q0 -88 -61 -149q-64 -64 -150 -64q-85 0 -149 64t-64 149zM178 465v901h340v-901h-340z" />
<glyph unicode="&#x22;" horiz-adv-x="845" d="M84 1366h295l-51 -549h-195zM467 1366h295l-49 -549h-197z" />
<glyph unicode="#" horiz-adv-x="1228" d="M12 373l37 239h207l29 170h-207l37 238h207l55 346h270l-57 -346h174l55 346h273l-56 -346h205l-37 -238h-205l-26 -170h207l-35 -239h-209l-59 -373h-275l62 373h-175l-59 -373h-270l61 373h-209zM526 612h174l27 170h-174z" />
<glyph unicode="$" horiz-adv-x="1228" d="M117 158l147 274q71 -68 142 -104q96 -47 186 -47q86 0 133 47q37 37 37 86q0 48 -41 78q-27 19 -92 40l-121 41q-156 54 -225 127q-88 91 -88 238q0 175 102 289q96 107 250 135v225h205v-225q148 -9 309 -105l-135 -262q-113 88 -230 88q-84 0 -123 -36 q-30 -26 -30 -68q0 -40 28 -68q35 -32 95 -51l106 -37q53 -18 80.5 -28.5t74.5 -38t83 -62.5q102 -99 102 -250q0 -189 -115 -309q-43 -45 -109 -80t-136 -53v-231h-205v221q-119 3 -232 49q-107 45 -198 117z" />
<glyph unicode="%" horiz-adv-x="1832" d="M68 1040q0 66 22 127.5t62 104.5q97 108 286 108q187 0 291 -108q86 -90 86 -225q0 -136 -88 -228q-103 -108 -289 -108q-181 0 -284 108q-86 92 -86 221zM289 1047q0 -71 53 -117q40 -37 100 -37q63 0 109 43q45 45 45 111q0 68 -49 114q-42 39 -105 39q-68 0 -112 -47 q-41 -44 -41 -106zM432 0l791 1366h178l-793 -1366h-176zM1018 313q0 66 22 127.5t62 104.5q97 108 287 108q186 0 290 -108q86 -90 86 -226q0 -135 -88 -227q-103 -108 -288 -108q-182 0 -285 108q-86 92 -86 221zM1239 319q0 -70 53 -116q40 -37 101 -37q62 0 108 43 q45 45 45 110q0 69 -49 115q-42 39 -104 39q-69 0 -113 -47q-41 -44 -41 -107z" />
<glyph unicode="&#x26;" horiz-adv-x="1548" d="M82 354q0 160 102 262q38 40 100.5 76.5t123.5 57.5q-45 52 -80 108q-47 77 -47 168q0 68 28 134t76 116q119 121 322 121q200 0 317 -113q53 -52 81 -120.5t28 -135.5q0 -124 -95 -219q-69 -69 -159 -107l172 -180q99 92 178 195l201 -195q-80 -101 -187 -198l305 -324 h-442l-119 125q-213 -156 -459 -156q-218 0 -335 115q-111 106 -111 270zM449 412q0 -59 40 -93q43 -38 117 -38q93 0 187 59l-215 231q-74 -42 -104 -84q-25 -37 -25 -75zM616 1042q0 -37 37 -92q22 -32 72 -82q41 21 82 62q43 49 43 100q0 61 -37 94q-34 31 -82 31 q-45 0 -78 -29q-37 -32 -37 -84z" />
<glyph unicode="'" horiz-adv-x="460" d="M84 1366h295l-51 -549h-195z" />
<glyph unicode="(" horiz-adv-x="724" d="M137 553q0 287 76 537q62 202 184 403l232 -123q-106 -195 -152 -371q-25 -93 -41 -214.5t-16 -221.5q0 -96 14 -215t35 -209q48 -209 160 -401l-232 -123q-74 108 -118 212.5t-82 246.5q-32 124 -46 229.5t-14 249.5z" />
<glyph unicode=")" horiz-adv-x="724" d="M96 -262q112 192 160 401q21 90 35 209t14 215q0 100 -16 221.5t-41 214.5q-46 176 -152 371l232 123q122 -201 184 -403q76 -250 76 -539q0 -142 -14 -247.5t-46 -229.5q-38 -142 -82 -246.5t-118 -212.5z" />
<glyph unicode="*" horiz-adv-x="1325" d="M289 1141l69 213l211 -90l-20 229h225l-20 -229l213 90l69 -211l-225 -53l152 -175l-181 -131l-120 195l-119 -195l-181 131l152 172z" />
<glyph unicode="+" d="M68 573v246h311v314h266v-314h311v-246h-311v-313h-266v313h-311z" />
<glyph unicode="," horiz-adv-x="851" d="M-18 -305l256 647h307l-352 -647h-211z" />
<glyph unicode="-" horiz-adv-x="722" d="M102 414v272h519v-272h-519z" />
<glyph unicode="." horiz-adv-x="620" d="M98 174q0 86 64 150q63 63 149 63q87 0 152 -65q59 -59 59 -148q0 -88 -61 -149q-64 -64 -150 -64q-85 0 -149 64t-64 149z" />
<glyph unicode="/" horiz-adv-x="1376" d="M-61 -385l1046 1878h268l-1048 -1878h-266z" />
<glyph unicode="0" horiz-adv-x="1228" d="M35 682q0 177 54 321.5t149 237.5q78 76 176 116t200 40t200.5 -40t176.5 -116q95 -93 149 -237.5t54 -321.5q0 -176 -54 -320t-149 -237q-78 -76 -176.5 -116t-200.5 -40t-200 40t-176 116q-95 93 -149 237t-54 320zM387 680q0 -93 32 -200t87 -156q46 -43 108 -43 q63 0 109 43q54 47 86.5 152.5t32.5 201.5q0 97 -34 205t-85 153q-46 43 -109 43q-62 0 -108 -43q-53 -45 -86 -150t-33 -206z" />
<glyph unicode="1" horiz-adv-x="1228" d="M285 1065v301h549v-1366h-355v1065h-194z" />
<glyph unicode="2" horiz-adv-x="1228" d="M53 0l346 362q182 191 281 347q74 114 74 213q0 86 -41 131q-36 41 -101 41q-74 0 -118 -56q-45 -59 -50 -168h-366q1 123 44.5 219.5t106.5 159.5q148 148 387 148q243 0 385 -142q134 -134 134 -335q0 -122 -51.5 -217t-151.5 -189l-230 -213h447v-301h-1096z" />
<glyph unicode="3" horiz-adv-x="1228" d="M57 467h363q3 -85 55 -137q51 -54 139 -54q84 0 140 60q41 46 41 113q0 77 -54 120q-47 39 -131 39q-35 0 -59 -8v240q91 -13 145 34q45 40 45 97q0 27 -10.5 55t-25.5 43q-37 37 -101 37q-63 0 -98 -35q-47 -44 -47 -121h-330q6 99 43.5 180.5t89.5 133.5 q128 133 361 133q217 0 340 -121q110 -110 110 -264q0 -95 -41 -168q-40 -72 -104 -105q100 -37 162 -125q57 -83 57 -200q0 -178 -121 -299q-146 -146 -408 -146q-239 0 -391 142q-63 56 -111 146t-59 210z" />
<glyph unicode="4" horiz-adv-x="1228" d="M23 258v227l526 881h463v-836h166v-272h-166v-258h-328v258h-661zM362 530h322v557z" />
<glyph unicode="5" horiz-adv-x="1228" d="M94 92l53 332q82 -76 164 -111q99 -47 205 -47q113 0 178 68q54 57 54 139q0 91 -66 148q-75 67 -246 67q-138 0 -252 -57l119 735h711v-301h-473l-25 -152q70 11 111 11q230 0 360 -136q125 -125 125 -323q0 -207 -131 -342q-149 -154 -426 -154q-266 0 -461 123z" />
<glyph unicode="6" horiz-adv-x="1228" d="M39 455q0 244 203 510l305 401h403l-389 -465q95 43 191 43q80 0 162 -33t147 -98q129 -129 129 -326q0 -215 -141 -356q-162 -162 -437 -162q-286 0 -448 166q-125 129 -125 320zM385 475q0 -94 59 -156q66 -69 162 -69q95 0 158 63t63 156q0 83 -63 143q-66 64 -158 64 q-87 0 -153 -60q-68 -62 -68 -141z" />
<glyph unicode="7" horiz-adv-x="1228" d="M119 0l622 1065h-569v301h1120l-782 -1366h-391z" />
<glyph unicode="8" horiz-adv-x="1228" d="M92 373q0 66 28.5 133.5t72.5 111.5q32 32 79.5 59.5t92.5 41.5q-73 28 -123 78q-92 92 -92 217q0 75 30 142.5t82 115.5q64 59 159 92t206 33q109 0 200 -34.5t152 -96.5q100 -100 100 -250q0 -129 -84 -213q-56 -56 -139 -84q103 -32 176 -105q105 -102 105 -241 q0 -147 -111 -258q-146 -146 -414 -146q-263 0 -407 144q-54 54 -83.5 123t-29.5 137zM451 416q0 -68 47 -115q49 -49 116 -49q68 0 115 47q49 49 49 117q0 66 -49 112q-50 47 -115 47q-64 0 -114 -47q-49 -49 -49 -112zM465 1008q0 -53 43 -99q42 -45 108 -45q60 0 101 41 q47 47 47 105q0 64 -47 108q-44 41 -99 41q-68 0 -112 -47q-41 -44 -41 -104z" />
<glyph unicode="9" horiz-adv-x="1228" d="M35 872q0 210 137 353q168 172 449 172q276 0 438 -162q65 -67 100 -155t35 -183q0 -234 -207 -502l-305 -395h-401l387 461q-79 -43 -183 -43q-185 0 -313 125q-137 135 -137 329zM399 895q0 -85 66 -147q65 -62 160 -62q90 0 153 57q31 28 51.5 72t20.5 84 q0 39 -19 81.5t-47 70.5q-69 65 -159 65q-93 0 -158 -65q-68 -68 -68 -156z" />
<glyph unicode=":" horiz-adv-x="620" d="M98 182q0 86 64 150q63 63 149 63q87 0 152 -65q59 -59 59 -148q0 -88 -61 -149q-64 -64 -150 -64q-85 0 -149 64t-64 149zM98 733q0 86 64 150q63 63 149 63q87 0 152 -65q59 -59 59 -148q0 -88 -61 -149q-64 -64 -150 -64q-85 0 -149 64t-64 149z" />
<glyph unicode=";" horiz-adv-x="804" d="M-18 -305l256 647h307l-352 -647h-211zM166 733q0 87 63 150t150 63q86 0 151 -65q60 -60 60 -148q0 -87 -62 -149q-64 -64 -149 -64q-86 0 -150 64q-63 63 -63 149z" />
<glyph unicode="&#x3c;" d="M68 573v224l888 450v-262l-608 -301l608 -303v-262z" />
<glyph unicode="=" d="M68 403v232h888v-232h-888zM68 758v231h888v-231h-888z" />
<glyph unicode="&#x3e;" d="M68 119v264l608 301l-608 301v262l888 -452v-224z" />
<glyph unicode="?" horiz-adv-x="1120" d="M68 973q4 91 38 166t84 125q133 133 357 133q221 0 362 -133q129 -122 129 -293q0 -148 -98 -258q-92 -102 -229 -131v-109h-334v332q38 -10 69 -10q126 0 193 67q47 47 47 113q0 61 -35 96q-36 39 -98 39q-56 0 -88 -35q-37 -37 -37 -102h-360zM340 182q0 87 63 150 t148 63q89 0 154 -65q59 -59 59 -148q0 -87 -62 -149q-64 -64 -149 -64q-86 0 -150 64q-63 63 -63 149z" />
<glyph unicode="@" horiz-adv-x="1501" d="M68 670q0 151 58 285.5t153 226.5q102 99 240.5 153t268.5 54q137 0 268 -50t222 -149q72 -77 114 -181t42 -223q0 -112 -39.5 -210t-106.5 -168q-90 -93 -190 -93q-47 0 -94.5 27.5t-65.5 83.5q-44 -62 -111 -95.5t-143 -33.5q-109 0 -186 74q-103 100 -103 247 q0 81 30.5 157.5t82.5 135.5q108 117 246 117q55 0 108.5 -24t89.5 -74l15 78l182 -2l-76 -388q-12 -58 -12 -81q0 -72 45 -72q31 0 61 27q46 39 76.5 126t30.5 168q0 89 -34.5 172.5t-90.5 137.5q-61 59 -157 94t-195 35q-229 0 -389 -160q-162 -162 -162 -397 q0 -118 45 -225t125 -179q141 -125 383 -125q179 0 368 62l41 -164q-201 -62 -415 -62q-310 0 -508 183q-103 95 -160 229.5t-57 282.5zM604 627q0 -65 41 -109q35 -35 88 -35q60 0 109 49q30 32 47.5 77t17.5 87q0 66 -43 109q-38 33 -86 33q-58 0 -108 -50 q-66 -63 -66 -161z" />
<glyph unicode="A" horiz-adv-x="1454" d="M14 0l525 1366h387l514 -1366h-379l-84 229h-496l-92 -229h-375zM580 500h303l-154 442z" />
<glyph unicode="B" horiz-adv-x="1265" d="M143 0v1366h529q202 0 299 -106q84 -91 84 -256q0 -91 -39 -168q-41 -76 -111 -107q114 -13 187 -82q92 -89 92 -250q0 -167 -101 -268q-58 -59 -153 -94t-217 -35h-570zM498 276h80q170 0 219 56q28 32 28 88q0 64 -34 98q-20 20 -59 30.5t-72 12.5t-89 2h-73v-287z M498 827h65q94 0 135 43q33 33 33 91q0 54 -33 92q-41 41 -135 41h-65v-267z" />
<glyph unicode="C" horiz-adv-x="1206" d="M82 672q0 143 56 275t151 229t229 155t287 58q145 0 319 -70v-424q-122 149 -309 149q-145 0 -246 -90q-118 -110 -118 -280q0 -73 28.5 -144.5t81.5 -121.5q46 -43 113.5 -69t140.5 -26q178 0 309 144v-420q-105 -38 -173 -53t-134 -15q-167 0 -301 56.5t-227 148.5 q-99 99 -153 231t-54 267z" />
<glyph unicode="D" horiz-adv-x="1423" d="M143 0v1366h465q348 0 543 -188q190 -183 190 -498q0 -295 -178 -473q-90 -90 -225 -148.5t-299 -58.5h-496zM498 301h71q199 0 299 98q105 100 105 281q0 95 -28 173.5t-79 125.5q-56 52 -126.5 69t-155.5 17h-86v-764z" />
<glyph unicode="E" horiz-adv-x="1001" d="M143 0v1366h777v-301h-422v-227h399v-301h-399v-236h422v-301h-777z" />
<glyph unicode="F" horiz-adv-x="993" d="M143 0v1366h783v-301h-428v-227h389v-301h-389v-537h-355z" />
<glyph unicode="G" horiz-adv-x="1585" d="M82 684q0 156 55.5 288t149.5 224q201 201 530 201q217 0 369 -92q77 -48 141.5 -123.5t102.5 -157.5l-338 -139q-32 82 -99 137q-82 68 -190 68q-139 0 -234 -95q-57 -57 -87.5 -143t-30.5 -170q0 -178 108 -295q98 -104 250 -104q122 0 197 63q69 56 84 152h-291v276 h704q0 -210 -50 -356.5t-169 -257.5q-185 -172 -481 -172q-326 0 -524 202q-86 86 -141.5 211.5t-55.5 282.5z" />
<glyph unicode="H" horiz-adv-x="1509" d="M143 0v1366h355v-510h512v510h356v-1366h-356v553h-512v-553h-355z" />
<glyph unicode="I" horiz-adv-x="641" d="M143 0v1366h355v-1366h-355z" />
<glyph unicode="J" horiz-adv-x="958" d="M14 170l232 238q3 -30 17 -62.5t32 -46.5q32 -25 67 -25t62 23q37 35 37 137v932h354v-940q0 -110 -22 -182.5t-95 -145.5q-129 -129 -333 -129q-119 0 -215 62q-80 54 -136 139z" />
<glyph unicode="K" horiz-adv-x="1433" d="M143 0v1366h355v-563l434 563h438l-543 -647l592 -719h-458l-463 592v-592h-355z" />
<glyph unicode="L" horiz-adv-x="962" d="M143 0v1366h355v-1065h426v-301h-781z" />
<glyph unicode="M" horiz-adv-x="1873" d="M82 0l231 1366h351l276 -729l293 729h354l205 -1366h-354l-101 786l-329 -786h-142l-315 786l-117 -786h-352z" />
<glyph unicode="N" horiz-adv-x="1648" d="M143 0v1366h355l653 -836v836h354v-1366h-354l-653 836v-836h-355z" />
<glyph unicode="O" horiz-adv-x="1671" d="M82 682q0 141 54.5 276.5t160.5 235.5q103 98 244 150.5t295 52.5t294.5 -52t243.5 -151q106 -100 160.5 -235.5t54.5 -276.5q0 -140 -54.5 -274.5t-160.5 -235.5q-103 -99 -243.5 -151t-294.5 -52t-295 52.5t-244 150.5q-106 101 -160.5 235.5t-54.5 274.5zM451 676 q0 -150 108 -254q114 -109 277 -109q167 0 274 107q50 50 80.5 118.5t30.5 143.5q0 76 -30.5 145t-80.5 117q-56 53 -128.5 81t-145.5 28q-77 0 -150 -27.5t-127 -81.5q-108 -105 -108 -268z" />
<glyph unicode="P" horiz-adv-x="1226" d="M143 0v1366h566q218 0 346 -123q73 -70 100 -151.5t27 -180.5q0 -101 -24.5 -185.5t-96.5 -154.5t-156.5 -94t-183.5 -24h-223v-453h-355zM498 739h118q103 0 150 43q45 39 45 125q0 82 -41 123q-47 49 -152 49h-120v-340z" />
<glyph unicode="Q" horiz-adv-x="1671" d="M82 688q0 143 56.5 275t154.5 227q103 100 243.5 153.5t297.5 53.5q151 0 294.5 -52.5t247.5 -152.5q95 -91 153 -223.5t58 -290.5q0 -146 -55 -275q-46 -107 -125 -186l235 -242l-325 -49l-115 131q-161 -88 -358 -88q-362 0 -570 226q-95 101 -143.5 231t-48.5 262z M453 666q0 -74 28.5 -139t73.5 -109q50 -48 124 -76.5t152 -28.5q49 0 111 15l-217 217l334 43l94 -103q64 91 64 201q0 64 -30 133.5t-81 120.5q-54 54 -128.5 83.5t-143.5 29.5q-75 0 -146.5 -29t-124.5 -84q-52 -54 -81 -126.5t-29 -147.5z" />
<glyph unicode="R" horiz-adv-x="1284" d="M143 0v1366h553q218 0 334 -121q57 -58 87 -140t30 -167q0 -179 -109 -285q-75 -73 -188 -94l428 -559h-440l-340 524v-524h-355zM498 754h67q114 0 172 55q45 45 45 115t-47 114q-54 54 -170 54h-67v-338z" />
<glyph unicode="S" horiz-adv-x="1169" d="M82 123l151 287q64 -60 146 -100t168 -40q94 0 137 47q35 35 35 86q0 48 -39 82q-6 5 -12 9.5t-14.5 9t-14.5 8t-18 8t-18.5 6.5t-22 7t-22 7.5t-26.5 8.5t-28 8l-92 29q-137 43 -197 110q-78 85 -78 242q0 205 125 330q129 129 350 129q100 0 212 -29.5t210 -81.5 l-141 -276q-116 92 -234 92q-73 0 -116 -41q-35 -35 -35 -74q0 -38 18 -61q29 -35 119 -62l109 -33q55 -17 88.5 -30t79 -41t79.5 -64q50 -53 69.5 -110.5t19.5 -132.5q0 -215 -129 -344q-81 -81 -180 -110.5t-224 -29.5q-146 0 -268 45q-100 35 -207 109z" />
<glyph unicode="T" horiz-adv-x="964" d="M14 1065v301h936v-301h-291v-1065h-354v1065h-291z" />
<glyph unicode="U" horiz-adv-x="1476" d="M143 582v784h355v-809q0 -30 1.5 -49.5t7.5 -51t21 -59.5t39 -51q31 -29 76.5 -47t91.5 -18q45 0 89.5 16t74.5 43q24 21 40 47.5t23.5 47.5t11.5 54.5t4.5 49t0.5 49.5v778h354v-784q0 -67 -3.5 -111t-17.5 -105t-46.5 -117t-85.5 -110q-167 -170 -451 -170 q-153 0 -269 45.5t-184 118.5q-80 87 -106.5 199t-26.5 250z" />
<glyph unicode="V" horiz-adv-x="1431" d="M0 1366h387l328 -831l332 831h385l-582 -1366h-277z" />
<glyph unicode="W" horiz-adv-x="2076" d="M0 1366h371l237 -883l289 883h283l268 -883l258 883h371l-437 -1366h-362l-248 791l-262 -791h-360z" />
<glyph unicode="X" horiz-adv-x="1456" d="M0 0l535 729l-439 637h439l202 -354l211 354h436l-444 -637l516 -729h-430l-291 444l-307 -444h-428z" />
<glyph unicode="Y" horiz-adv-x="1310" d="M-25 1366h424l258 -373l248 373h430l-510 -711v-655h-356v655z" />
<glyph unicode="Z" horiz-adv-x="1292" d="M27 0l647 1065h-537v301h1129l-643 -1065h573v-301h-1169z" />
<glyph unicode="[" horiz-adv-x="690" d="M164 -385v1878h444v-190h-184v-1496h184v-192h-444z" />
<glyph unicode="\" horiz-adv-x="1376" d="M123 1493h268l1047 -1878h-267z" />
<glyph unicode="]" horiz-adv-x="690" d="M82 -193h184v1496h-184v190h444v-1878h-444v192z" />
<glyph unicode="^" d="M10 676l328 690h348l330 -690h-279l-225 477l-225 -477h-277z" />
<glyph unicode="_" d="M0 -94h1024v-271h-1024v271z" />
<glyph unicode="`" d="M197 1343l209 150l258 -315l-152 -113z" />
<glyph unicode="a" horiz-adv-x="1261" d="M76 451q0 225 141 366q60 60 146.5 94.5t183.5 34.5q166 0 274 -119v88h328v-915h-328v100q-96 -131 -284 -131q-191 0 -330 146q-131 140 -131 336zM412 459q0 -90 63 -150q28 -26 68 -43.5t80 -17.5q84 0 147 63q61 61 61 148q0 88 -63 149q-64 60 -147 60 q-81 0 -144 -60q-65 -62 -65 -149z" />
<glyph unicode="b" horiz-adv-x="1261" d="M113 0v1493h327v-666q111 119 273 119q194 0 323 -123q67 -64 108.5 -157.5t41.5 -204.5q0 -107 -39 -202t-109 -163q-130 -127 -321 -127q-176 0 -277 131v-100h-327zM430 459q0 -42 19 -84.5t51 -71.5q62 -55 141 -55q84 0 145 61q64 64 64 144q0 91 -64 155 q-60 60 -145 60q-90 0 -149 -62q-26 -27 -44 -68.5t-18 -78.5z" />
<glyph unicode="c" horiz-adv-x="878" d="M76 451q0 101 39 193.5t108 160.5q146 139 369 139q111 0 213 -51v-275q-83 60 -170 60q-96 0 -160 -64q-63 -63 -63 -157q0 -91 57 -154q66 -70 168 -70q96 0 168 62v-275q-104 -51 -227 -51q-214 0 -361 140q-66 64 -103.5 153.5t-37.5 188.5z" />
<glyph unicode="d" horiz-adv-x="1261" d="M76 461q0 111 41 204.5t108 157.5q129 123 324 123q161 0 272 -119v666h328v-1493h-328v100q-101 -131 -276 -131q-192 0 -322 127q-70 68 -108.5 162.5t-38.5 202.5zM412 453q0 -81 63 -144q61 -61 146 -61q79 0 141 55q32 29 50.5 71.5t18.5 84.5q0 37 -17.5 78.5 t-43.5 68.5q-59 62 -149 62q-86 0 -146 -60q-63 -63 -63 -155z" />
<glyph unicode="e" horiz-adv-x="1159" d="M74 455q0 220 137 354q137 133 375 133q218 0 352 -125q145 -138 145 -385v-35h-682q0 -40 15 -82.5t43 -70.5q45 -45 135 -45q63 0 106 24q40 24 58 62h313q-31 -112 -110 -189q-131 -127 -373 -127q-239 0 -379 140q-135 135 -135 346zM412 586h370q-13 58 -53 98 q-49 49 -135 49q-84 0 -133 -49q-41 -45 -49 -98z" />
<glyph unicode="f" horiz-adv-x="706" d="M23 647v268h114v154q0 89 17 161.5t67 139.5q109 146 318 146q76 0 157 -31v-283q-52 31 -102 31q-61 0 -92 -35q-37 -41 -37 -154v-129h229v-268h-229v-647h-328v647h-114z" />
<glyph unicode="g" horiz-adv-x="1255" d="M76 444q0 105 36.5 199.5t98.5 159.5q65 68 152 103.5t180 35.5q165 0 272 -121v94h328v-858q0 -123 -24 -211t-101 -168q-145 -147 -404 -147q-269 0 -428 162q-85 88 -100 190h365q30 -94 153 -94q93 0 146 51q65 60 65 170v92q-68 -73 -135 -96.5t-139 -23.5 q-213 0 -338 129q-61 62 -94 150t-33 183zM412 461q0 -87 63 -150q59 -59 148 -59q86 0 147 61q29 29 45 70t16 78q0 36 -18 78t-47 71q-60 60 -145 60q-84 0 -146 -62q-63 -66 -63 -147z" />
<glyph unicode="h" horiz-adv-x="1198" d="M113 0v1493h327v-692q45 56 103 90q77 45 188 45q172 0 270 -98q55 -55 70.5 -113.5t15.5 -142.5v-582h-327v463q0 133 -41 178q-35 39 -105 39q-74 0 -118 -39q-56 -52 -56 -149v-492h-327z" />
<glyph unicode="i" horiz-adv-x="550" d="M92 1296q0 77 54 131t130 54t130.5 -54.5t54.5 -130.5t-54 -130t-131 -54q-76 0 -130 54t-54 130zM113 0v915h327v-915h-327z" />
<glyph unicode="j" horiz-adv-x="550" d="M92 1296q0 77 54 131t130 54t130.5 -54.5t54.5 -130.5t-54 -130t-131 -54q-76 0 -130 54t-54 130zM113 -469v1384h327v-1384h-327z" />
<glyph unicode="k" horiz-adv-x="1230" d="M113 0v1493h327v-907l310 329h444l-432 -421l467 -494h-455l-334 375v-375h-327z" />
<glyph unicode="l" horiz-adv-x="550" d="M113 0v1493h327v-1493h-327z" />
<glyph unicode="m" horiz-adv-x="1787" d="M113 0v915h327v-110q55 66 127.5 96.5t147.5 30.5q102 0 176 -41q81 -42 127 -131q47 83 125 127q80 45 190 45q168 0 254 -84t86 -252v-596h-327v453q0 151 -48 196q-35 31 -86 31q-56 0 -96 -37q-59 -57 -59 -174v-469h-328v453q0 75 -8.5 122t-34.5 74q-35 37 -98 37 q-57 0 -90 -33q-26 -25 -40 -65.5t-16 -67.5t-2 -67v-453h-327z" />
<glyph unicode="n" horiz-adv-x="1198" d="M113 0v915h327v-114q102 135 291 135q172 0 270 -98q54 -54 70 -111.5t16 -144.5v-582h-327v463q0 42 -1 63t-10.5 57.5t-29.5 57.5q-37 39 -105 39q-74 0 -120 -43q-24 -23 -39 -63t-15 -82v-492h-327z" />
<glyph unicode="o" horiz-adv-x="1251" d="M76 459q0 199 141 336q155 151 408 151q250 0 409 -151q142 -138 142 -336q0 -199 -142 -338q-155 -152 -409 -152t-408 152q-141 138 -141 338zM416 459q0 -83 63 -146q61 -61 148 -61q84 0 145 61q64 61 64 146q0 38 -17 78.5t-47 70.5q-28 27 -67.5 43.5t-77.5 16.5 q-39 0 -79.5 -16.5t-68.5 -43.5q-63 -60 -63 -149z" />
<glyph unicode="p" horiz-adv-x="1261" d="M113 -469v1384h327v-100q104 131 281 131q193 0 326 -133q139 -139 139 -354q0 -218 -148 -363q-130 -127 -313 -127q-170 0 -285 119v-557h-327zM430 455q0 -38 18.5 -78.5t45.5 -67.5q61 -61 147 -61q87 0 145 61q28 28 46 67t18 79q0 87 -64 151q-59 62 -145 62 q-85 0 -147 -62q-64 -64 -64 -151z" />
<glyph unicode="q" horiz-adv-x="1261" d="M76 459q0 215 139 354q64 64 150.5 98.5t175.5 34.5q176 0 280 -131v100h328v-1384h-328v557q-115 -119 -284 -119q-184 0 -314 127q-147 147 -147 363zM412 455q0 -40 17.5 -79t45.5 -67q58 -61 146 -61q86 0 147 61q27 27 45 67t18 79q0 88 -63 151q-62 62 -147 62 q-87 0 -146 -62q-63 -63 -63 -151z" />
<glyph unicode="r" horiz-adv-x="837" d="M113 0v915h327v-149q46 85 129 127q67 37 170 37q3 0 10 -0.5t22.5 -1.5t33.5 -2v-310q-66 33 -141 33q-96 0 -150 -49q-74 -67 -74 -209v-391h-327z" />
<glyph unicode="s" horiz-adv-x="909" d="M55 76l117 227q61 -45 131 -67q67 -23 127 -23q56 0 84 25q16 16 16 43t-16 41q-17 15 -86 32l-86 21q-108 24 -160 80q-59 62 -59 157q0 65 23.5 124t62.5 100q52 53 138.5 81.5t189.5 28.5q156 0 292 -59l-110 -209q-101 45 -172 45q-46 0 -76 -18q-29 -16 -29 -46 q0 -35 39 -51q17 -6 51.5 -13t57.5 -13l59 -17q34 -9 75 -30.5t60 -40.5q33 -32 51.5 -81.5t18.5 -101.5q0 -139 -92 -227q-115 -115 -338 -115q-193 0 -369 107z" />
<glyph unicode="t" horiz-adv-x="671" d="M43 647v268h104v302h328v-302h187v-268h-187v-647h-328v647h-104z" />
<glyph unicode="u" horiz-adv-x="1208" d="M113 344v571h327v-512q0 -89 49 -133q39 -34 115 -34q77 0 117 38q47 47 47 129v512h328v-571q0 -74 -16.5 -131.5t-71.5 -114.5q-76 -78 -175.5 -103.5t-220.5 -25.5q-60 0 -108.5 4.5t-106.5 17t-108.5 40t-89.5 69.5q-86 91 -86 244z" />
<glyph unicode="v" horiz-adv-x="1173" d="M0 915h367l219 -469l223 469h365l-478 -915h-223z" />
<glyph unicode="w" horiz-adv-x="1841" d="M0 915h367l217 -483l231 483h201l231 -497l230 497h364l-479 -915h-221l-230 504l-219 -504h-221z" />
<glyph unicode="x" horiz-adv-x="1335" d="M0 0l457 498l-371 417h426l158 -188l161 188h424l-378 -417l458 -498h-434l-233 272l-234 -272h-434z" />
<glyph unicode="y" horiz-adv-x="1236" d="M0 915h381l244 -469l237 469h375l-735 -1384h-367l307 594z" />
<glyph unicode="z" horiz-adv-x="1058" d="M41 0l432 647h-369v268h914l-428 -647h383v-268h-932z" />
<glyph unicode="{" d="M244 455v225q112 15 112 139v377q0 30 1 50t6.5 54.5t16 57.5t31.5 51t50 44.5t74.5 28t103.5 11.5q25 0 74 -3t73 -3h39v-234h-41q-56 0 -89 -6.5t-48.5 -23t-19.5 -34.5t-4 -52v-322q0 -107 -25 -156q-32 -62 -98 -102q66 -40 98 -102q25 -49 25 -156v-328q0 -34 4 -52 t19.5 -34.5t48.5 -23t89 -6.5h41v-234h-39q-24 0 -73 -3t-74 -3q-58 0 -103.5 11.5t-74.5 28t-50 44.5t-31.5 51t-16 57.5t-6.5 54.5t-1 50v403q0 123 -112 140z" />
<glyph unicode="|" d="M379 -512v2048h266v-2048h-266z" />
<glyph unicode="}" d="M244 -145h41q56 0 89 6.5t48.5 23t19.5 34.5t4 52v328q0 107 25 156q32 62 98 102q-66 40 -98 102q-25 49 -25 156v322q0 34 -4 52t-19.5 34.5t-48.5 23t-89 6.5h-41v234h39q25 0 74 3t73 3q57 0 102.5 -11.5t74.5 -28.5t50 -44t31.5 -51t16.5 -57.5t7 -54t1 -50.5v-377 q0 -23 2.5 -39t12 -40t34.5 -39.5t63 -20.5v-225q-31 -5 -53.5 -17.5t-33.5 -26t-17 -33.5t-7 -32.5t-1 -30.5v-403q0 -30 -1 -50.5t-7 -54t-16.5 -57.5t-31.5 -51t-50 -44t-74.5 -28.5t-102.5 -11.5q-24 0 -73 3t-74 3h-39v234z" />
<glyph unicode="~" d="M12 496l17 34q4 8 16 34t19.5 40t19.5 35.5t25 38.5t28 31q71 71 180 71q68 0 189 -43l74 -26q83 -31 131 -31q54 0 94 31q35 31 55 73l152 -88l-11 -22q-44 -100 -108 -168q-81 -84 -195 -84q-25 0 -52 4.5t-42.5 9t-43 14t-34.5 11.5l-71 24q-107 39 -150 39 q-50 0 -88 -35q-33 -29 -59 -90z" />
<glyph unicode="&#xa1;" horiz-adv-x="698" d="M137 721q0 85 64 149t149 64q86 0 152 -66q59 -59 59 -147q0 -89 -61 -150q-63 -63 -150 -63q-86 0 -149 63q-64 64 -64 150zM180 430h340v-901h-340v901z" />
<glyph unicode="&#xa2;" horiz-adv-x="1228" d="M250 686q0 103 39.5 196t105.5 158q112 112 285 138v174h192v-187q55 -3 107 -30v-295q-69 69 -164 69q-92 0 -153 -61q-68 -68 -68 -164q0 -97 68 -162q63 -57 153 -57q94 0 164 70v-295q-57 -26 -107 -29v-191h-192v179q-174 24 -293 143q-64 66 -100.5 155.5 t-36.5 188.5z" />
<glyph unicode="&#xa3;" horiz-adv-x="1228" d="M41 0q12 64 42.5 126.5t68.5 102.5q73 77 180 93q12 38 12 86q0 53 -25 108h-256v197h148q-49 114 -49 217q0 87 33.5 172t101.5 151q143 138 401 138q244 0 369 -127q123 -123 123 -336q0 -37 -2 -51h-357q3 24 3 49q0 93 -50 143q-46 43 -112 43q-77 0 -121 -51 q-49 -55 -49 -141q0 -91 51 -207h313v-197h-256q8 -56 8 -102q0 -55 -16 -113l96 -29q136 -41 193 -41q43 0 66.5 25.5t23.5 65.5h221q-2 -80 -32.5 -155t-82.5 -122q-79 -74 -208 -74q-88 0 -217 41l-78 25q-102 31 -183 31q-98 0 -125 -68h-235z" />
<glyph unicode="&#xa4;" horiz-adv-x="1366" d="M39 1268l145 145l213 -213q133 90 287 90q148 0 281 -88l211 209l143 -143l-209 -209q94 -129 94 -287q0 -151 -90 -278l211 -211l-141 -146l-211 211q-130 -92 -291 -92q-158 0 -287 90l-211 -209l-143 144l211 211q-90 125 -90 282q0 147 92 281zM406 772 q0 -116 81 -197t197 -81t195 79q82 82 82 199q0 116 -80 199q-79 82 -197 82q-117 0 -197 -80q-81 -81 -81 -201z" />
<glyph unicode="&#xa5;" horiz-adv-x="1228" d="M8 1366h404l204 -393l197 393h410l-301 -477h215v-215h-351l-12 -19v-108h363v-213h-363v-334h-336v334h-346v213h346v108l-12 19h-334v215h205z" />
<glyph unicode="&#xa6;" d="M379 330h266v-842h-266v842zM379 694v842h266v-842h-266z" />
<glyph unicode="&#xa7;" horiz-adv-x="1228" d="M176 557q0 124 64 211q53 71 135 115q-72 47 -105 98q-43 63 -43 162q0 160 90 250q45 45 120 72.5t171 27.5q80 0 159.5 -21t135.5 -65q125 -99 125 -297h-287q0 83 -45 125q-29 27 -78 27q-50 0 -81 -31q-33 -33 -33 -78q0 -59 53 -98q45 -35 152 -78l82 -35 q121 -52 186 -121q90 -97 90 -227q0 -46 -14 -103.5t-33 -93.5q-51 -94 -162 -145q76 -44 115 -109q41 -67 41 -166q0 -142 -92 -241q-112 -121 -312 -121q-187 0 -295 106q-112 112 -112 295h286v-14q0 -81 46 -121q32 -28 81 -28q61 0 93 32q36 36 36 88q0 73 -49 117 q-23 20 -59.5 35.5t-128.5 46.5q-59 20 -86 30.5t-70 35.5t-76 59q-100 103 -100 260zM471 563q0 -23 12 -52.5t31 -49.5q18 -19 46.5 -32t57.5 -13q65 0 113 51q37 42 37 96q0 59 -37 101q-42 49 -113 49q-59 0 -102 -43q-45 -45 -45 -107z" />
<glyph unicode="&#xa8;" d="M102 1249q0 63 54 125q53 53 123 53q71 0 122 -51q56 -56 56 -127q0 -68 -54 -125q-53 -53 -124 -53q-73 0 -125 55q-52 58 -52 123zM567 1249q0 63 54 125q53 53 122 53q72 0 123 -51q56 -56 56 -127q0 -68 -54 -125q-53 -53 -125 -53q-73 0 -125 55q-51 57 -51 123z " />
<glyph unicode="&#xa9;" horiz-adv-x="1556" d="M68 684q0 134 55 269.5t158 238.5q93 93 222.5 149t274.5 56t275 -56t223 -149q103 -103 158 -238.5t55 -269.5q0 -136 -55 -271.5t-158 -238.5q-93 -93 -223 -149t-275 -56t-274.5 56t-222.5 149q-103 103 -158 238.5t-55 271.5zM211 682q0 -128 51 -241.5t135 -192.5 q77 -73 177 -112.5t204 -39.5t204 39.5t177 112.5q84 79 135.5 192.5t51.5 241.5t-51.5 241.5t-135.5 192.5q-77 73 -177 112.5t-204 39.5t-204 -39.5t-177 -112.5q-84 -79 -135 -192.5t-51 -241.5zM365 678q0 84 32 161t84 134q127 137 334 137q97 0 211 -45v-293 q-33 52 -87.5 81.5t-113.5 29.5q-81 0 -139 -52q-63 -60 -63 -153q0 -84 53 -141q58 -58 149 -58q107 0 201 101v-285q-77 -43 -192 -43q-222 0 -353 135q-116 119 -116 291z" />
<glyph unicode="&#xaa;" horiz-adv-x="737" d="M43 1077q0 60 24.5 118t61.5 95q76 76 193 76q102 0 163 -72v54h193v-543h-193v61q-55 -78 -157 -78q-123 0 -199 76q-86 83 -86 213zM57 547v155h621v-155h-621zM244 1077q0 -51 41 -92q33 -33 82 -33t82 33q40 38 40 92q0 56 -43 92q-36 31 -79 31q-48 0 -82 -31 q-41 -36 -41 -92z" />
<glyph unicode="&#xab;" horiz-adv-x="1087" d="M57 467l312 444l180 -125l-227 -319l233 -315l-186 -132zM508 467l311 444l180 -125l-227 -319l234 -315l-187 -132z" />
<glyph unicode="&#xac;" d="M68 307v240h888v-547h-266v307h-622z" />
<glyph unicode="&#xad;" horiz-adv-x="722" d="M102 414v272h519v-272h-519z" />
<glyph unicode="&#xae;" horiz-adv-x="1579" d="M68 684q0 194 97.5 358.5t264 259.5t361.5 95q147 0 280.5 -56.5t229.5 -151.5t153 -227t57 -278q-1 -145 -59 -277t-154 -228t-229 -153t-278 -57q-146 0 -280 57t-231 153.5t-154.5 228.5t-57.5 276zM211 684q0 -160 77.5 -295.5t211 -214t291.5 -78.5q157 0 290 78.5 t210 214t77 295.5q0 161 -75.5 295t-208.5 211.5t-293 77.5q-159 0 -292 -77.5t-210.5 -212t-77.5 -294.5zM467 307v776h324q125 0 199.5 -67.5t74.5 -181.5q0 -74 -38 -132.5t-101 -78.5l-8 -5l243 -311h-305l-149 230v-230h-240zM707 745h14q108 0 108 80q0 37 -28 57.5 t-80 20.5h-14v-158z" />
<glyph unicode="&#xaf;" d="M106 1104v201h812v-201h-812z" />
<glyph unicode="&#xb0;" d="M197 1057q0 127 92 217q96 92 221 92q64 0 123 -24.5t102 -65.5q92 -89 92 -219q0 -129 -92 -221q-93 -93 -219 -93q-134 0 -227 93q-92 92 -92 221zM365 1055q0 -61 41.5 -102.5t105.5 -41.5t105.5 41.5t41.5 102.5t-41.5 102t-105.5 41t-105.5 -41t-41.5 -102z" />
<glyph unicode="&#xb1;" d="M68 102v246h888v-246h-888zM68 731v246h311v313h266v-313h311v-246h-311v-315h-266v315h-311z" />
<glyph unicode="&#xb2;" horiz-adv-x="765" d="M68 561l198 219q10 11 40.5 45t42.5 47.5t31 37.5t32 44q59 85 59 154q0 52 -27 82q-20 22 -57 22q-33 0 -55 -22q-35 -35 -35 -98h-217q3 63 28.5 123t65.5 100q82 82 219 82q141 0 221 -82q74 -76 74 -203q0 -88 -37.5 -156t-124.5 -145l-86 -76h258v-174h-630z" />
<glyph unicode="&#xb3;" horiz-adv-x="765" d="M68 840h208q3 -46 33 -76q33 -33 80 -33q50 0 78 31q29 29 29 78q0 42 -29 71q-33 29 -76 29q-5 0 -47 -6v139q65 -4 92 21q27 24 27 65q0 35 -23 58q-19 22 -57 22q-39 0 -61 -27q-23 -26 -23 -63h-190q8 111 79 182q76 76 209 76q125 0 193 -70q61 -61 61 -157 q0 -66 -26 -109q-20 -33 -56 -55q49 -15 82 -58q47 -63 47 -139q0 -111 -71 -182q-82 -82 -230 -82q-144 0 -231 82q-86 81 -98 203z" />
<glyph unicode="&#xb4;" d="M360 1178l261 315l206 -150l-315 -278z" />
<glyph unicode="&#xb5;" horiz-adv-x="1196" d="M113 -471v1386h327v-409q0 -173 62 -230q34 -34 96 -34q59 0 98 39q60 60 60 233v401h327v-915h-327v115q-18 -54 -58 -90q-44 -41 -100 -41q-62 0 -106 41q-34 32 -52 79v-575h-327z" />
<glyph unicode="&#xb6;" horiz-adv-x="1366" d="M55 999q0 165 101 261q114 106 372 106h689v-217h-148v-1344h-233v1344h-162v-1344h-234v846h-20q-83 0 -157 30t-122 81q-86 91 -86 237z" />
<glyph unicode="&#xb7;" horiz-adv-x="507" d="M0 723q0 49 20.5 99t59.5 87q73 70 174 70q99 0 170 -68q84 -78 84 -188q0 -104 -74 -178q-76 -76 -180 -76q-101 0 -174 70q-80 77 -80 184z" />
<glyph unicode="&#xb8;" d="M381 -401l209 307l217 -90l-254 -299z" />
<glyph unicode="&#xb9;" horiz-adv-x="452" d="M68 1194v172h317v-819h-205v647h-112z" />
<glyph unicode="&#xba;" horiz-adv-x="727" d="M43 1077q0 119 80 199q90 90 242 90q149 0 235 -86q40 -38 62 -91.5t22 -109.5q0 -120 -82 -202q-89 -89 -237 -89q-153 0 -242 89q-80 80 -80 200zM53 547v155h621v-155h-621zM242 1077q0 -55 37 -88q35 -35 86 -35q41 0 77 29q43 37 43 94q0 59 -36 90q-38 33 -84 33 q-48 0 -86 -33q-37 -32 -37 -90z" />
<glyph unicode="&#xbb;" horiz-adv-x="1087" d="M78 152l233 315l-227 319l180 125l311 -444l-311 -447zM528 152l234 315l-227 319l180 125l311 -444l-311 -447z" />
<glyph unicode="&#xbc;" horiz-adv-x="1587" d="M68 1194v172h317v-819h-205v647h-112zM246 0l790 1366h178l-792 -1366h-176zM866 156v129l305 534h269v-506h96v-157h-96v-156h-193v156h-381zM1075 313h172v316z" />
<glyph unicode="&#xbd;" horiz-adv-x="1609" d="M68 1194v172h317v-819h-205v647h-112zM213 0l791 1366h178l-793 -1366h-176zM911 0l199 219q9 10 33 36.5t34 38t27 31.5t28.5 36t22.5 32q60 87 60 154q0 52 -27 82q-20 22 -57 22q-33 0 -55 -22q-35 -35 -35 -99h-217q3 63 28.5 123.5t65.5 100.5q82 82 219 82 q141 0 221 -82q74 -76 74 -203q0 -88 -37.5 -156t-124.5 -145l-86 -76h258v-174h-631z" />
<glyph unicode="&#xbe;" horiz-adv-x="1820" d="M68 840h208q3 -46 33 -76q33 -33 80 -33q50 0 78 31q29 33 29 80q0 40 -29 69t-76 29q-26 0 -47 -6v139q68 0 92 21q27 24 27 65q0 35 -23 58q-19 22 -57 22q-39 0 -61 -27q-23 -26 -23 -63h-190q8 111 79 182q76 76 209 76q125 0 193 -70q61 -61 61 -157q0 -66 -26 -109 q-20 -33 -56 -55q48 -14 82 -58q47 -59 47 -143q0 -107 -71 -178q-82 -82 -230 -82q-144 0 -231 82q-86 81 -98 203zM483 0l791 1366h178l-793 -1366h-176zM1069 156v129l305 534h268v-506h97v-157h-97v-156h-192v156h-381zM1278 313h172v316z" />
<glyph unicode="&#xbf;" horiz-adv-x="1120" d="M82 -78q0 142 98 254q90 100 230 131v129h333v-352q-27 10 -71 10q-41 0 -68 -3t-61.5 -17.5t-61.5 -42.5q-47 -47 -47 -113q0 -62 37 -94q33 -33 90 -33q62 0 94 37q37 40 37 100h361q-7 -102 -48.5 -184t-101.5 -133q-124 -107 -340 -107q-230 0 -360 125 q-121 117 -121 293zM356 721q0 87 62 149q64 64 149 64q86 0 150 -64q63 -63 63 -149q0 -87 -63 -150t-150 -63q-86 0 -151 65q-60 60 -60 148z" />
<glyph unicode="&#xc0;" horiz-adv-x="1454" d="M14 0l525 1366h387l514 -1366h-379l-84 229h-496l-92 -229h-375zM412 1753l209 150l258 -316l-152 -112zM580 500h303l-154 442z" />
<glyph unicode="&#xc1;" horiz-adv-x="1454" d="M14 0l525 1366h387l514 -1366h-379l-84 229h-496l-92 -229h-375zM575 1587l261 316l206 -150l-315 -278zM580 500h303l-154 442z" />
<glyph unicode="&#xc2;" horiz-adv-x="1454" d="M14 0l525 1366h387l514 -1366h-379l-84 229h-496l-92 -229h-375zM324 1632l401 301l405 -301l-145 -157l-260 200l-262 -200zM580 500h303l-154 442z" />
<glyph unicode="&#xc3;" horiz-adv-x="1454" d="M14 0l525 1366h387l514 -1366h-379l-84 229h-496l-92 -229h-375zM362 1575q29 89 82 139q62 58 144 58q53 0 123 -29l59 -27q68 -30 88 -30q50 0 76 90l158 -95q-14 -36 -40 -76.5t-51 -64.5q-59 -59 -147 -59q-54 0 -119 30l-61 31q-49 25 -74 25t-46.5 -21.5 t-31.5 -64.5zM580 500h303l-154 442z" />
<glyph unicode="&#xc4;" horiz-adv-x="1454" d="M14 0l525 1366h387l514 -1366h-379l-84 229h-496l-92 -229h-375zM317 1659q0 63 54 125q53 53 123 53q71 0 122 -51q56 -56 56 -127q0 -68 -54 -125q-53 -53 -124 -53q-73 0 -125 55q-52 58 -52 123zM580 500h303l-154 442zM782 1659q0 63 54 125q53 53 122 53 q72 0 123 -51q56 -56 56 -127q0 -68 -54 -125q-53 -53 -125 -53t-124 55q-52 58 -52 123z" />
<glyph unicode="&#xc5;" horiz-adv-x="1454" d="M14 0l525 1366h387l514 -1366h-379l-84 229h-496l-92 -229h-375zM446 1692q0 83 54 137q76 76 227 76t227 -76q54 -54 54 -137q0 -82 -54 -136q-75 -75 -227 -75t-227 75q-54 54 -54 136zM580 500h303l-154 442zM618 1694q0 -31 21 -52q30 -30 88 -30t88 30q21 21 21 52 q0 30 -21 51q-31 31 -88 31t-88 -31q-21 -21 -21 -51z" />
<glyph unicode="&#xc6;" horiz-adv-x="1892" d="M14 0l527 1366h835l109 -301h-449l84 -227h449l112 -301h-450l90 -236h446l111 -301h-823l-88 240h-494l-86 -240h-373zM571 510h299l-145 403z" />
<glyph unicode="&#xc7;" horiz-adv-x="1206" d="M82 672q0 143 56 275t151 229t229 155t287 58q145 0 319 -70v-424q-122 149 -309 149q-145 0 -246 -90q-118 -110 -118 -280q0 -73 28.5 -144.5t81.5 -121.5q46 -43 113.5 -69t140.5 -26q178 0 309 144v-420q-105 -38 -173 -53t-134 -15q-167 0 -301 56.5t-227 148.5 q-99 99 -153 231t-54 267zM545 -401l196 307l230 -90l-238 -299z" />
<glyph unicode="&#xc8;" horiz-adv-x="1001" d="M143 0v1366h777v-301h-422v-227h399v-301h-399v-236h422v-301h-777zM258 1753l209 150l258 -316l-152 -112z" />
<glyph unicode="&#xc9;" horiz-adv-x="1001" d="M143 0v1366h777v-301h-422v-227h399v-301h-399v-236h422v-301h-777zM330 1587l260 316l207 -150l-316 -278z" />
<glyph unicode="&#xca;" horiz-adv-x="1001" d="M129 1632l401 301l406 -301l-145 -157l-261 200l-262 -200zM143 0v1366h777v-301h-422v-227h399v-301h-399v-236h422v-301h-777z" />
<glyph unicode="&#xcb;" horiz-adv-x="1001" d="M123 1659q0 64 53 125q53 53 123 53q72 0 123 -51q55 -55 55 -127q0 -69 -53 -125q-53 -53 -125 -53q-73 0 -125 55q-51 57 -51 123zM143 0v1366h777v-301h-422v-227h399v-301h-399v-236h422v-301h-777zM588 1659q0 64 53 125q53 53 123 53q72 0 123 -51q55 -55 55 -127 q0 -69 -53 -125q-53 -53 -125 -53q-73 0 -125 55q-51 57 -51 123z" />
<glyph unicode="&#xcc;" horiz-adv-x="641" d="M33 1753l209 150l258 -316l-152 -112zM143 0v1366h355v-1366h-355z" />
<glyph unicode="&#xcd;" horiz-adv-x="641" d="M143 0v1366h355v-1366h-355zM156 1587l260 316l207 -150l-316 -278z" />
<glyph unicode="&#xce;" horiz-adv-x="641" d="M-82 1632l401 301l406 -301l-145 -157l-261 200l-262 -200zM143 0v1366h355v-1366h-355z" />
<glyph unicode="&#xcf;" horiz-adv-x="641" d="M-88 1659q0 64 53 125q53 53 123 53q72 0 123 -51q55 -55 55 -127q0 -69 -53 -125q-53 -53 -125 -53q-73 0 -125 55q-51 57 -51 123zM143 0v1366h355v-1366h-355zM377 1659q0 64 53 125q53 53 123 53q72 0 123 -51q55 -55 55 -127q0 -69 -53 -125q-53 -53 -125 -53 q-73 0 -125 55q-51 57 -51 123z" />
<glyph unicode="&#xd0;" horiz-adv-x="1509" d="M41 606v246h188v514h465q348 0 543 -188q190 -183 190 -498q0 -295 -178 -473q-90 -90 -225 -148.5t-299 -58.5h-496v606h-188zM584 301h71q199 0 299 98q105 100 105 281q0 95 -28 173.5t-79 125.5q-56 52 -126.5 69t-155.5 17h-86v-213h241v-246h-241v-305z" />
<glyph unicode="&#xd1;" horiz-adv-x="1648" d="M143 0v1366h355l653 -836v836h354v-1366h-354l-653 836v-836h-355zM459 1575q29 89 82 139q62 58 143 58q53 0 123 -29l59 -27q68 -30 88 -30q50 0 76 90l158 -95q-36 -90 -90 -141q-59 -59 -148 -59q-54 0 -119 30l-61 31q-49 25 -74 25t-46.5 -21.5t-31.5 -64.5z" />
<glyph unicode="&#xd2;" horiz-adv-x="1671" d="M82 682q0 141 54.5 276.5t160.5 235.5q103 98 244 150.5t295 52.5t294.5 -52t243.5 -151q106 -100 160.5 -235.5t54.5 -276.5q0 -140 -54.5 -274.5t-160.5 -235.5q-103 -99 -243.5 -151t-294.5 -52t-295 52.5t-244 150.5q-106 101 -160.5 235.5t-54.5 274.5zM451 676 q0 -150 108 -254q114 -109 277 -109q167 0 274 107q50 50 80.5 118.5t30.5 143.5q0 76 -30.5 145t-80.5 117q-56 53 -128.5 81t-145.5 28q-77 0 -150 -27.5t-127 -81.5q-108 -105 -108 -268zM522 1753l209 150l258 -316l-151 -112z" />
<glyph unicode="&#xd3;" horiz-adv-x="1671" d="M82 682q0 141 54.5 276.5t160.5 235.5q103 98 244 150.5t295 52.5t294.5 -52t243.5 -151q106 -100 160.5 -235.5t54.5 -276.5q0 -140 -54.5 -274.5t-160.5 -235.5q-103 -99 -243.5 -151t-294.5 -52t-295 52.5t-244 150.5q-106 101 -160.5 235.5t-54.5 274.5zM451 676 q0 -150 108 -254q114 -109 277 -109q167 0 274 107q50 50 80.5 118.5t30.5 143.5q0 76 -30.5 145t-80.5 117q-56 53 -128.5 81t-145.5 28q-77 0 -150 -27.5t-127 -81.5q-108 -105 -108 -268zM686 1587l260 316l207 -150l-315 -278z" />
<glyph unicode="&#xd4;" horiz-adv-x="1671" d="M82 682q0 141 54.5 276.5t160.5 235.5q103 98 244 150.5t295 52.5t294.5 -52t243.5 -151q106 -100 160.5 -235.5t54.5 -276.5q0 -140 -54.5 -274.5t-160.5 -235.5q-103 -99 -243.5 -151t-294.5 -52t-295 52.5t-244 150.5q-106 101 -160.5 235.5t-54.5 274.5zM434 1632 l402 301l405 -301l-145 -157l-260 200l-263 -200zM451 676q0 -150 108 -254q114 -109 277 -109q167 0 274 107q50 50 80.5 118.5t30.5 143.5q0 76 -30.5 145t-80.5 117q-56 53 -128.5 81t-145.5 28q-77 0 -150 -27.5t-127 -81.5q-108 -105 -108 -268z" />
<glyph unicode="&#xd5;" horiz-adv-x="1671" d="M82 682q0 141 54.5 276.5t160.5 235.5q103 98 244 150.5t295 52.5t294.5 -52t243.5 -151q106 -100 160.5 -235.5t54.5 -276.5q0 -140 -54.5 -274.5t-160.5 -235.5q-103 -99 -243.5 -151t-294.5 -52t-295 52.5t-244 150.5q-106 101 -160.5 235.5t-54.5 274.5zM451 676 q0 -150 108 -254q114 -109 277 -109q167 0 274 107q50 50 80.5 118.5t30.5 143.5q0 76 -30.5 145t-80.5 117q-56 53 -128.5 81t-145.5 28q-77 0 -150 -27.5t-127 -81.5q-108 -105 -108 -268zM473 1575q29 89 82 139q62 58 143 58q53 0 123 -29l60 -27q68 -30 88 -30 q49 0 75 90l158 -95q-36 -90 -90 -141q-59 -59 -147 -59q-54 0 -119 30l-62 31q-49 25 -73 25q-25 0 -46.5 -21.5t-31.5 -64.5z" />
<glyph unicode="&#xd6;" horiz-adv-x="1671" d="M82 682q0 141 54.5 276.5t160.5 235.5q103 98 244 150.5t295 52.5t294.5 -52t243.5 -151q106 -100 160.5 -235.5t54.5 -276.5q0 -140 -54.5 -274.5t-160.5 -235.5q-103 -99 -243.5 -151t-294.5 -52t-295 52.5t-244 150.5q-106 101 -160.5 235.5t-54.5 274.5zM428 1659 q0 64 53 125q53 53 123 53q72 0 123 -51q55 -55 55 -127q0 -69 -53 -125q-53 -53 -125 -53q-73 0 -125 55q-51 57 -51 123zM451 676q0 -150 108 -254q114 -109 277 -109q167 0 274 107q50 50 80.5 118.5t30.5 143.5q0 76 -30.5 145t-80.5 117q-56 53 -128.5 81t-145.5 28 q-77 0 -150 -27.5t-127 -81.5q-108 -105 -108 -268zM893 1659q0 64 53 125q53 53 123 53q72 0 123 -51q55 -55 55 -127q0 -69 -53 -125q-53 -53 -125 -53q-73 0 -125 55q-51 57 -51 123z" />
<glyph unicode="&#xd7;" d="M78 934l188 188l252 -252l250 252l174 -174l-250 -252l252 -252l-188 -188l-252 252l-252 -250l-172 174l250 250z" />
<glyph unicode="&#xd8;" horiz-adv-x="1695" d="M61 76l179 176q-146 183 -146 428q0 158 59 290t156 224q96 91 233 147t306 56q234 0 424 -115l180 180l182 -172l-178 -176q146 -194 146 -430q0 -141 -55.5 -275.5t-160.5 -236.5q-209 -203 -538 -203q-231 0 -424 115l-180 -180zM463 676q0 -93 43 -168l506 504 q-71 41 -164 41q-168 0 -277 -109q-108 -108 -108 -268zM686 354q72 -41 164 -41q165 0 272 107q111 111 111 262q0 101 -45 174z" />
<glyph unicode="&#xd9;" horiz-adv-x="1476" d="M143 582v784h355v-809q0 -30 1.5 -49.5t7.5 -51t21 -59.5t39 -51q31 -29 76.5 -47t91.5 -18q45 0 89.5 16t74.5 43q24 21 40 47.5t23.5 47.5t11.5 54.5t4.5 49t0.5 49.5v778h354v-784q0 -67 -3.5 -111t-17.5 -105t-46.5 -117t-85.5 -110q-167 -170 -451 -170 q-153 0 -269 45.5t-184 118.5q-80 87 -106.5 199t-26.5 250zM422 1753l209 150l258 -316l-152 -112z" />
<glyph unicode="&#xda;" horiz-adv-x="1476" d="M143 582v784h355v-809q0 -30 1.5 -49.5t7.5 -51t21 -59.5t39 -51q31 -29 76.5 -47t91.5 -18q45 0 89.5 16t74.5 43q24 21 40 47.5t23.5 47.5t11.5 54.5t4.5 49t0.5 49.5v778h354v-784q0 -67 -3.5 -111t-17.5 -105t-46.5 -117t-85.5 -110q-167 -170 -451 -170 q-153 0 -269 45.5t-184 118.5q-80 87 -106.5 199t-26.5 250zM586 1587l260 316l207 -150l-316 -278z" />
<glyph unicode="&#xdb;" horiz-adv-x="1476" d="M143 582v784h355v-809q0 -30 1.5 -49.5t7.5 -51t21 -59.5t39 -51q31 -29 76.5 -47t91.5 -18q45 0 89.5 16t74.5 43q24 21 40 47.5t23.5 47.5t11.5 54.5t4.5 49t0.5 49.5v778h354v-784q0 -67 -3.5 -111t-17.5 -105t-46.5 -117t-85.5 -110q-167 -170 -451 -170 q-153 0 -269 45.5t-184 118.5q-80 87 -106.5 199t-26.5 250zM334 1632l401 301l406 -301l-146 -157l-260 200l-262 -200z" />
<glyph unicode="&#xdc;" horiz-adv-x="1476" d="M143 582v784h355v-809q0 -30 1.5 -49.5t7.5 -51t21 -59.5t39 -51q31 -29 76.5 -47t91.5 -18q45 0 89.5 16t74.5 43q24 21 40 47.5t23.5 47.5t11.5 54.5t4.5 49t0.5 49.5v778h354v-784q0 -67 -3.5 -111t-17.5 -105t-46.5 -117t-85.5 -110q-167 -170 -451 -170 q-153 0 -269 45.5t-184 118.5q-80 87 -106.5 199t-26.5 250zM328 1659q0 64 53 125q53 53 123 53q72 0 123 -51q55 -55 55 -127q0 -69 -53 -125q-53 -53 -125 -53q-73 0 -125 55q-51 57 -51 123zM793 1659q0 64 53 125q53 53 123 53q72 0 123 -51q55 -55 55 -127 q0 -69 -53 -125q-53 -53 -125 -53q-73 0 -125 55q-51 57 -51 123z" />
<glyph unicode="&#xdd;" horiz-adv-x="1310" d="M-25 1366h424l258 -373l248 373h430l-510 -711v-655h-356v655zM504 1587l260 316l207 -150l-316 -278z" />
<glyph unicode="&#xde;" horiz-adv-x="1226" d="M143 0v1366h355v-184h211q218 0 346 -123q73 -70 100 -151.5t27 -180.5q0 -101 -24.5 -185.5t-96.5 -154.5q-121 -119 -340 -119h-223v-268h-355zM498 555h118q103 0 150 43q45 39 45 125q0 82 -41 123q-47 49 -152 49h-120v-340z" />
<glyph unicode="&#xdf;" horiz-adv-x="1208" d="M113 0v1085q0 205 116 316q116 112 338 112q226 0 351 -120q106 -106 106 -283q0 -31 -5.5 -62.5t-20 -73t-48.5 -80t-84 -65.5q91 -29 156 -96q58 -60 84.5 -129t26.5 -160q0 -237 -152 -366q-83 -70 -190 -91.5t-254 -13.5v275q53 0 102.5 18.5t81.5 50.5q55 55 55 142 q0 92 -57 153q-72 77 -182 72v260h22q71 0 117 41q37 35 37 111q0 61 -35 100t-100 39q-60 0 -97 -37q-41 -41 -41 -127v-1071h-327z" />
<glyph unicode="&#xe0;" horiz-adv-x="1261" d="M76 451q0 225 141 366q60 60 146.5 94.5t183.5 34.5q166 0 274 -119v88h328v-915h-328v100q-96 -131 -284 -131q-191 0 -330 146q-131 140 -131 336zM401 1343l209 150l258 -315l-151 -113zM412 459q0 -90 63 -150q28 -26 68 -43.5t80 -17.5q84 0 147 63q61 61 61 148 q0 88 -63 149q-64 60 -147 60q-81 0 -144 -60q-65 -62 -65 -149z" />
<glyph unicode="&#xe1;" horiz-adv-x="1261" d="M76 451q0 225 141 366q60 60 146.5 94.5t183.5 34.5q166 0 274 -119v88h328v-915h-328v100q-96 -131 -284 -131q-191 0 -330 146q-131 140 -131 336zM412 459q0 -90 63 -150q28 -26 68 -43.5t80 -17.5q84 0 147 63q61 61 61 148q0 88 -63 149q-64 60 -147 60 q-81 0 -144 -60q-65 -62 -65 -149zM494 1178l260 315l207 -150l-316 -278z" />
<glyph unicode="&#xe2;" horiz-adv-x="1261" d="M76 451q0 225 141 366q60 60 146.5 94.5t183.5 34.5q166 0 274 -119v88h328v-915h-328v100q-96 -131 -284 -131q-191 0 -330 146q-131 140 -131 336zM262 1223l402 301l405 -301l-145 -158l-260 201l-263 -201zM412 459q0 -90 63 -150q28 -26 68 -43.5t80 -17.5 q84 0 147 63q61 61 61 148q0 88 -63 149q-64 60 -147 60q-81 0 -144 -60q-65 -62 -65 -149z" />
<glyph unicode="&#xe3;" horiz-adv-x="1261" d="M76 451q0 225 141 366q60 60 146.5 94.5t183.5 34.5q166 0 274 -119v88h328v-915h-328v100q-96 -131 -284 -131q-191 0 -330 146q-131 140 -131 336zM301 1165q30 91 82 140q60 57 143 57q53 0 123 -29l60 -26q7 -3 22 -10t20.5 -9t15.5 -6t16.5 -5t13.5 -1q49 0 75 90 l158 -94q-37 -92 -90 -142q-59 -59 -147 -59q-52 0 -119 31l-62 31q-47 24 -73 24q-25 0 -46.5 -21.5t-31.5 -64.5zM412 459q0 -90 63 -150q28 -26 68 -43.5t80 -17.5q84 0 147 63q61 61 61 148q0 88 -63 149q-64 60 -147 60q-81 0 -144 -60q-65 -62 -65 -149z" />
<glyph unicode="&#xe4;" horiz-adv-x="1261" d="M76 451q0 225 141 366q60 60 146.5 94.5t183.5 34.5q166 0 274 -119v88h328v-915h-328v100q-96 -131 -284 -131q-191 0 -330 146q-131 140 -131 336zM256 1249q0 64 53 125q53 53 123 53q72 0 123 -51q55 -55 55 -127q0 -69 -53 -125q-53 -53 -125 -53q-73 0 -125 55 q-51 57 -51 123zM412 459q0 -90 63 -150q28 -26 68 -43.5t80 -17.5q84 0 147 63q61 61 61 148q0 88 -63 149q-64 60 -147 60q-81 0 -144 -60q-65 -62 -65 -149zM721 1249q0 64 53 125q53 53 123 53q72 0 123 -51q55 -55 55 -127q0 -69 -53 -125q-53 -53 -125 -53 q-73 0 -125 55q-51 57 -51 123z" />
<glyph unicode="&#xe5;" horiz-adv-x="1261" d="M76 451q0 225 141 366q60 60 146.5 94.5t183.5 34.5q166 0 274 -119v88h328v-915h-328v100q-96 -131 -284 -131q-191 0 -330 146q-131 140 -131 336zM385 1282q0 84 53 137q76 76 228 76q151 0 227 -76q53 -53 53 -137q0 -82 -53 -135q-76 -76 -227 -76q-152 0 -228 76 q-53 53 -53 135zM412 459q0 -90 63 -150q28 -26 68 -43.5t80 -17.5q84 0 147 63q61 61 61 148q0 88 -63 149q-64 60 -147 60q-81 0 -144 -60q-65 -62 -65 -149zM557 1284q0 -30 21 -51q31 -31 88 -31t88 31q20 20 20 51t-20 51q-31 31 -88 31t-88 -31q-21 -21 -21 -51z" />
<glyph unicode="&#xe6;" horiz-adv-x="1757" d="M76 268q0 119 80 199q104 104 303 104q127 0 233 -47v23q0 69 -43 112q-54 54 -176 54q-120 0 -254 -51v243q150 43 273 43q114 0 190 -35q96 -44 149 -127q58 75 140 117q94 45 213 45q114 0 209 -35.5t155 -95.5q133 -133 133 -385v-26h-686q0 -96 62 -158 q51 -51 147 -51q68 0 103 26q29 19 47 60h313q-45 -144 -166 -232q-115 -82 -301 -82q-144 0 -244 54q-84 45 -125 124q-66 -83 -163 -129q-106 -45 -213 -45q-94 0 -172.5 28.5t-128.5 78.5q-78 78 -78 188zM391 291q0 -44 39 -70q42 -31 109 -31q54 0 106 25q55 28 55 76 q0 21 -14 42t-35 32q-46 24 -110 24q-79 0 -117 -29q-33 -24 -33 -69zM1004 592h376q-13 62 -55 98q-57 51 -137 51q-70 0 -121 -45q-45 -42 -63 -104z" />
<glyph unicode="&#xe7;" horiz-adv-x="878" d="M76 451q0 101 39 193.5t108 160.5q146 139 369 139q111 0 213 -51v-275q-83 60 -170 60q-96 0 -160 -64q-63 -63 -63 -157q0 -91 57 -154q66 -70 168 -70q96 0 168 62v-275q-104 -51 -227 -51q-214 0 -361 140q-66 64 -103.5 153.5t-37.5 188.5zM299 -401l209 307 l217 -90l-254 -299z" />
<glyph unicode="&#xe8;" horiz-adv-x="1159" d="M74 455q0 220 137 354q137 133 375 133q218 0 352 -125q145 -138 145 -385v-35h-682q0 -40 15 -82.5t43 -70.5q45 -45 135 -45q63 0 106 24q40 24 58 62h313q-31 -112 -110 -189q-131 -127 -373 -127q-239 0 -379 140q-135 135 -135 346zM309 1343l209 150l258 -315 l-151 -113zM412 586h370q-13 58 -53 98q-49 49 -135 49q-84 0 -133 -49q-41 -45 -49 -98z" />
<glyph unicode="&#xe9;" horiz-adv-x="1159" d="M74 455q0 220 137 354q137 133 375 133q218 0 352 -125q145 -138 145 -385v-35h-682q0 -40 15 -82.5t43 -70.5q45 -45 135 -45q63 0 106 24q40 24 58 62h313q-31 -112 -110 -189q-131 -127 -373 -127q-239 0 -379 140q-135 135 -135 346zM412 586h370q-13 58 -53 98 q-49 49 -135 49q-84 0 -133 -49q-41 -45 -49 -98zM442 1178l260 315l207 -150l-315 -278z" />
<glyph unicode="&#xea;" horiz-adv-x="1159" d="M74 455q0 220 137 354q137 133 375 133q218 0 352 -125q145 -138 145 -385v-35h-682q0 -40 15 -82.5t43 -70.5q45 -45 135 -45q63 0 106 24q40 24 58 62h313q-31 -112 -110 -189q-131 -127 -373 -127q-239 0 -379 140q-135 135 -135 346zM182 1223l402 301l405 -301 l-145 -158l-260 201l-262 -201zM412 586h370q-13 58 -53 98q-49 49 -135 49q-84 0 -133 -49q-41 -45 -49 -98z" />
<glyph unicode="&#xeb;" horiz-adv-x="1159" d="M74 455q0 220 137 354q137 133 375 133q218 0 352 -125q145 -138 145 -385v-35h-682q0 -40 15 -82.5t43 -70.5q45 -45 135 -45q63 0 106 24q40 24 58 62h313q-31 -112 -110 -189q-131 -127 -373 -127q-239 0 -379 140q-135 135 -135 346zM176 1249q0 64 53 125 q53 53 123 53q72 0 123 -51q55 -55 55 -127q0 -69 -53 -125q-53 -53 -125 -53q-73 0 -125 55q-51 57 -51 123zM412 586h370q-13 58 -53 98q-49 49 -135 49q-84 0 -133 -49q-41 -45 -49 -98zM641 1249q0 64 53 125q53 53 123 53q72 0 123 -51q55 -55 55 -127q0 -69 -53 -125 q-53 -53 -125 -53q-73 0 -125 55q-51 57 -51 123z" />
<glyph unicode="&#xec;" horiz-adv-x="546" d="M-39 1343l209 150l258 -315l-152 -113zM109 0v915h327v-915h-327z" />
<glyph unicode="&#xed;" horiz-adv-x="546" d="M109 0v915h327v-915h-327zM129 1178l260 315l207 -150l-315 -278z" />
<glyph unicode="&#xee;" horiz-adv-x="546" d="M-127 1223l401 301l406 -301l-145 -158l-261 201l-262 -201zM109 0v915h327v-915h-327z" />
<glyph unicode="&#xef;" horiz-adv-x="546" d="M-137 1249q0 64 53 125q53 53 123 53q72 0 123 -51q55 -55 55 -127q0 -69 -53 -125q-53 -53 -125 -53q-73 0 -125 55q-51 57 -51 123zM109 0v915h327v-915h-327zM328 1249q0 64 53 125q53 53 123 53q72 0 123 -51q55 -55 55 -127q0 -69 -53 -125q-53 -53 -125 -53 q-73 0 -125 55q-51 57 -51 123z" />
<glyph unicode="&#xf0;" horiz-adv-x="1208" d="M61 473q0 203 138 330q67 62 163 97.5t195 35.5q160 0 283 -98q-13 116 -82 204q-53 65 -135 103l-406 -197l-82 156l291 131q-111 25 -266 25l61 227q279 0 471 -96l322 149l84 -156l-238 -108q150 -110 217 -272q70 -166 70 -400q0 -331 -164 -495q-136 -140 -385 -140 q-116 0 -212.5 32.5t-180.5 117.5q-144 144 -144 354zM401 455q0 -42 17.5 -85t48.5 -71q54 -51 137 -51t137 51q31 28 48.5 71t17.5 85q0 41 -17.5 84t-48.5 71q-26 25 -64 38.5t-73 13.5t-73 -13.5t-64 -38.5q-31 -28 -48.5 -71t-17.5 -84z" />
<glyph unicode="&#xf1;" horiz-adv-x="1198" d="M113 0v915h327v-114q102 135 291 135q172 0 270 -98q54 -54 70 -111.5t16 -144.5v-582h-327v463q0 42 -1 63t-10.5 57.5t-29.5 57.5q-37 39 -105 39q-74 0 -120 -43q-24 -23 -39 -63t-15 -82v-492h-327zM236 1165q30 92 81 140q60 57 144 57q53 0 123 -29l59 -26 q7 -3 22 -10t20.5 -9t15.5 -6t16.5 -5t13.5 -1q50 0 76 90l158 -94q-14 -36 -40 -77t-51 -65q-59 -59 -147 -59q-52 0 -119 31l-61 31q-47 24 -74 24q-25 0 -46.5 -21.5t-31.5 -64.5z" />
<glyph unicode="&#xf2;" horiz-adv-x="1251" d="M76 459q0 199 141 336q155 151 408 151q250 0 409 -151q142 -138 142 -336q0 -199 -142 -338q-155 -152 -409 -152t-408 152q-141 138 -141 338zM330 1343l209 150l258 -315l-152 -113zM416 459q0 -83 63 -146q61 -61 148 -61q84 0 145 61q64 61 64 146q0 38 -17 78.5 t-47 70.5q-28 27 -67.5 43.5t-77.5 16.5q-39 0 -79.5 -16.5t-68.5 -43.5q-63 -60 -63 -149z" />
<glyph unicode="&#xf3;" horiz-adv-x="1251" d="M76 459q0 199 141 336q155 151 408 151q250 0 409 -151q142 -138 142 -336q0 -199 -142 -338q-155 -152 -409 -152t-408 152q-141 138 -141 338zM416 459q0 -83 63 -146q61 -61 148 -61q84 0 145 61q64 61 64 146q0 38 -17 78.5t-47 70.5q-28 27 -67.5 43.5t-77.5 16.5 q-39 0 -79.5 -16.5t-68.5 -43.5q-63 -60 -63 -149zM463 1178l260 315l207 -150l-316 -278z" />
<glyph unicode="&#xf4;" horiz-adv-x="1251" d="M76 459q0 199 141 336q155 151 408 151q250 0 409 -151q142 -138 142 -336q0 -199 -142 -338q-155 -152 -409 -152t-408 152q-141 138 -141 338zM229 1223l402 301l405 -301l-145 -158l-260 201l-262 -201zM416 459q0 -83 63 -146q61 -61 148 -61q84 0 145 61 q64 61 64 146q0 38 -17 78.5t-47 70.5q-28 27 -67.5 43.5t-77.5 16.5q-39 0 -79.5 -16.5t-68.5 -43.5q-63 -60 -63 -149z" />
<glyph unicode="&#xf5;" horiz-adv-x="1251" d="M76 459q0 199 141 336q155 151 408 151q250 0 409 -151q142 -138 142 -336q0 -199 -142 -338q-155 -152 -409 -152t-408 152q-141 138 -141 338zM250 1165q30 91 82 140q60 57 143 57q53 0 123 -29l59 -26q7 -3 22 -10t20.5 -9t15.5 -6t16.5 -5t13.5 -1q50 0 76 90 l158 -94q-37 -92 -90 -142q-59 -59 -148 -59q-51 0 -118 31l-62 31q-47 24 -74 24q-25 0 -46 -21.5t-31 -64.5zM416 459q0 -83 63 -146q61 -61 148 -61q84 0 145 61q64 61 64 146q0 38 -17 78.5t-47 70.5q-28 27 -67.5 43.5t-77.5 16.5q-39 0 -79.5 -16.5t-68.5 -43.5 q-63 -60 -63 -149z" />
<glyph unicode="&#xf6;" horiz-adv-x="1251" d="M76 459q0 199 141 336q155 151 408 151q250 0 409 -151q142 -138 142 -336q0 -199 -142 -338q-155 -152 -409 -152t-408 152q-141 138 -141 338zM223 1249q0 64 53 125q53 53 123 53q72 0 123 -51q56 -56 56 -127q0 -68 -54 -125q-53 -53 -125 -53q-73 0 -125 55 q-51 57 -51 123zM416 459q0 -83 63 -146q61 -61 148 -61q84 0 145 61q64 61 64 146q0 38 -17 78.5t-47 70.5q-28 27 -67.5 43.5t-77.5 16.5q-39 0 -79.5 -16.5t-68.5 -43.5q-63 -60 -63 -149zM688 1249q0 64 53 125q53 53 123 53q72 0 123 -51q55 -55 55 -127 q0 -69 -53 -125q-53 -53 -125 -53q-73 0 -125 55q-51 57 -51 123z" />
<glyph unicode="&#xf7;" d="M68 573v246h888v-246h-888zM358 348q0 64 43 107q45 45 111 45q63 0 106 -43q46 -46 46 -109q0 -62 -46 -108q-46 -43 -106 -43q-69 0 -111 45q-43 43 -43 106zM358 1044q0 64 43 107q45 45 111 45q63 0 106 -43q46 -46 46 -109q0 -62 -46 -108q-46 -43 -106 -43 q-69 0 -111 45q-43 43 -43 106z" />
<glyph unicode="&#xf8;" horiz-adv-x="1228" d="M53 -2l140 139q-125 134 -125 322q0 201 141 336q155 151 407 151q172 0 306 -76l145 144l109 -105l-138 -135q129 -125 129 -315q0 -200 -141 -338q-86 -85 -187 -118.5t-223 -33.5q-174 0 -307 74l-147 -147zM408 463q0 -44 26 -94l275 274q-45 25 -91 25 q-86 0 -149 -60q-61 -58 -61 -145zM532 276q38 -24 86 -24q87 0 148 61t61 146q0 52 -22 90z" />
<glyph unicode="&#xf9;" horiz-adv-x="1208" d="M113 344v571h327v-512q0 -89 49 -133q39 -34 115 -34q77 0 117 38q47 47 47 129v512h328v-571q0 -74 -16.5 -131.5t-71.5 -114.5q-76 -78 -175.5 -103.5t-220.5 -25.5q-60 0 -108.5 4.5t-106.5 17t-108.5 40t-89.5 69.5q-86 91 -86 244zM291 1343l209 150l258 -315 l-152 -113z" />
<glyph unicode="&#xfa;" horiz-adv-x="1208" d="M113 344v571h327v-512q0 -89 49 -133q39 -34 115 -34q77 0 117 38q47 47 47 129v512h328v-571q0 -74 -16.5 -131.5t-71.5 -114.5q-76 -78 -175.5 -103.5t-220.5 -25.5q-60 0 -108.5 4.5t-106.5 17t-108.5 40t-89.5 69.5q-86 91 -86 244zM455 1178l260 315l207 -150 l-316 -278z" />
<glyph unicode="&#xfb;" horiz-adv-x="1208" d="M113 344v571h327v-512q0 -89 49 -133q39 -34 115 -34q77 0 117 38q47 47 47 129v512h328v-571q0 -74 -16.5 -131.5t-71.5 -114.5q-76 -78 -175.5 -103.5t-220.5 -25.5q-60 0 -108.5 4.5t-106.5 17t-108.5 40t-89.5 69.5q-86 91 -86 244zM203 1223l401 301l406 -301 l-146 -158l-260 201l-262 -201z" />
<glyph unicode="&#xfc;" horiz-adv-x="1208" d="M113 344v571h327v-512q0 -89 49 -133q39 -34 115 -34q77 0 117 38q47 47 47 129v512h328v-571q0 -74 -16.5 -131.5t-71.5 -114.5q-76 -78 -175.5 -103.5t-220.5 -25.5q-60 0 -108.5 4.5t-106.5 17t-108.5 40t-89.5 69.5q-86 91 -86 244zM197 1249q0 64 53 125 q53 53 123 53q72 0 123 -51q55 -55 55 -127q0 -69 -53 -125q-53 -53 -125 -53q-73 0 -125 55q-51 57 -51 123zM662 1249q0 64 53 125q53 53 123 53q72 0 123 -51q55 -55 55 -127q0 -69 -53 -125q-53 -53 -125 -53q-73 0 -125 55q-51 57 -51 123z" />
<glyph unicode="&#xfd;" horiz-adv-x="1236" d="M0 915h381l244 -469l237 469h375l-735 -1384h-367l307 594zM471 1178l260 315l207 -150l-315 -278z" />
<glyph unicode="&#xfe;" horiz-adv-x="1261" d="M113 -469v1962h327v-678q104 131 281 131q193 0 326 -133q139 -139 139 -354q0 -218 -148 -363q-130 -127 -313 -127q-170 0 -285 119v-557h-327zM430 455q0 -38 18.5 -78.5t45.5 -67.5q61 -61 147 -61q87 0 145 61q28 28 46 67t18 79q0 87 -64 151q-59 62 -145 62 q-85 0 -147 -62q-64 -64 -64 -151z" />
<glyph unicode="&#xff;" horiz-adv-x="1236" d="M0 915h381l244 -469l237 469h375l-735 -1384h-367l307 594zM213 1249q0 64 53 125q53 53 123 53q72 0 123 -51q55 -55 55 -127q0 -69 -53 -125q-53 -53 -125 -53q-73 0 -125 55q-51 57 -51 123zM678 1249q0 64 53 125q53 53 123 53q72 0 123 -51q55 -55 55 -127 q0 -69 -53 -125q-53 -53 -125 -53q-73 0 -125 55q-51 57 -51 123z" />
<glyph unicode="&#x152;" horiz-adv-x="2072" d="M82 686q0 134 53 264.5t156 235.5q207 211 518 211q131 0 233 -47q100 -46 181 -127v143h768v-303h-412v-225h385v-301h-385v-236h412v-301h-768v152q-78 -88 -174 -132q-109 -51 -252 -51q-157 0 -277.5 47t-224.5 152q-213 215 -213 518zM453 682q0 -69 27.5 -137.5 t80.5 -120.5q53 -53 124 -82t144 -29q72 0 145 29t126 82q106 106 106 266q0 144 -108 252q-111 111 -269 111q-153 0 -264 -107q-49 -48 -80.5 -119t-31.5 -145z" />
<glyph unicode="&#x153;" horiz-adv-x="1892" d="M74 451q0 215 141 356q45 44 95.5 73.5t103 42.5t95.5 18t93 5q124 0 211 -35q90 -36 160 -106q46 53 125 92q102 47 217 47q239 0 368 -133q40 -41 66.5 -87t39.5 -101.5t18 -92.5t10 -102l2 -27h-689q3 -40 21 -86.5t41 -68.5q45 -45 139 -45q121 0 156 86h313 q-33 -161 -180 -248q-122 -70 -293 -70q-136 0 -227 47q-77 43 -127 113q-76 -83 -160 -121q-87 -39 -211 -39q-247 0 -393 144q-135 132 -135 338zM412 461q0 -95 59 -154q55 -55 135 -55q78 0 133 49q32 29 51 72.5t19 85.5q0 88 -66 151q-56 54 -133 54q-75 0 -139 -60 q-59 -59 -59 -143zM1139 588h377q-16 61 -62 104q-48 45 -127 45q-71 0 -123 -41q-47 -39 -65 -108z" />
<glyph unicode="&#x178;" horiz-adv-x="1310" d="M-25 1366h424l258 -373l248 373h430l-510 -711v-655h-356v655zM246 1659q0 64 53 125q53 53 123 53q72 0 123 -51q55 -55 55 -127q0 -69 -53 -125q-53 -53 -125 -53q-73 0 -125 55q-51 57 -51 123zM711 1659q0 64 53 125q53 53 123 53q72 0 123 -51q55 -55 55 -127 q0 -69 -53 -125q-53 -53 -125 -53q-73 0 -125 55q-51 57 -51 123z" />
<glyph unicode="&#x2c6;" d="M109 1223l401 301l405 -301l-145 -158l-260 201l-262 -201z" />
<glyph unicode="&#x2dc;" d="M147 1165q30 91 82 140q60 57 144 57q53 0 123 -29l59 -26q7 -3 22 -10t20.5 -9t15.5 -6t16.5 -5t13.5 -1q50 0 76 90l158 -94q-14 -36 -40 -77t-51 -65q-59 -59 -147 -59q-52 0 -119 31l-61 31q-47 24 -74 24q-25 0 -46.5 -21.5t-31.5 -64.5z" />
<glyph unicode="&#x2000;" horiz-adv-x="966" />
<glyph unicode="&#x2001;" horiz-adv-x="1933" />
<glyph unicode="&#x2002;" horiz-adv-x="966" />
<glyph unicode="&#x2003;" horiz-adv-x="1933" />
<glyph unicode="&#x2004;" horiz-adv-x="644" />
<glyph unicode="&#x2005;" horiz-adv-x="483" />
<glyph unicode="&#x2006;" horiz-adv-x="322" />
<glyph unicode="&#x2007;" horiz-adv-x="322" />
<glyph unicode="&#x2008;" horiz-adv-x="241" />
<glyph unicode="&#x2009;" horiz-adv-x="386" />
<glyph unicode="&#x200a;" horiz-adv-x="107" />
<glyph unicode="&#x2010;" horiz-adv-x="722" d="M102 414v272h519v-272h-519z" />
<glyph unicode="&#x2011;" horiz-adv-x="722" d="M102 414v272h519v-272h-519z" />
<glyph unicode="&#x2012;" horiz-adv-x="722" d="M102 414v272h519v-272h-519z" />
<glyph unicode="&#x2013;" horiz-adv-x="1175" d="M143 408v270h889v-270h-889z" />
<glyph unicode="&#x2014;" horiz-adv-x="1857" d="M143 408v270h1571v-270h-1571z" />
<glyph unicode="&#x2018;" horiz-adv-x="706" d="M96 764l332 602h211l-236 -602h-307z" />
<glyph unicode="&#x2019;" horiz-adv-x="917" d="M68 764l235 602h309l-333 -602h-211z" />
<glyph unicode="&#x201a;" horiz-adv-x="940" d="M68 -305l258 647h309l-356 -647h-211z" />
<glyph unicode="&#x201c;" horiz-adv-x="1171" d="M96 764l332 602h211l-236 -602h-307zM559 764l334 602h211l-236 -602h-309z" />
<glyph unicode="&#x201d;" horiz-adv-x="1382" d="M68 764l235 602h309l-333 -602h-211zM532 764l236 602h307l-332 -602h-211z" />
<glyph unicode="&#x201e;" horiz-adv-x="1398" d="M68 -305l251 647h308l-348 -647h-211zM532 -305l252 647h308l-349 -647h-211z" />
<glyph unicode="&#x2022;" horiz-adv-x="2048" d="M741 696q0 119 82 201q86 86 201 86q113 0 197 -84q86 -86 86 -203q0 -119 -93 -209q-83 -77 -190 -77q-110 0 -193 77q-90 83 -90 209z" />
<glyph unicode="&#x2026;" horiz-adv-x="1861" d="M98 174q0 88 62 150q63 63 149 63q87 0 150 -63t63 -150q0 -86 -63 -149q-64 -64 -150 -64q-85 0 -151 66q-60 60 -60 147zM719 174q0 89 61 150q63 63 150 63q86 0 149 -63q64 -64 64 -150q0 -85 -64 -149t-149 -64q-86 0 -152 66q-59 59 -59 147zM1339 174q0 88 62 150 q63 63 149 63q87 0 150 -63t63 -150q0 -86 -63 -149q-64 -64 -150 -64q-85 0 -151 66q-60 60 -60 147z" />
<glyph unicode="&#x202f;" horiz-adv-x="386" />
<glyph unicode="&#x2039;" horiz-adv-x="636" d="M57 467l312 444l180 -125l-227 -319l233 -315l-186 -132z" />
<glyph unicode="&#x203a;" horiz-adv-x="636" d="M78 152l233 315l-227 319l180 125l311 -444l-311 -447z" />
<glyph unicode="&#x205f;" horiz-adv-x="483" />
<glyph unicode="&#x20ac;" horiz-adv-x="1228" d="M-41 440l74 185h61q-3 47 0 102h-135l74 184h88q52 220 229 351q180 133 453 133q212 0 373 -90l-119 -299q-122 77 -269 77q-122 0 -200 -45q-83 -45 -111 -127h549l-74 -184h-512q-5 -44 2 -102h469l-73 -185h-351q32 -74 115 -118q78 -41 195 -41q194 0 317 108v-342 q-155 -78 -352 -78q-117 0 -232.5 31t-199.5 96q-75 59 -130.5 149.5t-80.5 194.5h-160z" />
<glyph unicode="&#x2122;" horiz-adv-x="1591" d="M0 1184v182h541v-182h-166v-596h-211v596h-164zM580 588l129 778h211l147 -399l158 399h211l114 -778h-211l-53 422l-174 -422h-94l-166 422l-61 -422h-211z" />
<glyph unicode="&#x25fc;" horiz-adv-x="911" d="M0 0v911h911v-911h-911z" />
</font>
</defs>
</svg>
