<?xml version="1.0" standalone="no"?>
<!DOCTYPE svg PUBLIC "-//W3C//DTD SVG 1.1//EN" "http://www.w3.org/Graphics/SVG/1.1/DTD/svg11.dtd" >
<svg xmlns="http://www.w3.org/2000/svg" xmlns:xlink="http://www.w3.org/1999/xlink" version="1.1">
<metadata></metadata>
<defs>
<font id="tiempos_headlinemedium" horiz-adv-x="1478" >
<font-face units-per-em="2048" ascent="1604" descent="-444" />
<missing-glyph horiz-adv-x="391" />
<glyph unicode="&#xfb01;" horiz-adv-x="1271" d="M23 991v56l149 49v49q0 114 37 202.5t103.5 144t153 84t189.5 28.5q154 0 239 -47.5t85 -135.5q0 -74 -72 -114h-170q8 33 8 79q0 64 -28.5 105t-93.5 41q-82 0 -124 -71t-42 -204v-172h518l78 21h59v-948q0 -52 26.5 -68.5t100.5 -21.5v-68h-537v68q74 5 99.5 21.5 t25.5 68.5v833h-370v-833q0 -52 25.5 -68.5t99.5 -21.5v-68h-537v68q74 5 100.5 21.5t26.5 68.5v833h-149z" />
<glyph unicode="&#xfb02;" horiz-adv-x="1271" d="M23 991v56l149 49v86q0 206 119 314t315 108q143 0 254 -62l207 62h45v-1446q0 -52 26.5 -68.5t100.5 -21.5v-68h-537v68q74 5 99.5 21.5t25.5 68.5v1214q-66 162 -204 162q-85 0 -125.5 -61t-40.5 -187v-201h225v-94h-225v-833q0 -52 25.5 -68.5t99.5 -21.5v-68h-537v68 q74 5 100.5 21.5t26.5 68.5v833h-149z" />
<glyph unicode="&#xfb03;" horiz-adv-x="1927" d="M23 991v56l149 49v34q0 142 62.5 243.5t164.5 149.5t232 48q188 0 313 -101q131 134 367 134q154 0 238.5 -47t84.5 -136q0 -74 -71 -114h-170q8 33 8 79q0 64 -29 105t-94 41q-82 0 -124 -71t-42 -204v-172h518l78 21h59v-948q0 -52 26.5 -68.5t100.5 -21.5v-68h-536v68 q74 5 99.5 21.5t25.5 68.5v833h-371v-833q0 -52 26.5 -68.5t100.5 -21.5v-68h-537v68q74 5 99.5 21.5t25.5 68.5v833h-370v-833q0 -52 25.5 -68.5t99.5 -21.5v-68h-537v68q74 5 100.5 21.5t26.5 68.5v833h-149zM457 1085h370v60q0 112 35 196q-33 73 -88 116.5t-129 43.5 q-95 0 -141.5 -65.5t-46.5 -200.5v-150z" />
<glyph unicode="&#xfb04;" horiz-adv-x="1927" d="M23 991v56l149 49v34q0 142 62.5 243.5t164.5 149.5t232 48q178 0 301 -90q117 123 330 123q143 0 254 -62l206 62h45v-1446q0 -52 26.5 -68.5t100.5 -21.5v-68h-536v68q74 5 99.5 21.5t25.5 68.5v1214q-66 162 -205 162q-85 0 -125.5 -61t-40.5 -187v-201h225v-94h-225 v-833q0 -52 25.5 -68.5t99.5 -21.5v-68h-535v68q74 5 99.5 21.5t25.5 68.5v833h-370v-833q0 -52 25.5 -68.5t99.5 -21.5v-68h-537v68q74 5 100.5 21.5t26.5 68.5v833h-149zM457 1085h370v97q0 95 29 174q-72 145 -211 145q-95 0 -141.5 -65.5t-46.5 -200.5v-150z" />
<glyph horiz-adv-x="0" />
<glyph horiz-adv-x="682" />
<glyph unicode=" "  horiz-adv-x="391" />
<glyph unicode="&#x09;" horiz-adv-x="391" />
<glyph unicode="&#xa0;" horiz-adv-x="391" />
<glyph unicode="!" horiz-adv-x="544" d="M96 1438h353l-138 -989h-78zM102 150q0 72 50.5 123t119.5 51q70 0 120 -51t50 -123q0 -69 -50 -119.5t-120 -50.5q-69 0 -119.5 50.5t-50.5 119.5z" />
<glyph unicode="&#x22;" horiz-adv-x="641" d="M45 1436q0 57 31 94t90 37q60 0 90.5 -36.5t30.5 -94.5q0 -57 -37 -193l-72 -274h-24l-72 274q-37 136 -37 193zM352 1436q0 57 31.5 94t91.5 37q59 0 90 -37t31 -94t-37 -193l-74 -274h-22l-74 274q-37 156 -37 193z" />
<glyph unicode="#" horiz-adv-x="1097" d="M45 475v78h211l115 360h-219v80h245l148 467l86 -26l-139 -441h286l148 467l86 -26l-140 -441h181v-80h-207l-113 -360h213v-78h-237l-156 -493l-86 26l147 467h-286l-156 -493l-88 26l147 467h-186zM352 553h287l113 360h-287z" />
<glyph unicode="$" horiz-adv-x="1116" d="M55 465h86q28 -144 94 -243t164 -138l88 510q-12 3 -22 8q-98 34 -166 70t-123 86.5t-81.5 118.5t-26.5 157q0 188 131.5 306t345.5 118q32 0 90 -4l37 203h73l-36 -213q152 -30 262 -107v-305h-76q-45 242 -205 314l-82 -474q90 -33 152 -61.5t120.5 -68t93 -84.5 t55 -106.5t20.5 -137.5q0 -105 -41 -188.5t-112.5 -136.5t-165.5 -81t-202 -28q-25 0 -75 4l-37 -215h-72l39 223q-194 27 -309 123zM307 1157q0 -98 51 -152.5t181 -107.5l82 471q-33 8 -76 8q-108 0 -173 -60t-65 -159zM467 66q50 -5 61 -5q124 0 198.5 63t74.5 169 q0 100 -54.5 158.5t-191.5 115.5z" />
<glyph unicode="%" horiz-adv-x="1570" d="M66 1110q0 108 48.5 188.5t125.5 120t170 39.5t170 -39.5t125.5 -120t48.5 -188.5t-48.5 -188.5t-125.5 -120t-170 -39.5t-170 39.5t-125.5 120t-48.5 188.5zM256 1110q0 -61 8.5 -111t26 -90.5t48 -63t71.5 -22.5q54 0 89.5 40.5t49.5 102t14 144.5q0 129 -36.5 207 t-116.5 78t-117 -78t-37 -207zM289 -20l899 1478h94l-899 -1478h-94zM819 328q0 160 100 254t242 94q93 0 170 -39.5t125.5 -120t48.5 -188.5t-48.5 -188.5t-125.5 -120t-170 -39.5q-142 0 -242 94t-100 254zM1008 328q0 -129 36.5 -207t116.5 -78t118 78.5t38 206.5 q0 127 -38 206.5t-118 79.5q-54 0 -89.5 -40t-49.5 -102t-14 -144z" />
<glyph unicode="&#x26;" horiz-adv-x="1435" d="M20 371q0 279 328 387v2q-139 160 -139 327q0 171 115 271t305 100q179 0 287 -87t108 -224q0 -246 -350 -344l375 -424q55 107 55 225q0 67 -39.5 92t-124.5 27v72h469v-72q-105 -2 -149.5 -31.5t-61.5 -116.5q-27 -139 -96 -258l98 -110q60 -71 107.5 -101.5 t111.5 -33.5v-72h-358q-71 47 -139 115q-182 -135 -416 -135q-130 0 -238 42t-178 132.5t-70 216.5zM279 451q0 -156 95.5 -249t252.5 -93q125 0 237 67l-30 35l-443 498q-112 -79 -112 -258zM446 1186q0 -30 4.5 -57.5t17.5 -55.5t21 -45.5t31 -46t29 -37t34.5 -39.5 t30.5 -33l19 -22q95 50 133.5 126.5t38.5 186.5q0 94 -45.5 157.5t-136.5 63.5q-82 0 -129.5 -53.5t-47.5 -144.5z" />
<glyph unicode="'" horiz-adv-x="331" d="M45 1436q0 57 31 94t90 37q60 0 90.5 -36.5t30.5 -94.5q0 -57 -37 -193l-72 -274h-24l-72 274q-37 136 -37 193z" />
<glyph unicode="(" horiz-adv-x="727" d="M123 643q0 259 118 501t337 433h96q-326 -372 -326 -934t326 -934h-96q-219 191 -337 433t-118 501z" />
<glyph unicode=")" horiz-adv-x="727" d="M53 -291q324 370 324 934t-324 934h97q218 -191 336 -433t118 -501t-118 -501t-336 -433h-97z" />
<glyph unicode="*" horiz-adv-x="866" d="M81.5 1042.5q17.5 34.5 68.5 49.5l258 84l-258 84q-51 15 -68.5 49t2.5 69q21 34 58.5 35.5t76.5 -33.5l203 -184l-57 268q-13 51 7.5 82t61.5 31q40 0 61 -31t9 -82l-60 -268l203 184q41 35 77.5 33.5t57.5 -35.5q20 -35 3 -69t-68 -49l-260 -84l260 -84 q51 -14 68.5 -49t-3.5 -68q-21 -35 -57.5 -37t-77.5 35l-203 182l60 -266q12 -52 -9 -83.5t-61 -31.5q-41 0 -61.5 31.5t-7.5 83.5l57 266l-203 -182q-39 -37 -76.5 -35t-58.5 37q-20 33 -2.5 67.5z" />
<glyph unicode="+" horiz-adv-x="1165" d="M131 696v123h389v389h123v-389h391v-123h-391v-389h-123v389h-389z" />
<glyph unicode="," horiz-adv-x="477" d="M61 -176q199 32 215 182h-77q-56 11 -89.5 48.5t-33.5 99.5q0 70 46.5 112.5t117.5 42.5q82 0 130 -59t48 -154q0 -148 -93 -238.5t-264 -99.5v66z" />
<glyph unicode="-" horiz-adv-x="655" d="M61 559v129h533v-129h-533z" />
<glyph unicode="." horiz-adv-x="477" d="M61 158q0 75 52.5 126.5t126.5 51.5t125 -51.5t51 -126.5q0 -76 -51 -127t-125 -51t-126.5 51t-52.5 127z" />
<glyph unicode="/" horiz-adv-x="755" d="M8 -289l590 1866h121l-590 -1866h-121z" />
<glyph unicode="0" horiz-adv-x="1302" d="M61 719q0 332 162 535.5t428 203.5q176 0 310.5 -92t208 -260t73.5 -387t-73.5 -387t-208 -260t-310.5 -92q-266 0 -428 203.5t-162 535.5zM383 719q0 -666 268 -666q269 0 269 666q0 665 -269 665q-268 0 -268 -665z" />
<glyph unicode="1" horiz-adv-x="811" d="M49 1145v65l88 17q140 25 222 75t151 154h63v-1233q0 -34 2 -54t11 -37.5t21 -26.5t38 -16t56 -10.5t81 -6.5v-72h-731v72q55 3 88 6t59.5 10.5t39 15.5t21 26.5t10 38t1.5 54.5v922h-221z" />
<glyph unicode="2" horiz-adv-x="1091" d="M8 0v55l377 381q164 166 230.5 286t66.5 257q0 124 -67.5 196t-192.5 72q-181 0 -311 -162l-52 33q38 72 82 128.5t105 106.5t141.5 77.5t175.5 27.5q190 0 300 -101t110 -274q0 -57 -18.5 -116.5t-46 -111t-75 -110t-90.5 -103.5t-107.5 -103.5t-111.5 -97.5t-118 -98 t-111 -93h371q53 0 83 3t63 13.5t57 33.5t50.5 60.5t57.5 96.5h57l-65 -457h-961z" />
<glyph unicode="3" horiz-adv-x="1064" d="M10 270q0 55 27 97t65 61h181q-19 -52 -19 -119q0 -115 63 -186.5t171 -71.5q113 0 175 82t62 217q0 158 -99 248t-267 90h-56l-16 53q88 30 148.5 59.5t107.5 67t69.5 84.5t22.5 107q0 93 -55 149t-158 56q-169 0 -289 -152l-43 35q145 311 467 311q163 0 261 -81.5 t98 -221.5q0 -72 -31.5 -132t-84.5 -98.5t-108 -63t-116 -38.5q193 -12 312.5 -122t119.5 -275q0 -139 -73.5 -242.5t-191 -153.5t-259.5 -50q-226 0 -355 84t-129 206z" />
<glyph unicode="4" horiz-adv-x="1239" d="M16 389v55l732 994h204v-959h242v-90h-242v-182q0 -84 30 -108.5t140 -35.5v-63h-635v63q111 11 141.5 35.5t30.5 108.5v182h-643zM150 479h509v686z" />
<glyph unicode="5" horiz-adv-x="1048" d="M20 266q0 54 28 97t69 65h174q-17 -70 -17 -119q0 -122 58 -190t172 -68q116 0 187 74t71 199q0 181 -159.5 272.5t-471.5 93.5l123 748h516q56 0 79 14t54 74h62l-56 -348h-614l-39 -238q174 0 308.5 -29t232 -88.5t149 -155.5t51.5 -225q0 -212 -140.5 -337 t-362.5 -125q-223 0 -348.5 81.5t-125.5 204.5z" />
<glyph unicode="6" horiz-adv-x="1191" d="M63 602q0 166 58 313.5t165 261t269 187t360 92.5l37 -49q-501 -118 -575 -616q60 54 149 91.5t199 37.5q181 0 296.5 -114.5t115.5 -311.5q0 -233 -145.5 -373.5t-368.5 -140.5q-174 0 -302 81t-193 221t-65 320zM365 612q0 -254 71 -405.5t199 -151.5q111 0 170 93 t59 249q0 176 -78 283.5t-227 107.5q-103 0 -188 -49q-6 -61 -6 -127z" />
<glyph unicode="7" horiz-adv-x="1019" d="M25 973l90 465h899v-70l-582 -1368h-217l623 1155h-549q-71 0 -111.5 -40t-81.5 -142h-71z" />
<glyph unicode="8" horiz-adv-x="1148" d="M53 342q0 125 91.5 209t234.5 117l-41 20q-108 51 -173 142.5t-65 224.5q0 178 129.5 290.5t341.5 112.5t333.5 -90t121.5 -246q0 -116 -88.5 -192.5t-214.5 -98.5l72 -32q148 -67 222.5 -162.5t74.5 -233.5q0 -191 -138.5 -307t-382.5 -116q-234 0 -376 98.5t-142 263.5 zM281 362q0 -139 79.5 -225t212.5 -86q128 0 203.5 65.5t75.5 184.5q0 86 -48 140t-142 96l-236 110q-78 -55 -111.5 -124.5t-33.5 -160.5zM336 1167q0 -89 42.5 -137t137.5 -94l160 -80q141 100 141 268q0 117 -65.5 189.5t-182.5 72.5q-105 0 -169 -60t-64 -159z" />
<glyph unicode="9" horiz-adv-x="1191" d="M55 944q0 233 145.5 373.5t368.5 140.5q174 0 302 -81t192.5 -221t64.5 -320q0 -166 -58 -313.5t-165 -261t-269 -187t-360 -92.5l-36 49q501 115 575 614q-151 -127 -348 -127q-181 0 -296.5 114.5t-115.5 311.5zM328 1040q0 -176 78 -283.5t227 -107.5q103 0 188 47 q6 62 6 129q0 254 -71 405.5t-199 151.5q-111 0 -170 -93t-59 -249z" />
<glyph unicode=":" horiz-adv-x="477" d="M61 158q0 75 52.5 126.5t126.5 51.5t125 -51.5t51 -126.5q0 -76 -51 -127t-125 -51t-126.5 51t-52.5 127zM61 823q0 75 52.5 126.5t126.5 51.5t125 -51.5t51 -126.5q0 -76 -51 -127t-125 -51t-126.5 51t-52.5 127z" />
<glyph unicode=";" horiz-adv-x="477" d="M61 -176q199 32 215 182h-77q-56 11 -89.5 48.5t-33.5 99.5q0 70 46.5 112.5t117.5 42.5q82 0 130 -59t48 -154q0 -148 -93 -238.5t-264 -99.5v66zM61 823q0 75 52.5 126.5t126.5 51.5t125 -51.5t51 -126.5q0 -76 -51 -127t-125 -51t-126.5 51t-52.5 127z" />
<glyph unicode="&#x3c;" horiz-adv-x="858" d="M86 745v19l641 393v-147l-430 -254l430 -256v-146z" />
<glyph unicode="=" horiz-adv-x="1185" d="M141 553v119h903v-119h-903zM141 842v123h903v-123h-903z" />
<glyph unicode="&#x3e;" horiz-adv-x="858" d="M131 354v146l430 256l-430 254v147l643 -393v-19z" />
<glyph unicode="?" horiz-adv-x="913" d="M37 1194q0 118 118 191t302 73q198 0 311 -89t113 -257q0 -63 -20 -117.5t-61 -102t-88.5 -86t-115.5 -83.5q-89 -60 -124.5 -111t-35.5 -131v-47h-35q-48 30 -81 87.5t-33 125.5q0 78 39.5 144t124.5 131q50 39 75 60.5t56 57t44 74t13 86.5q0 91 -46.5 143t-131.5 52 q-89 0 -133.5 -61t-44.5 -152q0 -57 6 -105h-189q-63 41 -63 117zM256 150q0 72 50 123t120 51t120 -51t50 -123q0 -69 -50 -119.5t-120 -50.5t-120 50.5t-50 119.5z" />
<glyph unicode="@" horiz-adv-x="1775" d="M70 479q0 147 43 286.5t125 256t193 204.5t254.5 137.5t301.5 49.5q166 0 302.5 -49t227.5 -135t140 -204.5t49 -256.5q0 -129 -39 -243.5t-104.5 -195t-154 -127t-185.5 -46.5q-77 0 -128.5 29t-73 78t-26 114t14.5 137q-84 -171 -172 -264.5t-193 -93.5 q-90 0 -145.5 70t-55.5 192q0 108 42.5 217t112 193.5t166 138t196.5 53.5q121 0 192 -78l143 72h56l-62 -183l-108 -413q-10 -39 -13 -72t2 -62t24.5 -46t51.5 -17q93 0 164.5 77t107 200t35.5 270q0 122 -37 226t-107 182t-178.5 122.5t-244.5 44.5q-169 0 -313.5 -71 t-240.5 -190t-150 -275t-54 -326q0 -202 85.5 -350.5t232.5 -223.5t338 -75q168 0 292 35.5t265 116.5l22 -35q-113 -96 -270.5 -151.5t-337.5 -55.5q-229 0 -405.5 85t-278.5 253.5t-102 398.5zM664 430q0 -59 20.5 -95t58.5 -36q58 0 125.5 80t127 215t98.5 293 q-34 69 -113 69q-65 0 -125.5 -51t-101.5 -129t-65.5 -170.5t-24.5 -175.5z" />
<glyph unicode="A" horiz-adv-x="1490" d="M10 0v72q49 7 77 22t44 53l447 1147l-64 154h320l526 -1301q16 -38 44.5 -53t76.5 -22v-72h-627v72q94 3 133 22.5t39 67.5q0 34 -18 80l-95 231h-551l-88 -229q-18 -47 -18 -80q0 -49 40 -69t136 -23v-72h-422zM395 561h484l-246 617z" />
<glyph unicode="B" horiz-adv-x="1355" d="M55 0v72q109 12 136.5 35t27.5 106v1012q0 83 -27.5 106t-136.5 35v72h662q238 0 365.5 -90.5t127.5 -266.5q0 -75 -32.5 -136t-87.5 -101.5t-122 -65t-143 -33.5q209 -6 338 -101.5t129 -256.5q0 -187 -139 -287t-403 -100h-695zM520 221q0 -81 37.5 -110t132.5 -29h21 q138 0 210 78.5t72 230.5q0 142 -82.5 223.5t-248.5 81.5h-142v-475zM520 786h101q297 0 297 291q0 136 -78 207.5t-222 71.5h-98v-570z" />
<glyph unicode="C" horiz-adv-x="1343" d="M61 684q0 174 56 320.5t153 245t229.5 153.5t284.5 55q267 0 453 -121l2 -329h-78q-75 364 -368 364q-137 0 -232 -86.5t-138.5 -226t-43.5 -318.5q0 -193 48.5 -343.5t147.5 -240t236 -89.5q148 0 245 99.5t150 319.5h82l-31 -385q-189 -122 -473 -122q-333 0 -528 192 t-195 512z" />
<glyph unicode="D" horiz-adv-x="1533" d="M55 0v72q109 12 136.5 35t27.5 106v1012q0 83 -27.5 106t-136.5 35v72h629q159 0 290 -35.5t222.5 -98t154.5 -150t92.5 -189.5t29.5 -217q0 -174 -56 -316t-155.5 -236t-237.5 -145t-301 -51h-668zM520 227q0 -87 36.5 -116t123.5 -29h37q197 0 317.5 166t120.5 457 q0 112 -19.5 209t-61 178.5t-102.5 140t-148 91t-193 32.5h-111v-1129z" />
<glyph unicode="E" horiz-adv-x="1300" d="M55 0v72q109 12 136.5 35t27.5 106v1012q0 83 -27.5 106t-136.5 35v72h1125l10 -369h-60q-40 88 -70 139.5t-67.5 87t-80 48t-105.5 12.5h-287v-570h260q65 0 95.5 43.5t46.5 145.5h71v-465h-71q-16 102 -46 144t-96 42h-260v-475q0 -81 41.5 -110t140.5 -29h127 q50 0 89 12t69.5 32t65 64.5t62.5 90.5t75 129h72l-64 -410h-1143z" />
<glyph unicode="F" horiz-adv-x="1206" d="M55 0v72q109 12 136.5 35t27.5 106v1012q0 83 -27.5 106t-136.5 35v72h1096l10 -381h-57q-72 173 -139 236t-187 63h-258v-586h230q65 0 94 44t43 147h71v-474h-71q-14 103 -43 147t-94 44h-230v-451q0 -84 50 -114t196 -39v-74h-711z" />
<glyph unicode="G" horiz-adv-x="1474" d="M61 684q0 175 56.5 321t155.5 245t234 153.5t290 54.5q274 0 456 -119l2 -331h-77q-75 366 -373 366q-108 0 -191 -49.5t-133.5 -137.5t-76 -201t-25.5 -247q0 -137 26.5 -256t77.5 -213.5t134.5 -149t189.5 -54.5q133 0 203 55v340q0 84 -27 107.5t-137 35.5v70h610v-70 q-109 -12 -136.5 -35.5t-27.5 -107.5v-340q-218 -141 -522 -141q-167 0 -302 54t-223.5 149t-136 223.5t-47.5 277.5z" />
<glyph unicode="H" horiz-adv-x="1654" d="M55 0v72q109 12 136.5 35t27.5 106v1012q0 83 -27.5 106t-136.5 35v72h629v-72q-109 -12 -136.5 -35t-27.5 -106v-441h617v441q0 83 -27.5 106t-136.5 35v72h626v-72q-109 -12 -136 -34.5t-27 -106.5v-1012q0 -84 27 -106.5t136 -34.5v-72h-626v72q109 12 136.5 35 t27.5 106v473h-617v-473q0 -83 27.5 -106t136.5 -35v-72h-629z" />
<glyph unicode="I" horiz-adv-x="739" d="M55 0v72q109 12 136.5 35t27.5 106v1012q0 83 -27.5 106t-136.5 35v72h629v-72q-109 -12 -136.5 -35t-27.5 -106v-1012q0 -83 27.5 -106t136.5 -35v-72h-629z" />
<glyph unicode="J" horiz-adv-x="1089" d="M-12 262q0 51 22 92.5t60 65.5h198q-12 -82 -12 -129q0 -113 42 -175.5t124 -62.5q89 0 129.5 70t40.5 219v883q0 83 -27.5 106t-136.5 35v72h627v-72q-109 -12 -136.5 -35t-27.5 -106v-789q0 -229 -124 -342.5t-355 -113.5q-200 0 -312 73.5t-112 208.5z" />
<glyph unicode="K" horiz-adv-x="1466" d="M55 0v72q109 12 136.5 35t27.5 106v1012q0 83 -27.5 106t-136.5 35v72h629v-72q-109 -12 -136.5 -35t-27.5 -106v-1012q0 -83 27.5 -106t136.5 -35v-72h-629zM543 707l499 520q52 52 52 86q0 26 -31 37.5t-121 15.5v72h459v-72q-63 -3 -99.5 -21.5t-84.5 -68.5l-416 -438 l442 -619q63 -86 105 -114.5t118 -32.5v-72h-391q-83 69 -178 207z" />
<glyph unicode="L" horiz-adv-x="1257" d="M55 0v72q109 12 136.5 35t27.5 106v1012q0 83 -27.5 106t-136.5 35v72h629v-72q-109 -12 -136.5 -35t-27.5 -106v-1004q0 -81 40 -110t138 -29h88q47 0 85.5 13.5t70.5 37t68 71.5t68 100t81 140h72l-72 -444h-1104z" />
<glyph unicode="M" horiz-adv-x="1918" d="M20 0v72q90 5 126.5 29.5t43.5 93.5l127 1022q0 82 -36.5 113.5t-137.5 35.5v72h463q4 -42 33 -125l334 -893l311 895q30 83 33 123h457v-72q-99 -5 -135.5 -36.5t-36.5 -112.5l127 -1022q9 -71 43.5 -94.5t123.5 -28.5v-72h-665v72q112 8 152 33t40 98q0 21 -4 49 l-102 848l-393 -1100h-103l-413 1100l-105 -848q-4 -28 -4 -49q0 -73 39.5 -98t155.5 -33v-72h-474z" />
<glyph unicode="N" horiz-adv-x="1529" d="M55 1366v72h420l746 -949v734q0 82 -38 107t-167 36v72h477v-72q-108 -12 -136 -36t-28 -107v-1227h-100l-897 1132v-913q0 -82 37.5 -107t165.5 -36v-72h-478v72q109 12 136.5 36t27.5 107v1024q-50 72 -81.5 98t-84.5 29z" />
<glyph unicode="O" d="M61 690q0 173 53 317.5t145 243t219 153t274 54.5q157 0 285 -57.5t210 -156t126 -226t44 -270.5q0 -173 -52.5 -317.5t-145 -243t-219 -153t-273.5 -54.5q-127 0 -235.5 37.5t-187 104t-134 156t-82.5 194t-27 218.5zM381 731q0 -132 22 -249t65 -212.5t115 -151 t165 -55.5q88 0 156 53.5t109 145t62 204.5t21 241q0 132 -21.5 249t-64.5 212t-115.5 150.5t-165.5 55.5q-87 0 -155 -53t-109.5 -144.5t-62.5 -204.5t-21 -241z" />
<glyph unicode="P" horiz-adv-x="1282" d="M55 0v72q109 12 136.5 35t27.5 106v1012q0 83 -27.5 106t-136.5 35v72h627q140 0 250 -33.5t177.5 -92.5t102.5 -135t35 -165q0 -206 -144 -323.5t-425 -117.5h-158v-344q0 -84 50 -114t196 -39v-74h-711zM520 659h88q167 0 249.5 90t82.5 257q0 159 -85.5 254.5 t-246.5 95.5h-88v-697z" />
<glyph unicode="Q" d="M61 690q0 173 53 317.5t145 243t219 153t274 54.5q157 0 285 -57.5t210 -156t126 -226t44 -270.5q0 -295 -144.5 -495t-381.5 -255l145 -125q52 -46 85 -70.5t86 -47t110 -25.5v-29q-104 -74 -223 -74q-190 0 -332 199l-111 158q-140 13 -253.5 75t-186.5 158.5 t-111.5 217.5t-38.5 255zM381 731q0 -132 22 -249t65 -212.5t115 -151t165 -55.5q88 0 156 53.5t109 145t62 204.5t21 241q0 132 -21.5 249t-64.5 212t-115.5 150.5t-165.5 55.5q-87 0 -155 -53t-109.5 -144.5t-62.5 -204.5t-21 -241z" />
<glyph unicode="R" horiz-adv-x="1470" d="M55 0v72q109 12 136.5 35t27.5 106v1012q0 83 -27.5 106t-136.5 35v72h654q252 0 394 -108.5t142 -291.5q0 -80 -30 -147t-80 -112t-106 -74.5t-118 -45.5l310 -419q71 -97 121.5 -132t127.5 -36v-72h-389q-75 55 -172 201l-282 413h-107v-401q0 -83 27.5 -106t136.5 -35 v-72h-629zM520 700h98q159 0 240.5 87t81.5 249q0 143 -84 230.5t-242 87.5h-94v-654z" />
<glyph unicode="S" horiz-adv-x="1126" d="M61 465h86q38 -188 137.5 -296t250.5 -108q124 0 197 63t73 169q0 111 -71.5 173t-262.5 132q-97 34 -165.5 70.5t-123 87.5t-81.5 120t-27 158q0 188 131.5 306t345.5 118q127 0 238.5 -32.5t187.5 -88.5v-305h-76q-30 166 -118 255t-232 89q-107 0 -170.5 -60 t-63.5 -157q0 -104 63.5 -162t233.5 -120q88 -32 151.5 -61.5t121 -69.5t92.5 -86t55.5 -108t20.5 -138q0 -139 -71.5 -239t-187 -147.5t-261.5 -47.5q-141 0 -262 37.5t-193 97.5z" />
<glyph unicode="T" horiz-adv-x="1382" d="M29 965l30 473h1264l31 -473h-66q-38 87 -60 136.5t-50 101.5t-49 77t-49.5 47t-59 29.5t-70.5 7.5h-108v-1157q0 -29 3 -48.5t14.5 -33.5t21.5 -22t36.5 -14t46 -9t62.5 -8v-72h-668v72q37 4 54 6.5t42 7.5t35 10.5t23.5 15t18.5 22.5t8.5 31t3.5 42v1157h-109 q-30 0 -54.5 -4t-47 -16t-40 -25t-38 -40.5t-36 -52.5t-37.5 -70.5t-40 -85.5t-47 -105h-65z" />
<glyph unicode="U" horiz-adv-x="1501" d="M25 1366v72h626v-72q-109 -12 -136.5 -35t-27.5 -106v-705q0 -191 84 -296t250 -105q178 0 279.5 100.5t101.5 312.5v691q0 44 -6 67.5t-28.5 40t-57.5 23t-102 12.5v72h469v-72q-108 -12 -136 -36t-28 -107v-727q0 -103 -27.5 -188.5t-77 -145.5t-118 -101.5t-149.5 -61 t-173 -19.5q-277 0 -428.5 130.5t-151.5 389.5v725q0 84 -27 106.5t-136 34.5z" />
<glyph unicode="V" horiz-adv-x="1454" d="M10 1366v72h631v-72q-97 -3 -132.5 -22.5t-35.5 -65.5q0 -30 23 -84l364 -809l314 809q20 52 20 82q0 48 -35 67.5t-131 22.5v72h416v-72q-49 -7 -77 -22.5t-44 -53.5l-526 -1302h-78l-588 1302q-19 40 -46 54.5t-75 21.5z" />
<glyph unicode="W" horiz-adv-x="1974" d="M10 1366v72h600v-72q-80 -3 -113.5 -22t-33.5 -60q0 -24 24 -98l281 -785l199 551l-113 338q-13 37 -39.5 53t-73.5 23v72h590v-72q-91 -1 -127.5 -21.5t-36.5 -66.5q0 -18 23 -104l250 -762l258 766q24 74 24 96q0 46 -36.5 67.5t-126.5 24.5v72h405v-72 q-49 -7 -78 -22.5t-41 -53.5l-454 -1302h-99l-280 831l-303 -831h-99l-479 1302q-22 62 -121 76z" />
<glyph unicode="X" horiz-adv-x="1460" d="M10 0v72q60 3 95 21.5t69 64.5l418 540l-387 582q-53 80 -156 86v72h647v-72q-79 0 -112 -11t-33 -44q0 -37 49 -107l205 -309l237 317q39 53 39 91q0 63 -149 63v72h448v-72q-59 -3 -97 -23t-69 -63l-356 -469l430 -645q32 -48 69.5 -69.5t92.5 -24.5v-72h-662v72 q85 0 122.5 12.5t37.5 50.5q0 30 -43 94l-260 389l-295 -393q-37 -51 -37 -84q0 -66 168 -69v-72h-471z" />
<glyph unicode="Y" horiz-adv-x="1363" d="M10 1366v72h617v-72q-93 -3 -126.5 -18.5t-33.5 -55.5q0 -7 1 -14.5t2 -13t4.5 -14t4.5 -12t6.5 -14t7 -13t8.5 -15.5t9 -16l285 -498l266 494q43 88 43 116q0 39 -36.5 55t-125.5 19v72h412v-72q-45 -6 -73.5 -22.5t-47.5 -53.5l-399 -733v-350q0 -24 3.5 -42t8 -31 t17.5 -22.5t23 -15t34.5 -10.5t41.5 -7.5t54 -6.5v-72h-658v72q51 6 73.5 9.5t50 12t37.5 22t17 35.5t7 56v346l-412 737q-22 39 -48.5 54.5t-72.5 21.5z" />
<glyph unicode="Z" horiz-adv-x="1243" d="M37 0v53l774 1303h-340q-122 0 -174 -59.5t-141 -262.5q-3 -5 -4 -8h-68l16 412h1067v-54l-770 -1302h351q44 0 77.5 6.5t65.5 25.5t56.5 42t57 68t60.5 91.5t72 124.5h69l-71 -440h-1098z" />
<glyph unicode="[" horiz-adv-x="665" d="M174 -289v1866h412v-68q-136 -8 -180 -28.5t-44 -94.5v-1484q0 -74 44 -94.5t180 -28.5v-68h-412z" />
<glyph unicode="\" horiz-adv-x="755" d="M37 1577h123l590 -1866h-121z" />
<glyph unicode="]" horiz-adv-x="665" d="M80 -221q48 3 74 5.5t55.5 7.5t43 12.5t27 20.5t17.5 31.5t4 45.5v1484q0 27 -4 45.5t-17.5 31.5t-27 20.5t-43 12.5t-55.5 7.5t-74 5.5v68h412v-1866h-412v68z" />
<glyph unicode="^" horiz-adv-x="952" d="M74 983l338 594h131l338 -594h-123l-281 502l-282 -502h-121z" />
<glyph unicode="_" horiz-adv-x="825" d="M41 -135h743v-119h-743v119z" />
<glyph unicode="`" horiz-adv-x="1024" d="M299 1548v15h289l112 -340h-71z" />
<glyph unicode="a" horiz-adv-x="1073" d="M47 248q0 64 21 113.5t63 84.5t87 59t110 48l309 113v174q0 200 -145 200q-70 0 -104 -47t-34 -125q0 -50 17 -127l-170 -22q-90 29 -90 129q0 123 113 190.5t290 67.5q202 0 304 -80t102 -256v-543q0 -57 14.5 -85.5t52.5 -28.5q36 0 82 20l12 -45q-91 -108 -233 -108 q-83 0 -136.5 47.5t-68.5 132.5q-135 -176 -319 -176q-126 0 -201.5 71t-75.5 193zM322 326q0 -84 39 -133.5t118 -49.5q42 0 77 15.5t81 50.5v383l-176 -72q-70 -27 -104.5 -70t-34.5 -124z" />
<glyph unicode="b" horiz-adv-x="1206" d="M0 1462v43l362 99h46v-691q129 193 344 193q189 0 298 -131.5t109 -366.5q0 -147 -43.5 -267t-120 -198t-178.5 -120.5t-221 -42.5q-139 0 -263 36.5t-210 106.5v1276zM408 291q0 -236 186 -236q127 0 202.5 129t75.5 324q0 196 -72 311t-212 115q-101 0 -180 -72v-571z " />
<glyph unicode="c" horiz-adv-x="966" d="M45 506q0 128 37.5 238t105.5 190t168 126t219 46q155 0 247.5 -62t92.5 -178q0 -48 -21.5 -84.5t-55.5 -52.5h-156q8 66 8 100q0 199 -149 199q-114 0 -180 -114t-66 -289q0 -203 88 -323t242 -120q183 0 286 152l35 -21q-47 -165 -156 -249t-268 -84q-209 0 -343 144 t-134 382z" />
<glyph unicode="d" horiz-adv-x="1230" d="M45 492q0 142 40.5 258t111 192.5t165.5 118t205 41.5q143 0 221 -72v369l-122 63v43l362 99h45v-1387q0 -57 13.5 -75.5t68.5 -22.5l51 -4v-62l-372 -73h-54l8 190q-133 -190 -329 -190q-187 0 -300.5 140t-113.5 372zM326 590q0 -193 76 -314.5t212 -121.5 q103 0 174 65v541q0 121 -49 187.5t-141 66.5q-128 0 -200 -115t-72 -309z" />
<glyph unicode="e" horiz-adv-x="1013" d="M47 514q0 129 39.5 240t108 188t161.5 120.5t197 43.5q200 0 309 -118.5t109 -309.5v-47h-668v-25q0 -194 90 -309q96 -123 250 -123q101 0 174 41.5t131 124.5l33 -18q-41 -158 -153.5 -250t-284.5 -92q-222 0 -359 148.5t-137 385.5zM307 707h410q0 323 -185 323 q-98 0 -155 -88t-70 -235z" />
<glyph unicode="f" horiz-adv-x="710" d="M23 991v56l149 49v86q0 206 116.5 314t307.5 108q133 0 200.5 -45t67.5 -129q0 -38 -18.5 -69t-50.5 -46h-150q8 46 8 82q0 135 -86 135q-110 0 -110 -180v-267h252v-94h-252v-817q0 -60 35 -79t137 -27v-68h-584v68q74 5 100.5 21.5t26.5 68.5v833h-149z" />
<glyph unicode="g" horiz-adv-x="1077" d="M-2 -199q0 132 192 193q-60 23 -93.5 73t-33.5 113q0 82 52 143t139 115q-87 42 -137.5 115.5t-50.5 177.5q0 173 124.5 274t321.5 101q76 0 182 -29l346 8v-118h-84l-143 6q57 -37 93 -99.5t36 -136.5q0 -161 -121.5 -255.5t-316.5 -94.5q-117 0 -207 33 q-70 -66 -70 -123q0 -32 19 -51t53 -19h422q177 0 268.5 -72t91.5 -208q0 -126 -79 -218t-213 -138t-306 -46q-227 0 -356 66.5t-129 189.5zM184 -154q0 -103 84.5 -163t229.5 -60q105 0 188.5 22.5t138 73.5t54.5 125q0 123 -162 123h-494q-39 -45 -39 -121zM338 764 q0 -87 18.5 -155t60 -111t99.5 -43q158 0 158 276q0 131 -44.5 218t-129.5 87q-83 0 -122.5 -73t-39.5 -199z" />
<glyph unicode="h" horiz-adv-x="1267" d="M37 0v68q74 5 100.5 21.5t26.5 68.5v1241l-123 63v43l362 99h46v-699q169 201 376 201q145 0 220 -84.5t75 -251.5v-612q0 -52 26.5 -68.5t100.5 -21.5v-68h-536v68q74 5 99.5 21.5t25.5 68.5v598q0 91 -38 134.5t-122 43.5q-104 0 -227 -84v-692q0 -52 25 -68.5 t99 -21.5v-68h-536z" />
<glyph unicode="i" horiz-adv-x="614" d="M43 0v68q76 5 102.5 21.5t26.5 68.5v725l-123 71v39l361 113h45v-948q0 -52 26.5 -68.5t102.5 -21.5v-68h-541zM143 1391q0 67 47 114t119 47q74 0 121 -47t47 -114q0 -66 -47.5 -114t-120.5 -48q-72 0 -119 48t-47 114z" />
<glyph unicode="j" horiz-adv-x="559" d="M-6 -414l84 140q31 52 46.5 119t18 119.5t2.5 154.5v764l-122 71v39l360 113h45v-911q0 -148 -22 -227t-76 -152q-60 -76 -131.5 -136t-173.5 -126zM115 1391q0 67 47 114t119 47q74 0 121 -47t47 -114q0 -66 -47.5 -114t-120.5 -48q-72 0 -119 48t-47 114z" />
<glyph unicode="k" horiz-adv-x="1200" d="M39 0v68q74 5 100.5 21.5t26.5 68.5v1241l-123 63v43l363 99h45v-1446q0 -52 26.5 -68.5t100.5 -21.5v-68h-539zM469 582l322 292q59 50 59 87q0 27 -26 37t-105 20v67h436v-67q-59 -11 -95 -26.5t-71 -49.5l-272 -252l483 -643v-47h-303z" />
<glyph unicode="l" horiz-adv-x="608" d="M39 0v68q74 5 100.5 21.5t26.5 68.5v1241l-123 63v43l363 99h45v-1446q0 -52 26.5 -68.5t100.5 -21.5v-68h-539z" />
<glyph unicode="m" horiz-adv-x="1890" d="M43 0v68q76 5 102.5 21.5t26.5 68.5v725l-123 71v39l367 113h47l-8 -203q74 95 160.5 149t205.5 54q227 0 266 -207q163 207 375 207q281 0 281 -330v-618q0 -52 26.5 -68.5t100.5 -21.5v-68h-533v68q73 5 97 21.5t24 68.5v600q0 90 -34.5 133t-112.5 43q-96 0 -211 -86 v-690q0 -52 24 -68.5t97 -21.5v-68h-529v68q75 5 99 21.5t24 68.5v600q0 90 -34.5 133t-112.5 43q-56 0 -104.5 -21.5t-108.5 -62.5v-692q0 -52 24.5 -68.5t98.5 -21.5v-68h-535z" />
<glyph unicode="n" horiz-adv-x="1275" d="M43 0v68q76 5 102.5 21.5t26.5 68.5v725l-123 71v39l367 113h47l-8 -201q79 91 169.5 146t209.5 55q292 0 292 -334v-614q0 -52 26.5 -68.5t100.5 -21.5v-68h-536v68q74 5 99.5 21.5t25.5 68.5v598q0 91 -37.5 134.5t-120.5 43.5q-106 0 -229 -84v-692q0 -52 25.5 -68.5 t99.5 -21.5v-68h-537z" />
<glyph unicode="o" horiz-adv-x="1148" d="M45 518q0 259 151 423.5t382 164.5q235 0 380.5 -149t145.5 -392q0 -171 -69.5 -305t-191 -207t-272.5 -73q-236 0 -381 147.5t-145 390.5zM346 590q0 -156 24 -274t78.5 -190.5t133.5 -72.5q74 0 124 55.5t72.5 153t22.5 234.5q0 157 -23.5 274t-77.5 188.5t-133 71.5 q-111 0 -166 -116t-55 -324z" />
<glyph unicode="p" horiz-adv-x="1236" d="M27 -367q74 5 100.5 22t26.5 69v1159l-123 71v39l366 113h49l-8 -193q129 193 344 193q189 0 298.5 -132t109.5 -366q0 -147 -42.5 -267t-116.5 -198t-173.5 -120.5t-214.5 -42.5q-139 0 -205 57v-307q0 -56 32.5 -72.5t135.5 -24.5v-67h-579v67zM438 293 q0 -236 187 -236q127 0 202.5 128t75.5 323q0 196 -72.5 311t-212.5 115q-101 0 -180 -72v-569z" />
<glyph unicode="q" horiz-adv-x="1200" d="M45 492q0 142 40.5 258.5t111.5 194t168 119.5t210 42q206 0 326 -127l127 123h55l-10 -230v-1148q0 -52 26.5 -69t100.5 -22v-67h-582v67q105 8 137.5 24.5t32.5 72.5v440q-135 -190 -329 -190q-187 0 -300.5 140t-113.5 372zM326 600q0 -196 76.5 -321t211.5 -125 q103 0 174 65v553q0 120 -51.5 188t-138.5 68q-127 0 -199.5 -117t-72.5 -311z" />
<glyph unicode="r" horiz-adv-x="841" d="M43 0v68q76 5 102.5 21.5t26.5 68.5v725l-123 71v39l367 113h47l-8 -303q76 173 134 238t146 65q62 0 90 -35v-221h-39q-114 0 -187 -20t-144 -91v-565q0 -60 36 -79t138 -27v-68h-586z" />
<glyph unicode="s" horiz-adv-x="931" d="M70 362h75q35 -140 114.5 -225.5t193.5 -85.5q87 0 140.5 42t53.5 124q0 79 -53 122t-184 89q-174 60 -253 138t-79 214q0 152 105 239t276 87q193 0 334 -90v-248h-70q-27 118 -94 192t-170 74q-77 0 -121.5 -41t-44.5 -108q0 -69 49.5 -111t171.5 -86q90 -32 150 -62 t108.5 -72t71 -98t22.5 -130q0 -163 -112 -254.5t-303 -91.5q-229 0 -369 102z" />
<glyph unicode="t" horiz-adv-x="737" d="M4 991v47q205 92 350 314h62v-267h266v-94h-266v-678q0 -93 35 -135.5t108 -42.5q78 0 154 58l24 -37q-114 -176 -315 -176q-134 0 -212.5 76.5t-78.5 240.5v694h-127z" />
<glyph unicode="u" horiz-adv-x="1230" d="M8 965v61l377 78h45l-10 -244v-512q0 -198 160 -198q56 0 102.5 19t105.5 58v617q0 54 -18.5 79t-75.5 35l-30 7v61l372 78h45l-8 -240v-647q0 -57 13.5 -75.5t68.5 -22.5l51 -4v-62l-372 -73h-52l6 196q-38 -42 -70.5 -72t-77.5 -61t-97.5 -47t-110.5 -16 q-140 0 -218.5 82t-78.5 249v533q0 54 -18.5 79t-75.5 35z" />
<glyph unicode="v" horiz-adv-x="1157" d="M10 1018v67h557v-67q-81 -9 -109 -22.5t-28 -47.5q0 -16 12 -57l246 -567l230 569q14 38 14 55q0 34 -27.5 46.5t-111.5 23.5v67h354v-67q-53 -14 -72 -29t-33 -49l-405 -954h-76l-446 954q-16 35 -34 49.5t-71 28.5z" />
<glyph unicode="w" horiz-adv-x="1714" d="M10 1018v67h535v-67q-63 -8 -90 -22t-27 -46q0 -29 12 -57l217 -563l177 438l-64 172q-12 33 -32 49t-68 29v67h520v-67q-32 -4 -47.5 -7t-35 -8.5t-28 -12t-14.5 -17.5t-6 -27q0 -22 8 -53l197 -549l215 549q10 33 10 55q0 34 -28.5 48t-98.5 22v67h342v-67 q-52 -15 -71.5 -30t-33.5 -48l-387 -954h-88l-245 661l-273 -661h-86l-405 954q-14 34 -33 49t-72 29z" />
<glyph unicode="x" horiz-adv-x="1173" d="M10 0v68q98 23 140 79l301 396l-283 397q-22 32 -45.5 48.5t-71.5 29.5v67h533v-67q-57 -5 -82 -16.5t-25 -36.5q0 -22 31 -70l156 -219l163 215q33 51 33 72q0 46 -106 55v67h358v-67q-97 -23 -139 -82l-256 -334l325 -457q21 -32 46.5 -48.5t74.5 -28.5v-68h-545v68 q63 3 91 13.5t28 35.5q0 23 -35 73l-198 277l-207 -274q-27 -37 -27 -64q0 -55 125 -61v-68h-385z" />
<glyph unicode="y" horiz-adv-x="1153" d="M10 1018v67h557v-67q-82 -9 -110.5 -22.5t-28.5 -47.5q0 -20 12 -57l246 -606l229 606q15 38 15 57q0 34 -28 47.5t-111 22.5v67h352v-67q-52 -15 -71.5 -30t-33.5 -48l-450 -1135q-54 -133 -115 -194.5t-156 -61.5q-54 0 -98 26t-59 69v104q77 -18 139 -18q88 0 139 31 t82 112l35 88l-440 979q-14 34 -33 49t-72 29z" />
<glyph unicode="z" horiz-adv-x="1040" d="M51 0v47l600 954h-243q-84 0 -139 -66t-117 -230h-66l33 444h59l31 -68h768v-51l-586 -950h262q90 0 150.5 68t126.5 243h63l-39 -391h-903z" />
<glyph unicode="{" horiz-adv-x="724" d="M102 629v30q170 35 170 205v451q0 124 97 193t282 69v-51q-88 -10 -135 -56.5t-47 -144.5v-442q0 -104 -54.5 -157t-168.5 -81q115 -30 169 -81.5t54 -157.5v-441q0 -98 47 -144.5t135 -56.5v-51q-185 0 -282 69t-97 193v449q0 170 -170 205z" />
<glyph unicode="|" horiz-adv-x="432" d="M158 -289v1866h114v-1866h-114z" />
<glyph unicode="}" horiz-adv-x="735" d="M84 -236q87 10 133.5 56.5t46.5 144.5v441q0 106 54.5 157.5t170.5 81.5q-114 28 -169.5 81t-55.5 157v442q0 98 -46.5 144.5t-133.5 56.5v51q184 0 281.5 -69.5t97.5 -192.5v-451q0 -170 170 -205v-30q-170 -35 -170 -205v-449q0 -123 -97.5 -192.5t-281.5 -69.5v51z " />
<glyph unicode="~" horiz-adv-x="966" d="M61 500q46 150 109.5 221.5t161.5 71.5q42 0 92 -23t87.5 -51t84 -51t84.5 -23q53 0 91 33.5t77 101.5l57 -22q-46 -150 -108 -220.5t-160 -70.5q-42 0 -92 22.5t-87.5 50t-84 50t-84.5 22.5q-54 0 -92.5 -33t-77.5 -100z" />
<glyph unicode="&#xa1;" horiz-adv-x="544" d="M96 -223l137 989h78l138 -989h-353zM102 1065q0 69 50.5 119.5t119.5 50.5q70 0 120 -50.5t50 -119.5q0 -72 -50 -123t-120 -51q-69 0 -119.5 51t-50.5 123z" />
<glyph unicode="&#xa2;" horiz-adv-x="1075" d="M66 520q0 175 68 313.5t196.5 219t296.5 80.5h16l41 213h72l-43 -220q129 -16 206.5 -77t77.5 -160q0 -49 -23.5 -85t-60.5 -54h-141q8 47 8 106q0 140 -86 180l-162 -835q62 -27 140 -27q194 0 311 168l35 -20q-49 -170 -166 -256t-285 -86q-41 0 -78 6l-40 -215h-70 l43 227q-163 43 -259.5 181.5t-96.5 340.5zM313 635q0 -282 156 -397l158 817q-8 2 -29 2q-128 0 -206.5 -119.5t-78.5 -302.5z" />
<glyph unicode="&#xa3;" horiz-adv-x="1347" d="M20 178q0 94 63 148.5t155 54.5q70 0 131 -21l34 357h-196v76h205l14 131q48 534 506 534q150 0 245 -58t95 -167q0 -51 -27.5 -91.5t-66.5 -56.5h-162q18 67 18 140q0 51 -7 85.5t-31.5 60.5t-67.5 26q-42 0 -74 -24t-53.5 -70t-35.5 -100t-24 -126l-41 -284h332v-76 h-342l-18 -142q-19 -177 -68 -280q83 -40 195.5 -66t210.5 -26q204 0 204 162q0 27 -10 65l39 10q64 -81 64 -182q0 -133 -82 -205.5t-226 -72.5q-132 0 -252.5 54t-209.5 130q-45 -85 -122.5 -134.5t-181.5 -49.5q-98 0 -155.5 55t-57.5 143zM104 178q0 -51 30 -79.5 t77 -28.5q58 0 97.5 48.5t49.5 145.5q-73 39 -133 39q-55 0 -88 -32.5t-33 -92.5z" />
<glyph unicode="&#xa4;" horiz-adv-x="1191" d="M137 299l152 152q-86 106 -86 256q0 147 86 256l-152 151l58 57l147 -153q110 92 254 92q142 0 252 -92l149 153l58 -57l-152 -151q86 -114 86 -256q0 -146 -86 -256l152 -152l-58 -57l-149 151q-107 -90 -252 -90q-147 0 -254 90l-147 -151zM297 707q0 -137 85.5 -227.5 t213.5 -90.5t212.5 90t84.5 228q0 139 -84.5 228t-212.5 89t-213.5 -89.5t-85.5 -227.5z" />
<glyph unicode="&#xa5;" horiz-adv-x="1347" d="M10 1366v72h619v-72q-94 -3 -127 -19t-33 -57q0 -18 6 -36.5t12.5 -31.5t22.5 -42l270 -492l262 488q35 76 35 116q0 39 -34.5 55t-124.5 19v72h419v-72q-45 -6 -73 -22.5t-47 -53.5l-297 -547h243v-77h-286l-52 -97v-69h338v-78h-338v-215q0 -28 3 -48t14.5 -34 t21.5 -22t36.5 -14t45.5 -9t62 -8v-72h-658v72q37 4 54 6.5t42 7.5t35 10.5t23.5 15t18.5 22.5t8.5 31t3.5 42v215h-345v78h345v67l-56 99h-289v77h246l-305 547q-22 39 -48.5 54.5t-72.5 21.5z" />
<glyph unicode="&#xa6;" horiz-adv-x="432" d="M158 -289v770h114v-770h-114zM158 807v770h114v-770h-114z" />
<glyph unicode="&#xa7;" horiz-adv-x="1073" d="M106 969q0 144 67 256.5t178.5 172.5t244.5 60q150 0 233.5 -58.5t83.5 -152.5q0 -80 -82 -112h-153v61q0 201 -150 201q-69 0 -103 -41t-34 -105q0 -46 18.5 -97t55.5 -109t72 -105.5t90 -118t86 -114.5q123 -171 188.5 -319.5t65.5 -311.5q0 -144 -67 -257t-178.5 -173 t-244.5 -60q-150 0 -233.5 58t-83.5 153q0 82 84 113h151v-64q0 -200 150 -200q69 0 104 41.5t35 103.5q0 46 -18.5 97.5t-56 110t-73 106t-90.5 118.5t-86 115q-123 171 -188.5 319.5t-65.5 311.5zM186 969q0 -151 61.5 -289t176.5 -295q22 -30 80 -106t94 -128t79 -124.5 t64 -141t19 -131.5q127 124 127 322q0 149 -61.5 286.5t-176.5 296.5q-21 29 -66.5 88t-77 101t-71.5 104t-64.5 112.5t-41 111t-15.5 114.5q-127 -124 -127 -321z" />
<glyph unicode="&#xa8;" horiz-adv-x="1024" d="M168 1391q0 61 44 105t105 44q63 0 107.5 -43.5t44.5 -105.5t-44.5 -106t-107.5 -44q-61 0 -105 44t-44 106zM565 1391q0 61 44 105t104 44q64 0 107.5 -43.5t43.5 -105.5t-43.5 -106t-107.5 -44q-60 0 -104 44.5t-44 105.5z" />
<glyph unicode="&#xa9;" horiz-adv-x="1613" d="M74 719q0 203 93 371.5t262 268t378 99.5t378 -99.5t262 -268t93 -371.5t-93 -371.5t-262 -268t-378 -99.5t-378 99.5t-262 268t-93 371.5zM135 719q0 -139 50 -264.5t137.5 -217.5t213.5 -146t271 -54q144 0 270 54t213.5 146t138 217.5t50.5 264.5t-50.5 264.5 t-138 217.5t-213.5 146t-270 54q-145 0 -271 -54t-213.5 -146t-137.5 -217.5t-50 -264.5zM412 705q0 205 123.5 327.5t306.5 122.5q167 0 272 -84v-205h-57q-47 224 -205 224q-113 0 -173.5 -104t-60.5 -253q0 -170 61.5 -273.5t170.5 -103.5q88 0 139 58.5t90 177.5h60 l-19 -227q-131 -74 -282 -74q-195 0 -310.5 115.5t-115.5 298.5z" />
<glyph unicode="&#xaa;" horiz-adv-x="784" d="M61 899q0 80 48 124t137 75l203 69v86q0 77 -22.5 116.5t-74.5 39.5q-41 0 -62.5 -28t-21.5 -76q0 -36 13 -86l-125 -17q-26 9 -42 32t-16 54q0 81 75 125.5t196 44.5q136 0 201 -55.5t65 -181.5v-322q0 -82 49 -82q30 0 61 14l9 -30q-63 -76 -158 -76q-57 0 -95.5 34 t-47.5 91q-86 -121 -215 -121q-78 0 -127.5 47t-49.5 123zM250 944q0 -49 23.5 -76.5t64.5 -27.5q51 0 111 45v231l-107 -45q-49 -20 -70.5 -50t-21.5 -77z" />
<glyph unicode="&#xab;" horiz-adv-x="937" d="M59 557v12l385 402h78l-219 -408l219 -407h-78zM418 557v12l385 402h78l-219 -408l219 -407h-78z" />
<glyph unicode="&#xad;" horiz-adv-x="655" d="M61 559v129h533v-129h-533z" />
<glyph unicode="&#xae;" horiz-adv-x="1054" d="M61 991q0 196 132.5 331.5t332.5 135.5q133 0 240.5 -63t167 -169.5t59.5 -234.5q0 -195 -133 -330t-334 -135q-200 0 -332.5 135.5t-132.5 329.5zM119 991q0 -170 115.5 -290.5t291.5 -120.5q177 0 293.5 120.5t116.5 290.5q0 172 -116.5 293t-293.5 121 q-116 0 -210 -56.5t-145.5 -151t-51.5 -206.5zM307 760v33q34 0 46 10.5t12 40.5v313q0 31 -11 39.5t-47 11.5v35h228q95 0 144.5 -39.5t49.5 -101.5q0 -52 -34.5 -86.5t-82.5 -46.5l88 -119q21 -30 38.5 -43t47.5 -14v-33h-131q-30 16 -71 78l-80 118h-31v-112 q0 -31 11 -41t44 -10v-33h-221zM473 995h37q49 0 75.5 28t26.5 79q0 46 -26.5 72t-75.5 26h-37v-205z" />
<glyph unicode="&#xaf;" horiz-adv-x="1024" d="M236 1278v139h550v-139h-550z" />
<glyph unicode="&#xb0;" horiz-adv-x="573" d="M41 1214q0 103 71.5 173.5t174.5 70.5t174 -70.5t71 -173.5q0 -102 -71 -171.5t-174 -69.5t-174.5 69.5t-71.5 171.5zM133 1214q0 -73 41.5 -118t112.5 -45t112 45t41 118t-41 118.5t-112 45.5t-112.5 -45.5t-41.5 -118.5z" />
<glyph unicode="&#xb1;" horiz-adv-x="1165" d="M133 289v121h899v-121h-899zM133 821v119h389v299h119v-299h391v-119h-391v-297h-119v297h-389z" />
<glyph unicode="&#xb2;" horiz-adv-x="780" d="M61 625v41l224 211q92 90 129 154.5t37 137.5q0 69 -37.5 107.5t-106.5 38.5q-108 0 -192 -96l-35 28q46 90 126.5 148.5t190.5 58.5q115 0 179.5 -62t64.5 -171q0 -25 -5.5 -50t-12.5 -45.5t-24 -45.5t-28 -41t-38.5 -42t-41.5 -39t-49.5 -41t-50.5 -39.5t-57.5 -43 t-57.5 -43.5h218q60 0 87 17.5t66 84.5h37l-25 -268h-598z" />
<glyph unicode="&#xb3;" horiz-adv-x="763" d="M76 786q0 33 15.5 57t37.5 34h117q-8 -27 -8 -56q0 -75 33 -115t98 -40q63 0 98 42.5t35 122.5q0 87 -52 132t-149 45h-31l-10 39q98 35 142 73t44 94q0 49 -31 81t-91 32q-106 0 -168 -100l-45 28q42 90 119 146.5t186 56.5q103 0 160 -49t57 -131q0 -78 -61 -127.5 t-148 -69.5q118 -6 188 -66.5t70 -158.5q0 -114 -93.5 -178t-230.5 -64q-136 0 -209 49t-73 123z" />
<glyph unicode="&#xb4;" horiz-adv-x="1024" d="M299 1223l113 340h288v-15l-329 -325h-72z" />
<glyph unicode="&#xb5;" horiz-adv-x="1230" d="M8 965v61l377 78h45l-10 -244v-512q0 -198 160 -198q56 0 102.5 19t105.5 58v617q0 54 -18.5 79t-75.5 35l-30 7v61l372 78h45l-8 -240v-647q0 -57 13.5 -75.5t68.5 -22.5l51 -4v-62l-372 -73h-52l6 196q-130 -196 -307 -196q-57 0 -84 34l27 -368v-29l-289 -20v1247 q0 54 -18.5 79t-75.5 35z" />
<glyph unicode="&#xb6;" horiz-adv-x="1255" d="M100 942q0 218 144.5 357t408.5 139h551v-72q-59 -1 -94.5 -6.5t-63.5 -21.5t-39.5 -45t-11.5 -76v-1620h-88v1765h-168v-1765h-86v835q-133 0 -239.5 40.5t-174.5 110.5t-103.5 161.5t-35.5 197.5zM377 942q0 -62 9.5 -121.5t30.5 -116t52.5 -99.5t78.5 -70t105 -29v858 q-58 -2 -105 -27.5t-78.5 -66.5t-52.5 -95t-30.5 -112.5t-9.5 -120.5z" />
<glyph unicode="&#xb7;" horiz-adv-x="481" d="M61 621q0 77 52.5 128.5t126.5 51.5q76 0 128 -51.5t52 -128.5q0 -76 -52.5 -127.5t-127.5 -51.5q-74 0 -126.5 51.5t-52.5 127.5z" />
<glyph unicode="&#xb8;" horiz-adv-x="1024" d="M307 -399q107 0 167.5 29t60.5 73q0 42 -41.5 60.5t-128.5 21.5l94 231h65l-43 -106q97 0 154 -41.5t57 -118.5q0 -105 -103.5 -159t-266.5 -54z" />
<glyph unicode="&#xb9;" horiz-adv-x="681" d="M82 629v59q103 6 130.5 19t27.5 65v475h-158v49l51 11q89 14 144 49t108 102h53v-686q0 -51 29 -64t127 -20v-59h-512z" />
<glyph unicode="&#xba;" horiz-adv-x="811" d="M57 1077q0 171 99.5 276t255.5 105q153 0 247.5 -97t94.5 -253q0 -173 -99.5 -278t-255.5 -105q-153 0 -247.5 97.5t-94.5 254.5zM258 1114q0 -144 39.5 -237t114.5 -93q70 0 105.5 76t35.5 209q0 93 -16 165.5t-51.5 118.5t-86.5 46q-70 0 -105.5 -75.5t-35.5 -209.5z " />
<glyph unicode="&#xbb;" horiz-adv-x="937" d="M59 156l220 407l-220 408h76l387 -402v-12l-387 -401h-76zM418 156l219 407l-219 408h76l387 -402v-12l-387 -401h-76z" />
<glyph unicode="&#xbc;" horiz-adv-x="1591" d="M82 629v59q103 6 130.5 19t27.5 65v475h-158v49l51 11q90 18 145.5 52t106.5 99h53v-686q0 -51 29 -64t127 -20v-59h-512zM305 -20l897 1478h94l-897 -1478h-94zM758 217v49l442 553h146v-534h161v-68h-161v-76q0 -51 21.5 -64.5t98.5 -19.5v-57h-438v57q78 6 99.5 19.5 t21.5 64.5v76h-391zM860 285h289v356z" />
<glyph unicode="&#xbd;" horiz-adv-x="1626" d="M82 629v59q103 6 130.5 19t27.5 65v475h-158v49l51 11q89 14 144 49t108 102h53v-686q0 -51 29 -64t127 -20v-59h-512zM305 -20l897 1478h94l-897 -1478h-94zM907 0v39l223 213q92 90 129 155t37 136q0 69 -37 107t-106 38q-110 0 -192 -94l-33 29q44 88 125 146t190 58 q115 0 179.5 -61t64.5 -170q0 -47 -17.5 -91.5t-43.5 -80t-73 -78.5t-87.5 -74.5t-105.5 -79.5q-25 -18 -38 -28h217q60 0 87 18t67 84h37l-25 -266h-598z" />
<glyph unicode="&#xbe;" horiz-adv-x="1622" d="M76 786q0 33 15.5 57t37.5 34h117q-8 -27 -8 -56q0 -75 33 -115t98 -40q63 0 98 42.5t35 122.5q0 87 -52 132t-149 45h-31l-10 39q98 35 142 73t44 94q0 49 -31 81t-91 32q-106 0 -168 -100l-45 28q42 90 119 146.5t186 56.5q103 0 160 -49t57 -131q0 -77 -60 -124 t-149 -69q119 -4 188.5 -65t69.5 -160q0 -114 -93.5 -180t-230.5 -66q-136 0 -209 49t-73 123zM336 -20l897 1478h94l-897 -1478h-94zM788 217v49l443 553h145v-534h162v-68h-162v-76q0 -51 22 -64.5t99 -19.5v-57h-438v57q78 6 99.5 19.5t21.5 64.5v76h-392zM891 285h289 v356z" />
<glyph unicode="&#xbf;" horiz-adv-x="913" d="M47 102q0 63 20 117.5t61 102t88.5 86.5t115.5 84q89 60 124.5 110.5t35.5 130.5v47h34q48 -30 81.5 -87.5t33.5 -125.5q0 -78 -39.5 -143t-124.5 -131q-50 -38 -75 -60t-56 -57.5t-44 -74.5t-13 -87q0 -90 46.5 -142t131.5 -52q89 0 133.5 61t44.5 152q0 56 -6 104h188 q64 -42 64 -117q0 -118 -118 -191t-302 -73q-198 0 -311 89t-113 257zM332 1065q0 69 50 119.5t120 50.5t120 -50.5t50 -119.5q0 -72 -50 -123t-120 -51t-120 51t-50 123z" />
<glyph unicode="&#xc0;" horiz-adv-x="1490" d="M10 0v72q49 7 77 22t44 53l447 1147l-64 154h320l526 -1301q16 -38 44.5 -53t76.5 -22v-72h-627v72q94 3 133 22.5t39 67.5q0 34 -18 80l-95 231h-551l-88 -229q-18 -47 -18 -80q0 -49 40 -69t136 -23v-72h-422zM375 1821v14h295l106 -305h-76zM395 561h484l-246 617z " />
<glyph unicode="&#xc1;" horiz-adv-x="1490" d="M10 0v72q49 7 77 22t44 53l447 1147l-64 154h320l526 -1301q16 -38 44.5 -53t76.5 -22v-72h-627v72q94 3 133 22.5t39 67.5q0 34 -18 80l-95 231h-551l-88 -229q-18 -47 -18 -80q0 -49 40 -69t136 -23v-72h-422zM395 561h484l-246 617zM616 1530l107 305h295v-14 l-326 -291h-76z" />
<glyph unicode="&#xc2;" horiz-adv-x="1490" d="M10 0v72q49 7 77 22t44 53l447 1147l-64 154h320l526 -1301q16 -38 44.5 -53t76.5 -22v-72h-627v72q94 3 133 22.5t39 67.5q0 34 -18 80l-95 231h-551l-88 -229q-18 -47 -18 -80q0 -49 40 -69t136 -23v-72h-422zM350 1530l256 319h197l256 -319h-82l-272 168l-273 -168 h-82zM395 561h484l-246 617z" />
<glyph unicode="&#xc3;" horiz-adv-x="1490" d="M10 0v72q49 7 77 22t44 53l447 1147l-64 154h320l526 -1301q16 -38 44.5 -53t76.5 -22v-72h-627v72q94 3 133 22.5t39 67.5q0 34 -18 80l-95 231h-551l-88 -229q-18 -47 -18 -80q0 -49 40 -69t136 -23v-72h-422zM354 1567q56 139 107 198.5t125 59.5q40 0 82 -19 t72 -42.5t66 -42.5t66 -19q43 0 76.5 28.5t67.5 88.5l55 -33q-57 -139 -106.5 -197.5t-124.5 -58.5q-40 0 -82.5 19t-72 41.5t-66 41.5t-66.5 19q-43 0 -76 -28t-67 -87zM395 561h484l-246 617z" />
<glyph unicode="&#xc4;" horiz-adv-x="1490" d="M10 0v72q49 7 77 22t44 53l447 1147l-64 154h320l526 -1301q16 -38 44.5 -53t76.5 -22v-72h-627v72q94 3 133 22.5t39 67.5q0 34 -18 80l-95 231h-551l-88 -229q-18 -47 -18 -80q0 -49 40 -69t136 -23v-72h-422zM352 1683q0 62 43.5 106t104.5 44q63 0 107 -44t44 -106 q0 -61 -44.5 -105t-106.5 -44q-61 0 -104.5 44.5t-43.5 104.5zM395 561h484l-246 617zM760 1683q0 62 43 106t104 44q64 0 108 -44t44 -106q0 -61 -44 -105t-108 -44q-61 0 -104 44t-43 105z" />
<glyph unicode="&#xc5;" horiz-adv-x="1490" d="M10 0v72q49 7 77 22t44 53l447 1147l-64 154h320l526 -1301q16 -38 44.5 -53t76.5 -22v-72h-627v72q94 3 133 22.5t39 67.5q0 34 -18 80l-95 231h-551l-88 -229q-18 -47 -18 -80q0 -49 40 -69t136 -23v-72h-422zM395 561h484l-246 617zM496 1688q0 82 56 137t140 55 t138.5 -55t54.5 -137t-54.5 -137.5t-138.5 -55.5t-140 55.5t-56 137.5zM586 1688q0 -49 27.5 -80t78.5 -31q50 0 78.5 31t28.5 80t-28.5 79.5t-78.5 30.5q-51 0 -78.5 -30.5t-27.5 -79.5z" />
<glyph unicode="&#xc6;" horiz-adv-x="2091" d="M10 0v72q43 6 69 22t52 53l735 1143q-35 66 -204 76v72h1308l10 -369h-61q-75 171 -138.5 229t-185.5 58h-286v-570h260q67 0 97 43.5t44 145.5h74v-465h-74q-14 102 -44 144t-97 42h-260v-475q0 -80 42 -109.5t140 -29.5h129q50 0 89 12t69 32t64.5 64.5t62.5 90 t75 129.5h72l-63 -410h-1143v72q109 12 136.5 35t27.5 106v293h-533l-168 -262q-33 -54 -33 -84q0 -85 191 -88v-72h-457zM535 594h475v739z" />
<glyph unicode="&#xc7;" horiz-adv-x="1343" d="M61 684q0 174 56 320.5t153 245t229.5 153.5t284.5 55q267 0 453 -121l2 -329h-78q-75 364 -368 364q-137 0 -232 -86.5t-138.5 -226t-43.5 -318.5q0 -193 48.5 -343.5t147.5 -240t236 -89.5q148 0 245 99.5t150 319.5h82l-31 -385q-189 -122 -473 -122q-4 0 -10.5 1 t-9.5 1l-29 -72q97 0 154 -41.5t57 -118.5q0 -105 -104 -159t-267 -54l-14 64q107 0 167 29t60 73q0 42 -41.5 60.5t-128.5 21.5l80 199q-296 25 -466.5 213.5t-170.5 486.5z" />
<glyph unicode="&#xc8;" horiz-adv-x="1300" d="M55 0v72q109 12 136.5 35t27.5 106v1012q0 83 -27.5 106t-136.5 35v72h1125l10 -369h-60q-40 88 -70 139.5t-67.5 87t-80 48t-105.5 12.5h-287v-570h260q65 0 95.5 43.5t46.5 145.5h71v-465h-71q-16 102 -46 144t-96 42h-260v-475q0 -81 41.5 -110t140.5 -29h127 q50 0 89 12t69.5 32t65 64.5t62.5 90.5t75 129h72l-64 -410h-1143zM383 1821v14h295l106 -305h-75z" />
<glyph unicode="&#xc9;" horiz-adv-x="1300" d="M55 0v72q109 12 136.5 35t27.5 106v1012q0 83 -27.5 106t-136.5 35v72h1125l10 -369h-60q-40 88 -70 139.5t-67.5 87t-80 48t-105.5 12.5h-287v-570h260q65 0 95.5 43.5t46.5 145.5h71v-465h-71q-16 102 -46 144t-96 42h-260v-475q0 -81 41.5 -110t140.5 -29h127 q50 0 89 12t69.5 32t65 64.5t62.5 90.5t75 129h72l-64 -410h-1143zM600 1530l107 305h294v-14l-325 -291h-76z" />
<glyph unicode="&#xca;" horiz-adv-x="1300" d="M55 0v72q109 12 136.5 35t27.5 106v1012q0 83 -27.5 106t-136.5 35v72h1125l10 -369h-60q-40 88 -70 139.5t-67.5 87t-80 48t-105.5 12.5h-287v-570h260q65 0 95.5 43.5t46.5 145.5h71v-465h-71q-16 102 -46 144t-96 42h-260v-475q0 -81 41.5 -110t140.5 -29h127 q50 0 89 12t69.5 32t65 64.5t62.5 90.5t75 129h72l-64 -410h-1143zM334 1530l256 319h196l256 -319h-81l-273 168l-272 -168h-82z" />
<glyph unicode="&#xcb;" horiz-adv-x="1300" d="M55 0v72q109 12 136.5 35t27.5 106v1012q0 83 -27.5 106t-136.5 35v72h1125l10 -369h-60q-40 88 -70 139.5t-67.5 87t-80 48t-105.5 12.5h-287v-570h260q65 0 95.5 43.5t46.5 145.5h71v-465h-71q-16 102 -46 144t-96 42h-260v-475q0 -81 41.5 -110t140.5 -29h127 q50 0 89 12t69.5 32t65 64.5t62.5 90.5t75 129h72l-64 -410h-1143zM336 1683q0 62 43 106t104 44q63 0 107.5 -44t44.5 -106q0 -60 -44.5 -104.5t-107.5 -44.5q-61 0 -104 44t-43 105zM743 1683q0 62 43.5 106t104.5 44q64 0 107.5 -44t43.5 -106q0 -61 -43.5 -105 t-107.5 -44q-61 0 -104.5 44.5t-43.5 104.5z" />
<glyph unicode="&#xcc;" horiz-adv-x="739" d="M55 0v72q109 12 136.5 35t27.5 106v1012q0 83 -27.5 106t-136.5 35v72h629v-72q-109 -12 -136.5 -35t-27.5 -106v-1012q0 -83 27.5 -106t136.5 -35v-72h-629zM61 1821v14h295l107 -305h-76z" />
<glyph unicode="&#xcd;" horiz-adv-x="739" d="M55 0v72q109 12 136.5 35t27.5 106v1012q0 83 -27.5 106t-136.5 35v72h629v-72q-109 -12 -136.5 -35t-27.5 -106v-1012q0 -83 27.5 -106t136.5 -35v-72h-629zM281 1530l106 305h295v-14l-326 -291h-75z" />
<glyph unicode="&#xce;" horiz-adv-x="739" d="M35 1530l241 319h187l244 -319h-78l-258 168l-258 -168h-78zM55 0v72q109 12 136.5 35t27.5 106v1012q0 83 -27.5 106t-136.5 35v72h629v-72q-109 -12 -136.5 -35t-27.5 -106v-1012q0 -83 27.5 -106t136.5 -35v-72h-629z" />
<glyph unicode="&#xcf;" horiz-adv-x="739" d="M16 1683q0 62 43.5 106t104.5 44q63 0 107 -44t44 -106q0 -61 -44.5 -105t-106.5 -44q-61 0 -104.5 44.5t-43.5 104.5zM55 0v72q109 12 136.5 35t27.5 106v1012q0 83 -27.5 106t-136.5 35v72h629v-72q-109 -12 -136.5 -35t-27.5 -106v-1012q0 -83 27.5 -106t136.5 -35 v-72h-629zM424 1683q0 62 43 106t104 44q64 0 108 -44t44 -106q0 -61 -44 -105t-108 -44q-61 0 -104 44t-43 105z" />
<glyph unicode="&#xd0;" horiz-adv-x="1554" d="M76 0v72q109 12 136.5 35t27.5 106v473h-164v98h164v441q0 83 -27.5 106t-136.5 35v72h629q159 0 290 -35.5t222.5 -98t154 -150t92 -189.5t29.5 -217q0 -174 -56 -316t-155.5 -236t-237.5 -145t-301 -51h-667zM541 227q0 -87 36 -116t123 -29h37q197 0 318 166t121 457 q0 112 -19.5 209t-61 178.5t-103 140t-148.5 91t-193 32.5h-110v-572h278v-98h-278v-459z" />
<glyph unicode="&#xd1;" horiz-adv-x="1529" d="M55 1366v72h420l746 -949v734q0 82 -38 107t-167 36v72h477v-72q-108 -12 -136 -36t-28 -107v-1227h-100l-897 1132v-913q0 -82 37.5 -107t165.5 -36v-72h-478v72q109 12 136.5 36t27.5 107v1024q-50 72 -81.5 98t-84.5 29zM446 1567q56 139 107 198.5t125 59.5 q40 0 82.5 -19t72 -42.5t66 -42.5t66.5 -19q43 0 76 28.5t67 88.5l55 -33q-57 -139 -106.5 -197.5t-124.5 -58.5q-40 0 -82.5 19t-72 41.5t-66 41.5t-66.5 19q-43 0 -76 -28t-67 -87z" />
<glyph unicode="&#xd2;" d="M61 690q0 173 53 317.5t145 243t219 153t274 54.5q157 0 285 -57.5t210 -156t126 -226t44 -270.5q0 -173 -52.5 -317.5t-145 -243t-219 -153t-273.5 -54.5q-127 0 -235.5 37.5t-187 104t-134 156t-82.5 194t-27 218.5zM381 731q0 -132 22 -249t65 -212.5t115 -151 t165 -55.5q88 0 156 53.5t109 145t62 204.5t21 241q0 132 -21.5 249t-64.5 212t-115.5 150.5t-165.5 55.5q-87 0 -155 -53t-109.5 -144.5t-62.5 -204.5t-21 -241zM436 1821v14h295l107 -305h-76z" />
<glyph unicode="&#xd3;" d="M61 690q0 173 53 317.5t145 243t219 153t274 54.5q157 0 285 -57.5t210 -156t126 -226t44 -270.5q0 -173 -52.5 -317.5t-145 -243t-219 -153t-273.5 -54.5q-127 0 -235.5 37.5t-187 104t-134 156t-82.5 194t-27 218.5zM381 731q0 -132 22 -249t65 -212.5t115 -151 t165 -55.5q88 0 156 53.5t109 145t62 204.5t21 241q0 132 -21.5 249t-64.5 212t-115.5 150.5t-165.5 55.5q-87 0 -155 -53t-109.5 -144.5t-62.5 -204.5t-21 -241zM655 1530l107 305h295v-14l-326 -291h-76z" />
<glyph unicode="&#xd4;" d="M61 690q0 173 53 317.5t145 243t219 153t274 54.5q157 0 285 -57.5t210 -156t126 -226t44 -270.5q0 -173 -52.5 -317.5t-145 -243t-219 -153t-273.5 -54.5q-127 0 -235.5 37.5t-187 104t-134 156t-82.5 194t-27 218.5zM381 731q0 -132 22 -249t65 -212.5t115 -151 t165 -55.5q88 0 156 53.5t109 145t62 204.5t21 241q0 132 -21.5 249t-64.5 212t-115.5 150.5t-165.5 55.5q-87 0 -155 -53t-109.5 -144.5t-62.5 -204.5t-21 -241zM389 1530l256 319h197l256 -319h-82l-273 168l-272 -168h-82z" />
<glyph unicode="&#xd5;" d="M61 690q0 173 53 317.5t145 243t219 153t274 54.5q157 0 285 -57.5t210 -156t126 -226t44 -270.5q0 -173 -52.5 -317.5t-145 -243t-219 -153t-273.5 -54.5q-127 0 -235.5 37.5t-187 104t-134 156t-82.5 194t-27 218.5zM381 731q0 -132 22 -249t65 -212.5t115 -151 t165 -55.5q88 0 156 53.5t109 145t62 204.5t21 241q0 132 -21.5 249t-64.5 212t-115.5 150.5t-165.5 55.5q-87 0 -155 -53t-109.5 -144.5t-62.5 -204.5t-21 -241zM408 1567q57 140 107 199t124 59q40 0 82.5 -19t72 -42.5t66 -42.5t66.5 -19q43 0 76 28.5t67 88.5l55 -33 q-57 -139 -106.5 -197.5t-124.5 -58.5q-40 0 -82.5 19t-72 41.5t-66 41.5t-66.5 19q-43 0 -76 -28t-67 -87z" />
<glyph unicode="&#xd6;" d="M61 690q0 173 53 317.5t145 243t219 153t274 54.5q157 0 285 -57.5t210 -156t126 -226t44 -270.5q0 -173 -52.5 -317.5t-145 -243t-219 -153t-273.5 -54.5q-127 0 -235.5 37.5t-187 104t-134 156t-82.5 194t-27 218.5zM381 731q0 -132 22 -249t65 -212.5t115 -151 t165 -55.5q88 0 156 53.5t109 145t62 204.5t21 241q0 132 -21.5 249t-64.5 212t-115.5 150.5t-165.5 55.5q-87 0 -155 -53t-109.5 -144.5t-62.5 -204.5t-21 -241zM391 1683q0 62 43.5 106t104.5 44q63 0 107 -44t44 -106q0 -61 -44 -105t-107 -44q-61 0 -104.5 44.5 t-43.5 104.5zM799 1683q0 62 43 106t104 44q64 0 108 -44t44 -106q0 -61 -44 -105t-108 -44q-61 0 -104 44t-43 105z" />
<glyph unicode="&#xd7;" horiz-adv-x="1009" d="M135 463l287 287l-287 286l82 82l287 -289l287 289l83 -82l-286 -286l286 -287l-83 -84l-287 289l-287 -289z" />
<glyph unicode="&#xd8;" d="M61 690q0 173 53 317.5t145 243t219 153t274 54.5q223 0 387 -119l129 185l67 -49l-131 -187q103 -99 158 -239.5t55 -300.5q0 -173 -52.5 -317.5t-145 -243t-219 -153t-273.5 -54.5q-211 0 -367 100l-137 -195l-67 47l137 199q-113 98 -172.5 244.5t-59.5 314.5z M381 731q0 -225 57 -393l576 821q-46 101 -118 158t-167 57q-87 0 -155 -53t-109.5 -144.5t-62.5 -204.5t-21 -241zM477 248q97 -185 271 -185q88 0 156 53.5t109 145t62 204.5t21 241q0 197 -47 358z" />
<glyph unicode="&#xd9;" horiz-adv-x="1501" d="M25 1366v72h626v-72q-109 -12 -136.5 -35t-27.5 -106v-705q0 -191 84 -296t250 -105q178 0 279.5 100.5t101.5 312.5v691q0 44 -6 67.5t-28.5 40t-57.5 23t-102 12.5v72h469v-72q-108 -12 -136 -36t-28 -107v-727q0 -103 -27.5 -188.5t-77 -145.5t-118 -101.5t-149.5 -61 t-173 -19.5q-277 0 -428.5 130.5t-151.5 389.5v725q0 84 -27 106.5t-136 34.5zM506 1821v14h295l106 -305h-76z" />
<glyph unicode="&#xda;" horiz-adv-x="1501" d="M25 1366v72h626v-72q-109 -12 -136.5 -35t-27.5 -106v-705q0 -191 84 -296t250 -105q178 0 279.5 100.5t101.5 312.5v691q0 44 -6 67.5t-28.5 40t-57.5 23t-102 12.5v72h469v-72q-108 -12 -136 -36t-28 -107v-727q0 -103 -27.5 -188.5t-77 -145.5t-118 -101.5t-149.5 -61 t-173 -19.5q-277 0 -428.5 130.5t-151.5 389.5v725q0 84 -27 106.5t-136 34.5zM725 1530l106 305h295v-14l-325 -291h-76z" />
<glyph unicode="&#xdb;" horiz-adv-x="1501" d="M25 1366v72h626v-72q-109 -12 -136.5 -35t-27.5 -106v-705q0 -191 84 -296t250 -105q178 0 279.5 100.5t101.5 312.5v691q0 44 -6 67.5t-28.5 40t-57.5 23t-102 12.5v72h469v-72q-108 -12 -136 -36t-28 -107v-727q0 -103 -27.5 -188.5t-77 -145.5t-118 -101.5t-149.5 -61 t-173 -19.5q-277 0 -428.5 130.5t-151.5 389.5v725q0 84 -27 106.5t-136 34.5zM459 1530l256 319h196l256 -319h-82l-272 168l-272 -168h-82z" />
<glyph unicode="&#xdc;" horiz-adv-x="1501" d="M25 1366v72h626v-72q-109 -12 -136.5 -35t-27.5 -106v-705q0 -191 84 -296t250 -105q178 0 279.5 100.5t101.5 312.5v691q0 44 -6 67.5t-28.5 40t-57.5 23t-102 12.5v72h469v-72q-108 -12 -136 -36t-28 -107v-727q0 -103 -27.5 -188.5t-77 -145.5t-118 -101.5t-149.5 -61 t-173 -19.5q-277 0 -428.5 130.5t-151.5 389.5v725q0 84 -27 106.5t-136 34.5zM461 1683q0 62 43 106t104 44q63 0 107.5 -44t44.5 -106q0 -60 -44.5 -104.5t-107.5 -44.5q-61 0 -104 44t-43 105zM868 1683q0 62 43.5 106t104.5 44q64 0 107.5 -44t43.5 -106 q0 -61 -43.5 -105t-107.5 -44q-61 0 -104.5 44.5t-43.5 104.5z" />
<glyph unicode="&#xdd;" horiz-adv-x="1363" d="M10 1366v72h617v-72q-93 -3 -126.5 -18.5t-33.5 -55.5q0 -7 1 -14.5t2 -13t4.5 -14t4.5 -12t6.5 -14t7 -13t8.5 -15.5t9 -16l285 -498l266 494q43 88 43 116q0 39 -36.5 55t-125.5 19v72h412v-72q-45 -6 -73.5 -22.5t-47.5 -53.5l-399 -733v-350q0 -24 3.5 -42t8 -31 t17.5 -22.5t23 -15t34.5 -10.5t41.5 -7.5t54 -6.5v-72h-658v72q51 6 73.5 9.5t50 12t37.5 22t17 35.5t7 56v346l-412 737q-22 39 -48.5 54.5t-72.5 21.5zM653 1530l107 305h295v-14l-326 -291h-76z" />
<glyph unicode="&#xde;" horiz-adv-x="1282" d="M55 0v72q109 12 136.5 35t27.5 106v1012q0 83 -27.5 106t-136.5 35v72h629v-72q-109 -12 -136.5 -35t-27.5 -106v-60h162q140 0 250 -33.5t177.5 -92.5t102.5 -135t35 -165q0 -206 -144 -323t-425 -117h-158v-72q0 -84 50 -114t196 -39v-74h-711zM520 387h88 q167 0 249.5 90t82.5 256q0 159 -85.5 254.5t-246.5 95.5h-88v-696z" />
<glyph unicode="&#xdf;" horiz-adv-x="1368" d="M23 991v56l151 49v45q12 224 152 343.5t358 119.5q189 0 303.5 -84.5t114.5 -216.5q0 -66 -30 -120.5t-72 -89.5t-84.5 -65.5t-72.5 -63.5t-30 -67q0 -19 9.5 -36t35.5 -36.5t45.5 -31.5t68.5 -40.5t75 -43.5q54 -32 90.5 -57t73.5 -60t59 -70.5t35.5 -84t13.5 -105.5 q0 -157 -113.5 -254.5t-281.5 -97.5q-204 0 -328 108l-12 268h78q31 -135 99.5 -219t168.5 -84q83 0 129.5 45t46.5 123q0 84 -52 136.5t-182 127.5q-121 69 -173 131.5t-52 151.5q0 54 26.5 105t64 94t75 89t64 110.5t26.5 138.5q0 107 -54 170t-159 63q-116 0 -174.5 -89 t-58.5 -255v-1194h-412v68q74 5 100.5 21.5t26.5 68.5v833h-149z" />
<glyph unicode="&#xe0;" horiz-adv-x="1073" d="M47 248q0 64 21 113.5t63 84.5t87 59t110 48l309 113v174q0 200 -145 200q-70 0 -104 -47t-34 -125q0 -50 17 -127l-170 -22q-90 29 -90 129q0 123 113 190.5t290 67.5q202 0 304 -80t102 -256v-543q0 -57 14.5 -85.5t52.5 -28.5q36 0 82 20l12 -45q-91 -108 -233 -108 q-83 0 -136.5 47.5t-68.5 132.5q-135 -176 -319 -176q-126 0 -201.5 71t-75.5 193zM221 1548v15h289l113 -340h-72zM322 326q0 -84 39 -133.5t118 -49.5q42 0 77 15.5t81 50.5v383l-176 -72q-70 -27 -104.5 -70t-34.5 -124z" />
<glyph unicode="&#xe1;" horiz-adv-x="1073" d="M47 248q0 64 21 113.5t63 84.5t87 59t110 48l309 113v174q0 200 -145 200q-70 0 -104 -47t-34 -125q0 -50 17 -127l-170 -22q-90 29 -90 129q0 123 113 190.5t290 67.5q202 0 304 -80t102 -256v-543q0 -57 14.5 -85.5t52.5 -28.5q36 0 82 20l12 -45q-91 -108 -233 -108 q-83 0 -136.5 47.5t-68.5 132.5q-135 -176 -319 -176q-126 0 -201.5 71t-75.5 193zM322 326q0 -84 39 -133.5t118 -49.5q42 0 77 15.5t81 50.5v383l-176 -72q-70 -27 -104.5 -70t-34.5 -124zM436 1223l113 340h289v-15l-330 -325h-72z" />
<glyph unicode="&#xe2;" horiz-adv-x="1073" d="M47 248q0 64 21 113.5t63 84.5t87 59t110 48l309 113v174q0 200 -145 200q-70 0 -104 -47t-34 -125q0 -50 17 -127l-170 -22q-90 29 -90 129q0 123 113 190.5t290 67.5q202 0 304 -80t102 -256v-543q0 -57 14.5 -85.5t52.5 -28.5q36 0 82 20l12 -45q-91 -108 -233 -108 q-83 0 -136.5 47.5t-68.5 132.5q-135 -176 -319 -176q-126 0 -201.5 71t-75.5 193zM195 1217l233 350h197l233 -350h-88l-244 196l-243 -196h-88zM322 326q0 -84 39 -133.5t118 -49.5q42 0 77 15.5t81 50.5v383l-176 -72q-70 -27 -104.5 -70t-34.5 -124z" />
<glyph unicode="&#xe3;" horiz-adv-x="1073" d="M47 248q0 64 21 113.5t63 84.5t87 59t110 48l309 113v174q0 200 -145 200q-70 0 -104 -47t-34 -125q0 -50 17 -127l-170 -22q-90 29 -90 129q0 123 113 190.5t290 67.5q202 0 304 -80t102 -256v-543q0 -57 14.5 -85.5t52.5 -28.5q36 0 82 20l12 -45q-91 -108 -233 -108 q-83 0 -136.5 47.5t-68.5 132.5q-135 -176 -319 -176q-126 0 -201.5 71t-75.5 193zM182 1270q60 142 106.5 199t119.5 57q41 0 81.5 -19t68 -41.5t62 -41.5t64.5 -19q42 0 72.5 27t64.5 88l56 -31q-58 -142 -105 -200t-121 -58q-40 0 -80.5 19t-68 42.5t-62.5 42.5t-65 19 q-41 0 -71.5 -28t-63.5 -87zM322 326q0 -84 39 -133.5t118 -49.5q42 0 77 15.5t81 50.5v383l-176 -72q-70 -27 -104.5 -70t-34.5 -124z" />
<glyph unicode="&#xe4;" horiz-adv-x="1073" d="M47 248q0 64 21 113.5t63 84.5t87 59t110 48l309 113v174q0 200 -145 200q-70 0 -104 -47t-34 -125q0 -50 17 -127l-170 -22q-90 29 -90 129q0 123 113 190.5t290 67.5q202 0 304 -80t102 -256v-543q0 -57 14.5 -85.5t52.5 -28.5q36 0 82 20l12 -45q-91 -108 -233 -108 q-83 0 -136.5 47.5t-68.5 132.5q-135 -176 -319 -176q-126 0 -201.5 71t-75.5 193zM178 1391q0 61 44 105t106 44q63 0 107 -43.5t44 -105.5t-44 -106t-107 -44q-62 0 -106 44.5t-44 105.5zM322 326q0 -84 39 -133.5t118 -49.5q42 0 77 15.5t81 50.5v383l-176 -72 q-70 -27 -104.5 -70t-34.5 -124zM575 1391q0 61 44 105t104 44q64 0 107.5 -43.5t43.5 -105.5t-43.5 -106t-107.5 -44q-60 0 -104 44.5t-44 105.5z" />
<glyph unicode="&#xe5;" horiz-adv-x="1073" d="M47 248q0 64 21 113.5t63 84.5t87 59t110 48l309 113v174q0 200 -145 200q-70 0 -104 -47t-34 -125q0 -50 17 -127l-170 -22q-90 29 -90 129q0 123 113 190.5t290 67.5q202 0 304 -80t102 -256v-543q0 -57 14.5 -85.5t52.5 -28.5q36 0 82 20l12 -45q-91 -108 -233 -108 q-83 0 -136.5 47.5t-68.5 132.5q-135 -176 -319 -176q-126 0 -201.5 71t-75.5 193zM322 326q0 -84 39 -133.5t118 -49.5q42 0 77 15.5t81 50.5v383l-176 -72q-70 -27 -104.5 -70t-34.5 -124zM330 1362q0 83 55.5 137.5t140.5 54.5q84 0 138.5 -54t54.5 -138 q0 -81 -54.5 -136t-138.5 -55t-140 55.5t-56 135.5zM420 1362q0 -48 28 -79.5t78 -31.5q49 0 78 32t29 79q0 51 -28.5 82t-78.5 31q-51 0 -78.5 -31t-27.5 -82z" />
<glyph unicode="&#xe6;" horiz-adv-x="1562" d="M47 248q0 64 21 113.5t63 84.5t87 59t110 48l293 102q9 52 24 97q0 132 -41 210t-123 78q-63 0 -95 -47t-32 -125q0 -50 17 -127l-170 -22q-90 29 -90 129q0 82 53.5 141.5t140 88t195.5 28.5q209 0 293 -121q130 121 313 121q196 0 305 -121.5t109 -312.5v-45h-656 q-6 -210 86 -331.5t248 -121.5q183 0 299 166l33 -18q-39 -157 -152.5 -249.5t-285.5 -92.5q-125 0 -224 49.5t-163 140.5q-72 -86 -161.5 -136t-213.5 -50q-130 0 -206.5 71t-76.5 193zM322 326q0 -84 41.5 -133.5t128.5 -49.5q88 0 186 70q-70 128 -70 301q0 44 2 64 l-139 -54q-77 -30 -113 -73t-36 -125zM868 702h398q0 153 -45 240.5t-140 87.5q-96 0 -148 -89t-65 -239z" />
<glyph unicode="&#xe7;" horiz-adv-x="966" d="M45 506q0 128 37.5 238t105.5 190t168 126t219 46q155 0 247.5 -62t92.5 -178q0 -48 -21.5 -84.5t-55.5 -52.5h-156q8 66 8 100q0 199 -149 199q-114 0 -180 -114t-66 -289q0 -203 88 -323t242 -120q183 0 286 152l35 -21q-47 -165 -156 -249t-268 -84h-28l-29 -70 q97 0 154 -41.5t57 -118.5q0 -105 -104 -159t-267 -54l-14 64q107 0 167 29t60 73q0 42 -41.5 60.5t-128.5 21.5l82 203q-173 31 -279 169.5t-106 348.5z" />
<glyph unicode="&#xe8;" horiz-adv-x="1013" d="M47 514q0 129 39.5 240t108 188t161.5 120.5t197 43.5q200 0 309 -118.5t109 -309.5v-47h-668q-6 -211 90 -334t250 -123q101 0 174 41.5t131 124.5l33 -18q-41 -158 -153.5 -250t-284.5 -92q-222 0 -359 148.5t-137 385.5zM262 1548v15h289l113 -340h-72zM307 707h410 q0 323 -185 323q-98 0 -155 -88t-70 -235z" />
<glyph unicode="&#xe9;" horiz-adv-x="1013" d="M47 514q0 129 39.5 240t108 188t161.5 120.5t197 43.5q200 0 309 -118.5t109 -309.5v-47h-668q-6 -211 90 -334t250 -123q101 0 174 41.5t131 124.5l33 -18q-41 -158 -153.5 -250t-284.5 -92q-222 0 -359 148.5t-137 385.5zM307 707h410q0 323 -185 323q-98 0 -155 -88 t-70 -235zM475 1223l113 340h289v-15l-330 -325h-72z" />
<glyph unicode="&#xea;" horiz-adv-x="1013" d="M47 514q0 129 39.5 240t108 188t161.5 120.5t197 43.5q200 0 309 -118.5t109 -309.5v-47h-668q-6 -211 90 -334t250 -123q101 0 174 41.5t131 124.5l33 -18q-41 -158 -153.5 -250t-284.5 -92q-222 0 -359 148.5t-137 385.5zM227 1217l234 350h196l234 -350h-88l-244 196 l-244 -196h-88zM307 707h410q0 323 -185 323q-98 0 -155 -88t-70 -235z" />
<glyph unicode="&#xeb;" horiz-adv-x="1013" d="M47 514q0 129 39.5 240t108 188t161.5 120.5t197 43.5q200 0 309 -118.5t109 -309.5v-47h-668q-6 -211 90 -334t250 -123q101 0 174 41.5t131 124.5l33 -18q-41 -158 -153.5 -250t-284.5 -92q-222 0 -359 148.5t-137 385.5zM211 1391q0 61 43.5 105t105.5 44 q63 0 107.5 -43.5t44.5 -105.5t-44.5 -106t-107.5 -44q-61 0 -105 44t-44 106zM307 707h410q0 323 -185 323q-98 0 -155 -88t-70 -235zM608 1391q0 61 44 105t104 44q64 0 107.5 -43.5t43.5 -105.5t-43.5 -106t-107.5 -44q-60 0 -104 44.5t-44 105.5z" />
<glyph unicode="&#xec;" horiz-adv-x="614" d="M14 1548v15h289l113 -340h-72zM43 0v68q76 5 102.5 21.5t26.5 68.5v725l-123 71v39l361 113h45v-948q0 -52 26.5 -68.5t102.5 -21.5v-68h-541z" />
<glyph unicode="&#xed;" horiz-adv-x="614" d="M43 0v68q76 5 102.5 21.5t26.5 68.5v725l-123 71v39l361 113h45v-948q0 -52 26.5 -68.5t102.5 -21.5v-68h-541zM227 1223l113 340h289v-15l-330 -325h-72z" />
<glyph unicode="&#xee;" horiz-adv-x="614" d="M8 1217l211 350h178l211 -350h-80l-219 196l-221 -196h-80zM43 0v68q76 5 102.5 21.5t26.5 68.5v725l-123 71v39l361 113h45v-948q0 -52 26.5 -68.5t102.5 -21.5v-68h-541z" />
<glyph unicode="&#xef;" horiz-adv-x="614" d="M-33 1391q0 62 43.5 105.5t106.5 43.5t106 -43.5t43 -105.5t-43 -106t-106 -44t-106.5 44t-43.5 106zM43 0v68q76 5 102.5 21.5t26.5 68.5v725l-123 71v39l361 113h45v-948q0 -52 26.5 -68.5t102.5 -21.5v-68h-541zM350 1391q0 61 44 105t106 44q63 0 107 -43.5 t44 -105.5t-44 -106t-107 -44q-62 0 -106 44.5t-44 105.5z" />
<glyph unicode="&#xf0;" horiz-adv-x="1146" d="M45 528q0 129 42 238.5t112 182.5t161.5 114t190.5 41q142 0 219 -105q-61 186 -184 322l-344 -119l-25 72l309 106q-125 116 -299 170l33 58q239 -51 420 -174l235 82l25 -74l-184 -64q170 -139 258 -331.5t88 -403.5q0 -301 -142.5 -482t-386.5 -181 q-237 0 -382.5 152.5t-145.5 395.5zM348 590q0 -157 23.5 -274.5t77.5 -190t133 -72.5q111 0 166 117.5t55 325.5q0 157 -23.5 274t-77.5 188.5t-133 71.5q-111 0 -166 -116t-55 -324z" />
<glyph unicode="&#xf1;" horiz-adv-x="1275" d="M43 0v68q76 5 102.5 21.5t26.5 68.5v725l-123 71v39l367 113h47l-8 -201q79 91 169.5 146t209.5 55q292 0 292 -334v-614q0 -52 26.5 -68.5t100.5 -21.5v-68h-536v68q74 5 99.5 21.5t25.5 68.5v598q0 91 -37.5 134.5t-120.5 43.5q-106 0 -229 -84v-692q0 -52 25.5 -68.5 t99.5 -21.5v-68h-537zM324 1270q60 142 106.5 199t118.5 57q41 0 81.5 -19t68 -41.5t62 -41.5t64.5 -19q42 0 73 27t65 88l55 -31q-58 -143 -104.5 -200.5t-120.5 -57.5q-40 0 -80.5 19t-68 42.5t-63 42.5t-65.5 19q-41 0 -71.5 -28t-63.5 -87z" />
<glyph unicode="&#xf2;" horiz-adv-x="1148" d="M45 518q0 259 151 423.5t382 164.5q235 0 380.5 -149t145.5 -392q0 -171 -69.5 -305t-191 -207t-272.5 -73q-236 0 -381 147.5t-145 390.5zM274 1548v15h289l113 -340h-72zM346 590q0 -156 24 -274t78.5 -190.5t133.5 -72.5q74 0 124 55.5t72.5 153t22.5 234.5 q0 157 -23.5 274t-77.5 188.5t-133 71.5q-111 0 -166 -116t-55 -324z" />
<glyph unicode="&#xf3;" horiz-adv-x="1148" d="M45 518q0 259 151 423.5t382 164.5q235 0 380.5 -149t145.5 -392q0 -171 -69.5 -305t-191 -207t-272.5 -73q-236 0 -381 147.5t-145 390.5zM346 590q0 -156 24 -274t78.5 -190.5t133.5 -72.5q74 0 124 55.5t72.5 153t22.5 234.5q0 157 -23.5 274t-77.5 188.5t-133 71.5 q-111 0 -166 -116t-55 -324zM487 1223l113 340h289v-15l-330 -325h-72z" />
<glyph unicode="&#xf4;" horiz-adv-x="1148" d="M45 518q0 259 151 423.5t382 164.5q235 0 380.5 -149t145.5 -392q0 -171 -69.5 -305t-191 -207t-272.5 -73q-236 0 -381 147.5t-145 390.5zM246 1217l233 350h197l233 -350h-88l-243 196l-244 -196h-88zM346 590q0 -156 24 -274t78.5 -190.5t133.5 -72.5q74 0 124 55.5 t72.5 153t22.5 234.5q0 157 -23.5 274t-77.5 188.5t-133 71.5q-111 0 -166 -116t-55 -324z" />
<glyph unicode="&#xf5;" horiz-adv-x="1148" d="M45 518q0 259 151 423.5t382 164.5q235 0 380.5 -149t145.5 -392q0 -171 -69.5 -305t-191 -207t-272.5 -73q-236 0 -381 147.5t-145 390.5zM242 1270q60 142 106.5 199t118.5 57q41 0 81.5 -19t68 -41.5t62 -41.5t64.5 -19q42 0 73 27t65 88l55 -31 q-58 -143 -104.5 -200.5t-120.5 -57.5q-40 0 -80.5 19t-68 42.5t-63 42.5t-65.5 19q-41 0 -71.5 -28t-63.5 -87zM346 590q0 -156 24 -274t78.5 -190.5t133.5 -72.5q74 0 124 55.5t72.5 153t22.5 234.5q0 157 -23.5 274t-77.5 188.5t-133 71.5q-111 0 -166 -116t-55 -324z " />
<glyph unicode="&#xf6;" horiz-adv-x="1148" d="M45 518q0 259 151 423.5t382 164.5q235 0 380.5 -149t145.5 -392q0 -171 -69.5 -305t-191 -207t-272.5 -73q-236 0 -381 147.5t-145 390.5zM229 1391q0 61 44 105t106 44q63 0 107 -43.5t44 -105.5t-44 -106t-107 -44q-61 0 -105.5 44.5t-44.5 105.5zM346 590 q0 -156 24 -274t78.5 -190.5t133.5 -72.5q74 0 124 55.5t72.5 153t22.5 234.5q0 157 -23.5 274t-77.5 188.5t-133 71.5q-111 0 -166 -116t-55 -324zM627 1391q0 61 43.5 105t103.5 44q64 0 108 -43.5t44 -105.5t-44 -106t-108 -44q-60 0 -103.5 44.5t-43.5 105.5z" />
<glyph unicode="&#xf7;" horiz-adv-x="1165" d="M131 696v123h903v-123h-903zM467 416q0 47 34 80.5t81 33.5q46 0 80 -33.5t34 -80.5t-34 -81t-80 -34q-47 0 -81 34t-34 81zM467 1102q0 46 34 79t81 33q46 0 80 -33t34 -79q0 -47 -34 -81t-80 -34q-47 0 -81 34t-34 81z" />
<glyph unicode="&#xf8;" horiz-adv-x="1148" d="M45 518q0 259 151 423.5t382 164.5q158 0 284 -74l109 158l61 -41l-108 -160q86 -73 133 -182t47 -242q0 -171 -69.5 -305t-191 -207t-272.5 -73q-165 0 -286 71l-107 -157l-61 40l108 160q-87 71 -133.5 179.5t-46.5 244.5zM346 590q0 -158 27 -281l377 555 q-63 166 -183 166q-111 0 -166 -116t-55 -324zM397 217q63 -164 185 -164q74 0 124 55.5t72.5 153t22.5 234.5q0 151 -25 276z" />
<glyph unicode="&#xf9;" horiz-adv-x="1230" d="M8 965v61l377 78h45l-10 -244v-512q0 -198 160 -198q56 0 102.5 19t105.5 58v617q0 54 -18.5 79t-75.5 35l-30 7v61l372 78h45l-8 -240v-647q0 -57 13.5 -75.5t68.5 -22.5l51 -4v-62l-372 -73h-52l6 196q-38 -42 -70.5 -72t-77.5 -61t-97.5 -47t-110.5 -16 q-140 0 -218.5 82t-78.5 249v533q0 54 -18.5 79t-75.5 35zM309 1548v15h289l113 -340h-72z" />
<glyph unicode="&#xfa;" horiz-adv-x="1230" d="M8 965v61l377 78h45l-10 -244v-512q0 -198 160 -198q56 0 102.5 19t105.5 58v617q0 54 -18.5 79t-75.5 35l-30 7v61l372 78h45l-8 -240v-647q0 -57 13.5 -75.5t68.5 -22.5l51 -4v-62l-372 -73h-52l6 196q-38 -42 -70.5 -72t-77.5 -61t-97.5 -47t-110.5 -16 q-140 0 -218.5 82t-78.5 249v533q0 54 -18.5 79t-75.5 35zM522 1223l113 340h289v-15l-330 -325h-72z" />
<glyph unicode="&#xfb;" horiz-adv-x="1230" d="M8 965v61l377 78h45l-10 -244v-512q0 -198 160 -198q56 0 102.5 19t105.5 58v617q0 54 -18.5 79t-75.5 35l-30 7v61l372 78h45l-8 -240v-647q0 -57 13.5 -75.5t68.5 -22.5l51 -4v-62l-372 -73h-52l6 196q-38 -42 -70.5 -72t-77.5 -61t-97.5 -47t-110.5 -16 q-140 0 -218.5 82t-78.5 249v533q0 54 -18.5 79t-75.5 35zM281 1217l233 350h197l233 -350h-88l-244 196l-243 -196h-88z" />
<glyph unicode="&#xfc;" horiz-adv-x="1230" d="M8 965v61l377 78h45l-10 -244v-512q0 -198 160 -198q56 0 102.5 19t105.5 58v617q0 54 -18.5 79t-75.5 35l-30 7v61l372 78h45l-8 -240v-647q0 -57 13.5 -75.5t68.5 -22.5l51 -4v-62l-372 -73h-52l6 196q-38 -42 -70.5 -72t-77.5 -61t-97.5 -47t-110.5 -16 q-140 0 -218.5 82t-78.5 249v533q0 54 -18.5 79t-75.5 35zM264 1391q0 61 44 105t106 44q63 0 107 -43.5t44 -105.5t-44 -106t-107 -44q-62 0 -106 44.5t-44 105.5zM662 1391q0 61 43.5 105t103.5 44q64 0 108 -43.5t44 -105.5t-44 -106t-108 -44q-60 0 -103.5 44.5 t-43.5 105.5z" />
<glyph unicode="&#xfd;" horiz-adv-x="1153" d="M10 1018v67h557v-67q-82 -9 -110.5 -22.5t-28.5 -47.5q0 -20 12 -57l246 -606l229 606q15 38 15 57q0 34 -28 47.5t-111 22.5v67h352v-67q-52 -15 -71.5 -30t-33.5 -48l-450 -1135q-54 -133 -115 -194.5t-156 -61.5q-54 0 -98 26t-59 69v104q77 -18 139 -18q88 0 139 31 t82 112l35 88l-440 979q-14 34 -33 49t-72 29zM553 1223l113 340h288v-15l-329 -325h-72z" />
<glyph unicode="&#xfe;" horiz-adv-x="1222" d="M12 -367q74 5 100.5 22t26.5 69v1675l-123 63v43l365 99h43v-691q132 193 344 193q189 0 299.5 -132t110.5 -366q0 -147 -43 -267t-117.5 -198t-174 -120.5t-214.5 -42.5q-136 0 -205 57v-307q0 -56 32.5 -72.5t137.5 -24.5v-67h-582v67zM424 293q0 -236 188 -236 q127 0 202 128t75 323q0 196 -71.5 311t-211.5 115q-103 0 -182 -72v-569z" />
<glyph unicode="&#xff;" horiz-adv-x="1153" d="M10 1018v67h557v-67q-82 -9 -110.5 -22.5t-28.5 -47.5q0 -20 12 -57l246 -606l229 606q15 38 15 57q0 34 -28 47.5t-111 22.5v67h352v-67q-52 -15 -71.5 -30t-33.5 -48l-450 -1135q-54 -133 -115 -194.5t-156 -61.5q-54 0 -98 26t-59 69v104q77 -18 139 -18q88 0 139 31 t82 112l35 88l-440 979q-14 34 -33 49t-72 29zM293 1391q0 61 43.5 105t105.5 44q63 0 107.5 -43.5t44.5 -105.5t-44.5 -106t-107.5 -44q-61 0 -105 44t-44 106zM690 1391q0 61 44 105t104 44q64 0 107.5 -43.5t43.5 -105.5t-43.5 -106t-107.5 -44q-60 0 -104 44.5 t-44 105.5z" />
<glyph unicode="&#x152;" horiz-adv-x="2088" d="M61 690q0 174 60.5 316t168.5 236t257 145t325 51h1106v-369h-59q-53 117 -94 175.5t-94 85t-136 26.5h-286v-570h260q66 0 95.5 43t45.5 146h72v-465h-72q-16 103 -45 144.5t-96 41.5h-260v-475q0 -81 41.5 -110t140.5 -29h129q50 0 88.5 12t69 32t64.5 64.5t62.5 90.5 t75.5 129h70l-63 -410h-1102q-204 0 -364 54t-259 149t-150 218.5t-51 268.5zM379 733q0 -140 34.5 -257t101.5 -206t174.5 -138.5t246.5 -49.5h72v1274h-115q-234 0 -374 -165.5t-140 -457.5z" />
<glyph unicode="&#x153;" horiz-adv-x="1767" d="M47 518q0 259 151 423.5t382 164.5q114 0 212 -48t166 -132q67 83 159 131.5t194 48.5q197 0 305 -118.5t108 -309.5v-47h-667q-6 -210 90.5 -333.5t249.5 -123.5q101 0 174 41.5t131 124.5l33 -18q-39 -157 -153 -249.5t-286 -92.5q-107 0 -201 46.5t-159 125.5 q-69 -80 -165 -126t-200 -46q-236 0 -380 147t-144 391zM348 590q0 -157 23.5 -274.5t77.5 -190t133 -72.5q111 0 166 117.5t55 325.5q0 157 -23.5 274t-77.5 188.5t-133 71.5q-111 0 -166 -116t-55 -324zM1061 707h409q0 323 -184 323q-98 0 -155 -88t-70 -235z" />
<glyph unicode="&#x178;" horiz-adv-x="1363" d="M10 1366v72h617v-72q-93 -3 -126.5 -18.5t-33.5 -55.5q0 -7 1 -14.5t2 -13t4.5 -14t4.5 -12t6.5 -14t7 -13t8.5 -15.5t9 -16l285 -498l266 494q43 88 43 116q0 39 -36.5 55t-125.5 19v72h412v-72q-45 -6 -73.5 -22.5t-47.5 -53.5l-399 -733v-350q0 -24 3.5 -42t8 -31 t17.5 -22.5t23 -15t34.5 -10.5t41.5 -7.5t54 -6.5v-72h-658v72q51 6 73.5 9.5t50 12t37.5 22t17 35.5t7 56v346l-412 737q-22 39 -48.5 54.5t-72.5 21.5zM389 1683q0 62 43.5 106t104.5 44q63 0 107 -44t44 -106q0 -61 -44 -105t-107 -44q-61 0 -104.5 44.5t-43.5 104.5z M797 1683q0 62 43 106t104 44q64 0 108 -44t44 -106q0 -61 -44 -105t-108 -44q-61 0 -104 44t-43 105z" />
<glyph unicode="&#x2c6;" horiz-adv-x="1024" d="M180 1217l234 350h196l234 -350h-88l-244 196l-244 -196h-88z" />
<glyph unicode="&#x2dc;" horiz-adv-x="1024" d="M170 1270q60 142 106.5 199t118.5 57q41 0 81.5 -19t68.5 -41.5t62.5 -41.5t64.5 -19q42 0 72.5 27t64.5 88l55 -31q-58 -143 -104.5 -200.5t-120.5 -57.5q-40 0 -80.5 19t-68 42.5t-63 42.5t-65.5 19q-41 0 -71.5 -28t-63.5 -87z" />
<glyph unicode="&#x2000;" horiz-adv-x="940" />
<glyph unicode="&#x2001;" horiz-adv-x="1880" />
<glyph unicode="&#x2002;" horiz-adv-x="940" />
<glyph unicode="&#x2003;" horiz-adv-x="1880" />
<glyph unicode="&#x2004;" horiz-adv-x="626" />
<glyph unicode="&#x2005;" horiz-adv-x="470" />
<glyph unicode="&#x2006;" horiz-adv-x="313" />
<glyph unicode="&#x2007;" horiz-adv-x="313" />
<glyph unicode="&#x2008;" horiz-adv-x="235" />
<glyph unicode="&#x2009;" horiz-adv-x="376" />
<glyph unicode="&#x200a;" horiz-adv-x="104" />
<glyph unicode="&#x2010;" horiz-adv-x="655" d="M61 559v129h533v-129h-533z" />
<glyph unicode="&#x2011;" horiz-adv-x="655" d="M61 559v129h533v-129h-533z" />
<glyph unicode="&#x2012;" horiz-adv-x="655" d="M61 559v129h533v-129h-533z" />
<glyph unicode="&#x2013;" horiz-adv-x="1105" d="M61 569v99h983v-99h-983z" />
<glyph unicode="&#x2014;" horiz-adv-x="1966" d="M61 569v99h1844v-99h-1844z" />
<glyph unicode="&#x2018;" horiz-adv-x="491" d="M82 1223q0 141 90.5 227t257.5 96v-67q-193 -25 -207 -166h80q54 -11 87.5 -48.5t33.5 -99.5q0 -69 -47 -112t-117 -43q-82 0 -130 59t-48 154z" />
<glyph unicode="&#x2019;" horiz-adv-x="491" d="M70 999v66q192 28 206 168h-79q-54 11 -87.5 48.5t-33.5 98.5q0 69 47 112.5t117 43.5q82 0 130 -59t48 -154q0 -142 -91 -228.5t-257 -95.5z" />
<glyph unicode="&#x201a;" horiz-adv-x="491" d="M70 -166q192 28 206 166h-79q-55 13 -88 49.5t-33 97.5q0 71 46.5 113.5t117.5 42.5q82 0 130 -59t48 -154q0 -141 -90.5 -227t-257.5 -96v67z" />
<glyph unicode="&#x201c;" horiz-adv-x="888" d="M82 1223q0 141 90.5 227t257.5 96v-67q-193 -25 -207 -166h80q54 -11 87.5 -48.5t33.5 -99.5q0 -69 -47 -112t-117 -43q-82 0 -130 59t-48 154zM479 1223q0 141 89.5 227t256.5 96v-67q-190 -25 -204 -166h77q56 -11 89.5 -48.5t33.5 -99.5q0 -69 -47 -112t-117 -43 q-82 0 -130 59t-48 154z" />
<glyph unicode="&#x201d;" horiz-adv-x="888" d="M70 999v66q192 28 206 168h-79q-54 11 -87.5 48.5t-33.5 98.5q0 69 47 112.5t117 43.5q82 0 130 -59t48 -154q0 -142 -91 -228.5t-257 -95.5zM467 999v66q190 28 207 168h-80q-56 11 -89.5 48t-33.5 99q0 69 47.5 112.5t116.5 43.5q83 0 131.5 -59t48.5 -154 q0 -142 -91 -228.5t-257 -95.5z" />
<glyph unicode="&#x201e;" horiz-adv-x="888" d="M70 -166q192 28 206 166h-79q-55 13 -88 49.5t-33 97.5q0 71 46.5 113.5t117.5 42.5q82 0 130 -59t48 -154q0 -141 -90.5 -227t-257.5 -96v67zM467 -166q190 28 207 166h-80q-56 13 -89.5 49.5t-33.5 97.5q0 70 47.5 113t116.5 43q83 0 131.5 -59t48.5 -154 q0 -141 -90.5 -227t-257.5 -96v67z" />
<glyph unicode="&#x2022;" horiz-adv-x="690" d="M61 623q0 118 83.5 202t199.5 84q118 0 201.5 -83.5t83.5 -202.5q0 -117 -83.5 -201t-201.5 -84q-116 0 -199.5 84t-83.5 201z" />
<glyph unicode="&#x2026;" horiz-adv-x="1433" d="M61 158q0 75 52.5 126.5t126.5 51.5t125 -51.5t51 -126.5q0 -76 -51 -127t-125 -51t-126.5 51t-52.5 127zM539 158q0 75 52 126.5t126 51.5t126 -51.5t52 -126.5q0 -76 -52 -127t-126 -51t-126 51t-52 127zM1018 158q0 75 51 126.5t125 51.5t126 -51.5t52 -126.5 q0 -76 -52 -127t-126 -51t-125 51t-51 127z" />
<glyph unicode="&#x202f;" horiz-adv-x="376" />
<glyph unicode="&#x2039;" horiz-adv-x="579" d="M59 557v12l385 402h78l-219 -408l219 -407h-78z" />
<glyph unicode="&#x203a;" horiz-adv-x="579" d="M59 156l220 407l-220 408h76l387 -402v-12l-387 -401h-76z" />
<glyph unicode="&#x205f;" horiz-adv-x="470" />
<glyph unicode="&#x20ac;" horiz-adv-x="1347" d="M33 569v78h166v47q0 60 6 115h-172v78h182q46 263 212.5 417t403.5 154q250 0 406 -125v-325h-78q-35 177 -109 274.5t-206 97.5q-74 0 -134 -40t-99.5 -109.5t-65 -156t-35.5 -187.5h469l-25 -78h-448q-2 -23 -2 -64q0 -67 2 -98h401l-24 -78h-373q47 -508 348 -508 q72 0 127.5 25.5t98 80t73.5 123t62 169.5h75l-32 -369q-184 -110 -418 -110q-278 0 -442.5 157.5t-196.5 431.5h-172z" />
<glyph unicode="&#x2122;" horiz-adv-x="1755" d="M74 1221l14 217h625l14 -217h-43q-39 91 -72 129.5t-92 38.5h-37v-519q0 -36 22.5 -49t74.5 -16v-47h-357v47q51 3 72.5 16t21.5 49v519h-36q-59 0 -92 -39t-70 -129h-45zM735 758v47q40 3 58.5 15.5t21.5 39.5l62 449q-3 75 -82 80v49h239q5 -32 17 -62l151 -391 l146 389q13 49 14 64h231v-49q-46 -3 -64 -23t-18 -57l60 -449q4 -30 22.5 -41t61.5 -14v-47h-336v47q54 3 74 14.5t20 42.5q0 12 -8 74l-43 315l-180 -497h-56l-194 497l-41 -315q-6 -47 -6 -74q0 -32 19 -43t73 -14v-47h-242z" />
<glyph unicode="&#x25fc;" horiz-adv-x="1085" d="M0 0v1085h1085v-1085h-1085z" />
</font>
</defs>
</svg>
